<svg xmlns="http://www.w3.org/2000/svg" width="current" height="current" viewBox="0 0 835.28 363.9"><defs><style>.cls-1{fill:#048175;}.cls-2{fill:#06b68d;}.cls-3{fill:#b7f0b1;}.cls-4{fill:#94dd8b;}</style></defs><g id="Layer_2" data-name="Layer 2"><g id="Layer_1-2" data-name="Layer 1"><path class="cls-1" d="M181.31,36a28.21,28.21,0,0,1,12.1,15.53q3,9.59-4.8,21L69.42,244.7H164V169.81q0-12.78,8.68-18.73a37,37,0,0,1,40.19,0q8.67,5.94,8.67,18.73V244.7h27.86q10.5,0,15.07,7.08A30.14,30.14,0,0,1,269,268.45a29.23,29.23,0,0,1-4.57,16.21q-4.56,7.09-15.07,7.08H221.49V337q0,12.8-8.67,18.73a37,37,0,0,1-40.19,0Q163.95,349.76,164,337V291.74H36.08q-19.18,0-27.63-6.85T0,263.43a26.46,26.46,0,0,1,.46-4.8,31.54,31.54,0,0,1,1.82-5.93,69.35,69.35,0,0,1,4.11-8.22q2.75-4.8,7.77-12.11L145.23,42.85q6.84-10.05,16.89-11.19A29.87,29.87,0,0,1,181.31,36Z"/><path class="cls-1" d="M414.67,29.15q63.48,0,92.48,41.1t29,116.45v19.64q0,75.36-29,116.46t-92.48,41.1q-63.48,0-92.48-41.1t-29-116.46V186.7q0-75.34,29-116.45T414.67,29.15Zm0,55.26q-17.81,0-29.91,5.93t-19.18,19q-7.09,13-10.28,33.11t-3.2,48.4v11.42q0,28.32,3.2,48.41t10.28,33.11q7.07,13,19.18,18.95t29.91,5.94q17.81,0,29.91-5.94t19.18-18.95q7.08-13,10.28-33.11t3.2-48.41V190.81q0-28.31-3.2-48.4T463.76,109.3q-7.08-13-19.18-19T414.67,84.41Z"/><path class="cls-1" d="M747.59,36a28.12,28.12,0,0,1,12.1,15.53q3,9.59-4.79,21L635.7,244.7h94.54V169.81q0-12.78,8.68-18.73a37,37,0,0,1,40.18,0q8.67,5.94,8.68,18.73V244.7h27.86q10.5,0,15.07,7.08a30.14,30.14,0,0,1,4.57,16.67,29.23,29.23,0,0,1-4.57,16.21q-4.58,7.09-15.07,7.08H787.78V337q0,12.8-8.68,18.73a36.94,36.94,0,0,1-40.18,0q-8.68-5.93-8.68-18.73V291.74H602.37q-19.18,0-27.63-6.85t-8.45-21.46a26.46,26.46,0,0,1,.46-4.8,30.81,30.81,0,0,1,1.82-5.93,67.84,67.84,0,0,1,4.11-8.22q2.75-4.8,7.76-12.11L711.52,42.85q6.84-10.05,16.89-11.19A29.84,29.84,0,0,1,747.59,36Z"/><path class="cls-2" d="M607.18,111.74C534,233.51,492.75,301.24,380.7,343.92c-12.88,4.91-38.66-3.78-36.28-12.61C370.1,236.16,465.15,139.69,607.18,111.74Z"/><path class="cls-3" d="M545.81,0c-17,3.78-42.21,17.68-69.31,40.81L466.38,75.47l.23-25.88A396.21,396.21,0,0,0,397.36,135c-2.11,23.72-5,57.76-5,57.76l-5.79-38.84A404.82,404.82,0,0,0,340.19,308.8c-1.36,15,20,28.72,30.92,19.56,33.33-27.94,66.8-58.69,95.7-99.91l-54.67,4.32s46-20.45,72.55-32.3a425.62,425.62,0,0,0,37.71-86.42l-45.93,6.55s36.37-20.79,52.93-30.86A641.56,641.56,0,0,0,545.81,0Z"/><path class="cls-4" d="M432.76,270.65l0,0q2-2.13,3.9-4.3l0-.05q1.93-2.16,3.85-4.35l.06-.07q1.9-2.19,3.78-4.41l.1-.11c1.24-1.48,2.49-3,3.72-4.47l.12-.14c1.22-1.49,2.45-3,3.66-4.52l.14-.17c1.2-1.51,2.41-3,3.6-4.59l.16-.2q1.77-2.3,3.54-4.65l.18-.24c1.16-1.56,2.32-3.12,3.47-4.71l.21-.28q1.71-2.37,3.4-4.77l.1-.15-54.67,4.32s46-20.45,72.55-32.3q8.06-13.87,15.4-29.27c.06-.14.13-.27.19-.41q1.11-2.34,2.2-4.71l.39-.88c.72-1.56,1.42-3.13,2.12-4.72.08-.17.16-.35.23-.53q3.27-7.44,6.34-15.25c.16-.39.31-.77.46-1.16.56-1.43,1.11-2.87,1.66-4.32l.75-2c.52-1.38,1-2.77,1.54-4.17.27-.74.53-1.49.79-2.23.5-1.4,1-2.8,1.49-4.21l.69-2q1.77-5.18,3.46-10.51l-45.93,6.55s36.37-20.79,52.93-30.86h0q.93-3.58,1.83-7.24c.13-.53.27-1.06.4-1.6q.87-3.57,1.71-7.22c.1-.42.19-.84.29-1.26q.76-3.35,1.5-6.76l.27-1.28c.54-2.49,1.05-5,1.56-7.54.11-.56.23-1.13.34-1.69.51-2.61,1-5.23,1.5-7.88v-.05c.49-2.65,1-5.34,1.43-8l.3-1.77c.44-2.66.88-5.34,1.3-8l.21-1.37c.38-2.5.76-5,1.12-7.56.07-.46.13-.92.2-1.38.39-2.77.76-5.57,1.13-8.4.08-.62.16-1.24.23-1.86q.56-4.35,1.07-8.79c-69.87,67-149.29,230.35-184.6,308.64-12,26.7.35,27.72,9.9,19.72C392,310.85,412.93,292.24,432.76,270.65Z"/><path class="cls-1" d="M444.58,302.7q-12.1,5.94-29.91,5.94t-29.91-5.94q-12.11-5.93-19.18-18.95T355.3,250.64q-1.17-7.39-1.92-15.92H294.32q4.59,55.08,27.87,88.08,29,41.1,92.48,41.1t92.48-41.1q23.28-33,27.86-88.08s-19.83,22.48-43.4,40.43C471.94,290.13,448.25,300.91,444.58,302.7Z"/></g></g></svg>