<svg xmlns="http://www.w3.org/2000/svg" width="current" height="current" viewBox="0 0 90 90.36">
  <g fill="current">
    <path class="cls-2" d="M81.17,11.88H59.77a15.05,15.05,0,0,0-29.51,0H8.83a3,3,0,0,0,0,6h3.05l0,63.29a9,9,0,0,0,9,9H69.12a9,9,0,0,0,9-9V17.88h3a3,3,0,1,0,0-6ZM45,5.81a9.05,9.05,0,0,1,8.54,6.07H36.47A9.06,9.06,0,0,1,45,5.81ZM72.12,81.17a3,3,0,0,1-3,3H20.86a3,3,0,0,1-3-3l0-63.29H72.12Z" transform="translate(0 0.19)"/>
    <path class="cls-2" d="M29.92,78.12a3,3,0,0,0,3-3V27.89a3,3,0,0,0-6,0V75.12A3,3,0,0,0,29.92,78.12Z" transform="translate(0 0.19)"/>
    <path class="cls-2" d="M60.08,78.12a3,3,0,0,0,3-3V27.89a3,3,0,0,0-6,0V75.12A3,3,0,0,0,60.08,78.12Z" transform="translate(0 0.19)"/>
    <path class="cls-2" d="M45,78.12a3,3,0,0,0,3-3V27.89a3,3,0,1,0-6,0V75.12A3,3,0,0,0,45,78.12Z" transform="translate(0 0.19)"/>
  </g>
</svg>