<svg xmlns="http://www.w3.org/2000/svg" width="current" height="current" viewBox="0 0 90 90">
  <g fill="current">
    <path class="cls-2" d="M79.35,34.53l-.95-.17a3.52,3.52,0,0,1-2.26-5.46l.55-.79a9.54,9.54,0,0,0-1.1-12.17l-1.53-1.53a9.54,9.54,0,0,0-12.17-1.1l-.79.55a3.52,3.52,0,0,1-5.46-2.26l-.17-.95a9.54,9.54,0,0,0-9.39-7.83H43.92a9.54,9.54,0,0,0-9.39,7.83l-.17.95a3.52,3.52,0,0,1-5.46,2.26l-.79-.55a9.53,9.53,0,0,0-12.17,1.1l-1.53,1.53a9.54,9.54,0,0,0-1.1,12.17l.55.79a3.52,3.52,0,0,1-2.26,5.46l-.95.17a9.54,9.54,0,0,0-7.83,9.39v2.16a9.54,9.54,0,0,0,7.83,9.39l.95.17a3.52,3.52,0,0,1,2.26,5.46l-.55.79a9.54,9.54,0,0,0,1.1,12.17l1.53,1.53a9.54,9.54,0,0,0,12.17,1.1l.79-.55a3.52,3.52,0,0,1,5.46,2.26l.17.95a9.54,9.54,0,0,0,9.39,7.83h2.16a9.54,9.54,0,0,0,9.39-7.83l.17-.95a3.52,3.52,0,0,1,5.46-2.26l.79.55a9.53,9.53,0,0,0,12.17-1.1l1.53-1.53a9.54,9.54,0,0,0,1.1-12.17l-.55-.79a3.52,3.52,0,0,1,2.26-5.46l.95-.17a9.54,9.54,0,0,0,7.83-9.39V43.92A9.54,9.54,0,0,0,79.35,34.53Zm1.81,11.55a3.53,3.53,0,0,1-2.89,3.46l-.94.17a9.54,9.54,0,0,0-6.14,14.82l.54.79a3.5,3.5,0,0,1-.4,4.48L69.8,71.33a3.5,3.5,0,0,1-4.48.4l-.79-.54a9.54,9.54,0,0,0-14.82,6.14l-.17.94a3.53,3.53,0,0,1-3.46,2.89H43.92a3.53,3.53,0,0,1-3.46-2.89l-.17-.94a9.54,9.54,0,0,0-14.82-6.14l-.79.54a3.5,3.5,0,0,1-4.48-.4L18.67,69.8a3.5,3.5,0,0,1-.4-4.48l.54-.79a9.54,9.54,0,0,0-6.14-14.82l-.94-.17a3.53,3.53,0,0,1-2.89-3.46V43.92a3.53,3.53,0,0,1,2.89-3.46l.94-.17a9.54,9.54,0,0,0,6.14-14.82l-.54-.79a3.5,3.5,0,0,1,.4-4.48l1.53-1.53a3.5,3.5,0,0,1,4.48-.4l.79.54a9.54,9.54,0,0,0,14.82-6.14l.17-.94a3.53,3.53,0,0,1,3.46-2.89h2.16a3.53,3.53,0,0,1,3.46,2.89l.17.94a9.54,9.54,0,0,0,14.82,6.14l.79-.54a3.5,3.5,0,0,1,4.48.4l1.53,1.53a3.5,3.5,0,0,1,.4,4.48l-.54.79a9.54,9.54,0,0,0,6.14,14.82l.94.17h0a3.53,3.53,0,0,1,2.89,3.46Z"/>
    <path class="cls-2" d="M45,26.92A18.08,18.08,0,1,0,63.08,45,18.1,18.1,0,0,0,45,26.92Zm0,30.13a12,12,0,1,1,12-12A12.06,12.06,0,0,1,45,57.05Z"/>
  </g>
</svg>