<svg xmlns="http://www.w3.org/2000/svg" width="current" height="current" viewBox="0 0 90 90">
  <g fill="current">
    <path d="M57.49,15.2,24.79,47.9A3,3,0,0,0,23.91,50v13a3,3,0,0,0,3,3H40a3,3,0,0,0,2.13-.88L82,25.29a7.35,7.35,0,0,0,0-10.41L75.12,8A7.35,7.35,0,0,0,64.71,8L57.49,15.2ZM38.72,60.06H29.94V51.28L59.62,21.59l8.79,8.79ZM69,12.25a1.32,1.32,0,0,1,.94-.39,1.33,1.33,0,0,1,1,.39l6.89,6.89a1.35,1.35,0,0,1,.39.95,1.32,1.32,0,0,1-.39.94l-5.08,5.09-8.79-8.79Z"/>
    <path d="M81.16,42a3,3,0,0,0-3,3V78.14H11.86V11.86H45a3,3,0,0,0,0-6H8.84a3,3,0,0,0-3,3V81.16a3,3,0,0,0,3,3H81.16a3,3,0,0,0,3-3V45A3,3,0,0,0,81.16,42Z"/>
  </g>
</svg>