<svg xmlns="http://www.w3.org/2000/svg" width="current" height="current" viewBox="0 0 90 90">
  <g fill="current">
    <path d="M75.12,17.91H69.35a1.14,1.14,0,0,0-.52,0H56.65a12,12,0,0,0-23.32,0H21.14a2.3,2.3,0,0,0-.26,0l-.25,0H14.88a3,3,0,1,0,0,6h3V72.12a9,9,0,0,0,9,9H63.09a9,9,0,0,0,9-9V23.91h3a3,3,0,0,0,0-6ZM45,14.86a6.07,6.07,0,0,1,5.25,3.05H39.74A6,6,0,0,1,45,14.86Zm21.1,57.26a3,3,0,0,1-3,3H26.88a3,3,0,0,1-3-3V23.91H66.09Z"/>
    <path d="M36,30a3,3,0,0,0-3,3V66.09a3,3,0,0,0,6,0V33A3,3,0,0,0,36,30Z"/>
    <path d="M51,33V66.09a3,3,0,0,0,6,0V33a3,3,0,0,0-6,0Z"/>
  </g>
</svg>