<svg xmlns="http://www.w3.org/2000/svg" width="current" height="current" viewBox="0 0 90 90">
  <path fill="current" d="M86.92,46.21l.06-.16c0-.12.08-.24.11-.36s0-.11,0-.16a3.29,3.29,0,0,0,.05-.54h0a3.1,3.1,0,0,0-.05-.54c0-.06,0-.11,0-.17S87,44,87,43.92l-.06-.15a2.46,2.46,0,0,0-.25-.45l0,0q-.14-.18-.3-.36l-.11-.11-.29-.23-.14-.1a3.61,3.61,0,0,0-.39-.22l-.07,0h0L13,12.09A3,3,0,0,0,9.27,16.4L26.42,45,9.27,73.6a3,3,0,0,0,.31,3.5,3,3,0,0,0,2.27,1A2.92,2.92,0,0,0,13,77.91L85.34,47.76h0l.06,0a3.3,3.3,0,0,0,.41-.23l.13-.09a3.36,3.36,0,0,0,.29-.24l.11-.11a2.6,2.6,0,0,0,.3-.36l0,0A3.37,3.37,0,0,0,86.92,46.21ZM19.11,21.13,69.18,42H31.62ZM31.62,48H69.19L19.11,68.87Z"/>
</svg>  