<svg xmlns="http://www.w3.org/2000/svg" width="current" hegith="current" viewBox="0 0 90 90">
  <path fill="current" d="M83.9,46.21a1,1,0,0,0,.06-.16,2.53,2.53,0,0,0,.12-.36l0-.16a2.48,2.48,0,0,0,.06-.54h0a2.35,2.35,0,0,0-.06-.54l0-.17a2.53,2.53,0,0,0-.12-.36.94.94,0,0,0-.06-.15,2.42,2.42,0,0,0-.24-.45l0,0q-.13-.18-.3-.36l-.12-.11a3.11,3.11,0,0,0-.28-.23l-.14-.1a3.78,3.78,0,0,0-.4-.22l-.06,0h0L10,12.09A3,3,0,0,0,6.26,16.4L23.41,45,6.26,73.6A3,3,0,0,0,10,77.91L82.32,47.76h0l0,0a2.71,2.71,0,0,0,.41-.23l.13-.09a3.5,3.5,0,0,0,.3-.24l.11-.11a2.6,2.6,0,0,0,.3-.36l0,0A3.28,3.28,0,0,0,83.9,46.21ZM16.1,21.13,66.16,42H28.61ZM28.61,48H66.18L16.09,68.87Z"/>
</svg>