<svg xmlns="http://www.w3.org/2000/svg" wdith="current" height="current" viewBox="0 0 200 46.61">
<defs><style>.cls-1{fill:#fff;}.cls-2{fill:#94dd8b;}</style></defs><g id="letters"><path class="cls-1" d="M20.73,20.48,13.86,40,5.76,16.4a2.32,2.32,0,0,0-1.58-1.58,3.64,3.64,0,0,0-2.26.09A3,3,0,0,0,.27,16.2a2.45,2.45,0,0,0,0,2.19l10,26.32a4.32,4.32,0,0,0,1.52,2.13,3.78,3.78,0,0,0,2,.54,3.88,3.88,0,0,0,2.06-.54,4.25,4.25,0,0,0,1.51-2.13l8-20.62A20.5,20.5,0,0,0,20.73,20.48Z" transform="translate(0 -1)"/><path class="cls-1" d="M58.76,22.55a13,13,0,0,1,4.44.72,10.08,10.08,0,0,1,3.43,2.08,9.23,9.23,0,0,1,2.24,3.35,12.26,12.26,0,0,1,.79,4.57v.09a4.08,4.08,0,0,1-.83,2.94,4.32,4.32,0,0,1-3,.81H53v.09a5.42,5.42,0,0,0,1.52,4A6.1,6.1,0,0,0,59,42.72a17.09,17.09,0,0,0,3.32-.29,13.74,13.74,0,0,0,2.92-1A2.35,2.35,0,0,1,67,41.34a2.14,2.14,0,0,1,1.27,1.25,2.8,2.8,0,0,1,.18,1.83,2,2,0,0,1-1.13,1.33A15.87,15.87,0,0,1,63.6,47a23.12,23.12,0,0,1-4.79.43q-5.43,0-8.41-3t-3-8.89V34.44c0-3.91,1-6.88,3-8.88S55.24,22.55,58.76,22.55Zm-.09,4.7a5.62,5.62,0,0,0-4.27,1.5A5.27,5.27,0,0,0,53,32.55v.31H64.19v-.45a5.43,5.43,0,0,0-1.27-3.69C62.08,27.74,60.66,27.25,58.67,27.25Z" transform="translate(0 -1)"/><path class="cls-1" d="M88.61,14.46a19.65,19.65,0,0,1,5.5.67A13.66,13.66,0,0,1,98,16.9a2.35,2.35,0,0,1,1.13,1.76,2.9,2.9,0,0,1-.54,1.95A2.65,2.65,0,0,1,97,21.74a2.26,2.26,0,0,1-1.79-.32,11.6,11.6,0,0,0-2.91-1.27,13.71,13.71,0,0,0-3.69-.45,13.27,13.27,0,0,0-3.91.52A5.63,5.63,0,0,0,82,22a8,8,0,0,0-1.56,3.34,22.46,22.46,0,0,0-.5,5.21v1a22.37,22.37,0,0,0,.5,5.2A8,8,0,0,0,82,40.05a5.6,5.6,0,0,0,2.76,1.79,14.08,14.08,0,0,0,4.13.52,16.55,16.55,0,0,0,2.92-.23,13.38,13.38,0,0,0,2.51-.72V33.86H89.24a1.71,1.71,0,0,1-1.53-.73,3,3,0,0,1-.5-1.72,2.89,2.89,0,0,1,.5-1.67A1.73,1.73,0,0,1,89.24,29h7a4.32,4.32,0,0,1,3,.81,4.08,4.08,0,0,1,.83,2.94v9a5.07,5.07,0,0,1-.58,2.66,4.32,4.32,0,0,1-2,1.59,20.32,20.32,0,0,1-4.09,1.2,25.59,25.59,0,0,1-4.64.43,21.32,21.32,0,0,1-6.26-.84,10.86,10.86,0,0,1-4.59-2.69A11.8,11.8,0,0,1,75,39.24a24.35,24.35,0,0,1-1-7.28V30.1a24.35,24.35,0,0,1,1-7.28A11.8,11.8,0,0,1,77.85,18a10.93,10.93,0,0,1,4.54-2.69A21,21,0,0,1,88.61,14.46Z" transform="translate(0 -1)"/><path class="cls-1" d="M118.14,22.55a5,5,0,0,1,2.45.5,2.25,2.25,0,0,1,1.08,1.17,3.11,3.11,0,0,1,.09,1.68,3.26,3.26,0,0,1-1,2,2,2,0,0,1-1.83.48c-.39-.06-.77-.14-1.13-.23a4.66,4.66,0,0,0-1.13-.13,4.56,4.56,0,0,0-1.92.4,5.18,5.18,0,0,0-1.54,1.11,5.3,5.3,0,0,0-1,1.68,5.56,5.56,0,0,0-.38,2.1V45a2,2,0,0,1-.86,1.81,3.62,3.62,0,0,1-4,0,2,2,0,0,1-.88-1.81V25.13a1.94,1.94,0,0,1,.84-1.74,3.23,3.23,0,0,1,1.87-.57,3.29,3.29,0,0,1,1.92.57,1.94,1.94,0,0,1,.84,1.74v1.58h.09a7.61,7.61,0,0,1,2.67-3A6.86,6.86,0,0,1,118.14,22.55Z" transform="translate(0 -1)"/><path class="cls-1" d="M135.87,22.55a12.91,12.91,0,0,1,4.43.72,10,10,0,0,1,3.44,2.08A9.23,9.23,0,0,1,146,28.7a12.26,12.26,0,0,1,.79,4.57v.09a4,4,0,0,1-.84,2.94,4.29,4.29,0,0,1-3,.81H130.08v.09a5.42,5.42,0,0,0,1.52,4,6.09,6.09,0,0,0,4.54,1.54,17.12,17.12,0,0,0,3.33-.29,13.48,13.48,0,0,0,2.91-1,2.38,2.38,0,0,1,1.77-.11,2.1,2.1,0,0,1,1.26,1.25,2.68,2.68,0,0,1,.18,1.83,2,2,0,0,1-1.13,1.33A15.64,15.64,0,0,1,140.71,47a23.19,23.19,0,0,1-4.79.43q-5.43,0-8.42-3t-3-8.89V34.44c0-3.91,1-6.88,3-8.88S132.34,22.55,135.87,22.55Zm-.09,4.7a5.62,5.62,0,0,0-4.27,1.5,5.27,5.27,0,0,0-1.43,3.8v.31H141.3v-.45A5.43,5.43,0,0,0,140,28.72C139.19,27.74,137.77,27.25,135.78,27.25Z" transform="translate(0 -1)"/><path class="cls-1" d="M162.19,22.55a12.91,12.91,0,0,1,4.43.72,10,10,0,0,1,3.44,2.08,9.23,9.23,0,0,1,2.24,3.35,12.26,12.26,0,0,1,.79,4.57v.09a4,4,0,0,1-.84,2.94,4.29,4.29,0,0,1-3,.81H156.4v.09a5.42,5.42,0,0,0,1.52,4,6.09,6.09,0,0,0,4.54,1.54,17.12,17.12,0,0,0,3.33-.29,13.48,13.48,0,0,0,2.91-1,2.38,2.38,0,0,1,1.77-.11,2.1,2.1,0,0,1,1.26,1.25,2.74,2.74,0,0,1,.19,1.83,2.06,2.06,0,0,1-1.13,1.33A15.87,15.87,0,0,1,167,47a23.19,23.19,0,0,1-4.79.43q-5.43,0-8.41-3t-3-8.89V34.44c0-3.91,1-6.88,3-8.88S158.66,22.55,162.19,22.55Zm-.09,4.7a5.62,5.62,0,0,0-4.27,1.5,5.27,5.27,0,0,0-1.43,3.8v.31h11.22v-.45a5.43,5.43,0,0,0-1.27-3.69C165.51,27.74,164.09,27.25,162.1,27.25Z" transform="translate(0 -1)"/><path class="cls-1" d="M191.32,22.55a8.62,8.62,0,0,1,6.33,2.33q2.35,2.32,2.35,6.9V45a2,2,0,0,1-.86,1.81,3.46,3.46,0,0,1-2,.59,3.51,3.51,0,0,1-2-.59A2,2,0,0,1,194.3,45V33a8.49,8.49,0,0,0-.36-2.69,4.07,4.07,0,0,0-1-1.68,3.6,3.6,0,0,0-1.51-.86,7.12,7.12,0,0,0-1.88-.24,6.68,6.68,0,0,0-1.81.27,4.51,4.51,0,0,0-1.74.95,5.13,5.13,0,0,0-1.31,1.81,6.6,6.6,0,0,0-.52,2.8V45a2,2,0,0,1-.86,1.81,3.43,3.43,0,0,1-2,.59,3.51,3.51,0,0,1-2-.59,2,2,0,0,1-.88-1.81V25.13a1.94,1.94,0,0,1,.84-1.74,3.37,3.37,0,0,1,3.75,0,1.94,1.94,0,0,1,.84,1.74v.81H184a5.9,5.9,0,0,1,1.36-1.51,7.45,7.45,0,0,1,1.78-1.07,10.67,10.67,0,0,1,2.06-.61A12,12,0,0,1,191.32,22.55Z" transform="translate(0 -1)"/></g><g id="check"><path class="cls-2" d="M63.17,1.21c-.19-.28-.67-.23-1-.13A39,39,0,0,0,34.47,38a30.43,30.43,0,0,0-5.33-13.74,20.43,20.43,0,0,0-6.26-5.59A17.44,17.44,0,0,0,19,17.08c-.46-.13-1.59-.6-2-.25-.62.51.44,1.31.8,1.65,3.76,3.6,5.92,8.54,7.73,13.41S29,41.82,32,46.07a3.14,3.14,0,0,0,1.82,1.49c1.26.22,2.28-1,2.92-2.12,3.43-6,5-12.81,8-19,4-8.37,10.27-15.36,16.47-22.24.61-.68,1.22-1.36,1.8-2.07.19-.24.39-.54.27-.82A.25.25,0,0,0,63.17,1.21Z" transform="translate(0 -1)"/></g></svg>