<svg xmlns="http://www.w3.org/2000/svg" width="current" height="current" preserveAspectRatio="xMidYMid slice" viewBox="0 0 900 1200"><g id="Layer_29" data-name="Layer 29"><rect width="900" height="1200" style="fill:none"/></g><g id="baby-bear-body"><path d="M298.25,439.9c-.79.85-1.58,1.75-2.42,2.66-2.25,2.46-3.1,5-4.46,8.07-2.39,5.35-7.52,9-10,14.32-2.68,5.67-5.48,11.31-9.46,16.3s-9.13,9-13.25,13.92c-10.61,12.65-13.55,30.59-10.24,46.77,2.12,10.39,6.77,20.45,14.35,27.86,9.6,9.39,23.84,14.69,35.61,6.76,11.31-7.62,18.52-20.17,23.57-32.52,4.36-10.69,7.59-21.89,12-32.51,4.75-11.42,10.06-22.27,13.58-34.2,2.29-7.74,4.11-15.76,3.56-23.81-1.2-17.51-15.27-29.5-33-25.42a48.8,48.8,0,0,0-9.36,3.42C304.25,433.59,301.36,436.49,298.25,439.9Z" style="fill:#8e592d"/><path d="M309.19,591.08c-1.24.08-2.27,0-2.6-.49-.94-1.38,1.84-4.93,2.46-6.18,2.56-5.25,5.5-10.32,7.77-15.71,3.07-7.29,4.89-15.54,2.61-23.11-2.06-6.83-7.15-12.25-12.1-17.39-11.51-12-37.78-19.78-48.74-2.25a37.81,37.81,0,0,0,1.91,41.85c3.56,4.68,8.34,8.67,10.27,14.23s.64,11.65,0,17.51a16.7,16.7,0,0,0,3.17,11,12.11,12.11,0,0,0,7.84,5.26c3.43.53,6.88-.81,9.87-2.57s5.71-4,8.85-5.46c5.13-2.42,10.68-1.77,16-3.77,1-.39,2.15-1,2.43-2a1.91,1.91,0,0,0-1.88-2.26,5.42,5.42,0,0,0,2.62-1.56,3,3,0,0,0,.66-2.87,2.11,2.11,0,0,0-2.44-1.38,2.34,2.34,0,0,0-.83-2.2,5,5,0,0,0-2.22-1C313.69,590.45,311.16,591,309.19,591.08Z" style="fill:#9b633a"/></g><g id="baby-bear-head"><path d="M310.71,389.87a43.34,43.34,0,0,0-8.64,5.39c-4.58,3.63-7.68,7.2-9.28,13.18-1.67,6.24-1.13,13-.06,19.25,1,5.94,2.61,12,6.31,16.51,5,6.05,12.81,8.09,20.13,9.81s14.95,3.32,21.69,0c6.37-3.1,10.44-10,13.81-16.62,3.92-7.77,7.49-16.74,5.2-25.18-1.43-5.29-5-9.55-8.76-13.22-5.29-5.17-11.35-9.66-18.25-11.57C325.58,385.42,317.59,386.64,310.71,389.87Z" style="fill:#9b633a"/><path d="M318.12,393.57a4.1,4.1,0,0,0,1.66-1.72,3.81,3.81,0,0,0-.34-2.77c-2.09-5-6.39-9.32-11.72-10.18a12.92,12.92,0,0,0-13.89,8.5c-1.58,4.87.63,13,5.94,15,2.75,1,6.38-1.7,8.75-3A99.75,99.75,0,0,0,318.12,393.57Z" style="fill:#8e592d"/><path d="M310,396.7a4.05,4.05,0,0,0,2-2,3.59,3.59,0,0,0-.06-2,11.62,11.62,0,0,0-8.9-8.38c-2.74-.52-6,.28-7.3,2.76a6.61,6.61,0,0,0-.64,2.91c-.09,3.44,1.48,7.81,4.42,9.86S307.31,398.36,310,396.7Z" style="fill:#72431f"/><path d="M358.12,387.36a11.35,11.35,0,0,1,6.71,5.45,12.41,12.41,0,0,1,1,6.58,14.29,14.29,0,0,1-1.31,5c-2.1,4.27-7.69,6.78-12,4.68-2.15-1-3.68-3-5.14-4.9-2.92-3.78-9.38-9.2-4.43-13.74A15.94,15.94,0,0,1,358.12,387.36Z" style="fill:#8e592d"/><path d="M351.75,405a8,8,0,0,0,3,2.38,6.59,6.59,0,0,0,2.54.24,5.75,5.75,0,0,0,3.84-1.39,6.79,6.79,0,0,0,1.45-3.65A15.31,15.31,0,0,0,363,398a5.18,5.18,0,0,0-2.14-3.84,5.72,5.72,0,0,0-2.25-.76,17.31,17.31,0,0,0-7,.81c-2.19.61-5.22,2-4.65,4.87C347.31,401.21,350.36,403.42,351.75,405Z" style="fill:#72431f"/><path d="M317.86,427.87a35.14,35.14,0,0,0-6.73,11.77c-.87,2.6-1.4,5.58-.06,8,1.69,3,5.63,3.86,9.09,3.87a6,6,0,0,1,1.8.18,6.37,6.37,0,0,1,1.4.77,8.45,8.45,0,0,0,7.07,1.22c3.65-1.25,5.22-5.54,5.71-9.37a27.42,27.42,0,0,0-.79-11.68c-1-3.15-3.34-8.22-6.81-9.34C324.45,422,320.35,425,317.86,427.87Z" style="fill:#8e592d"/><path d="M321,442.3c-1.31.21-2.66.81-3,2.2a5.23,5.23,0,0,0,4.2,5.92,6,6,0,0,0,2.68-.38,5,5,0,0,0,3-2.55c1.53-3.59-3.23-5.38-6-5.27C321.58,442.23,321.29,442.26,321,442.3Z" style="fill:#4f3216"/><path d="M317.49,419.82a3.42,3.42,0,0,0-3.18-1.78c-1.43.17-2.46,1.4-3.31,2.56a6.44,6.44,0,0,0-1,1.76,3.68,3.68,0,0,0,1.24,3.87,4.37,4.37,0,0,0,4.09.63C318.43,425.79,319.05,422.5,317.49,419.82Z" style="fill:#4f3216"/><path d="M338.14,421.35a3.31,3.31,0,0,0-1.15,1,9.36,9.36,0,0,0-1.67,3.3,2.8,2.8,0,0,0-.07,1.57,4.19,4.19,0,0,0,2,1.9,4.81,4.81,0,0,0,2.16.83,2.77,2.77,0,0,0,2.24-1,3.75,3.75,0,0,0,.76-2.16C342.54,425.24,341.39,419.85,338.14,421.35Z" style="fill:#4f3216"/><path d="M314.39,421.14a1.25,1.25,0,0,0,.94.8.9.9,0,0,0,.46,0,1.26,1.26,0,0,0,.19-2.12A1.13,1.13,0,0,0,314.39,421.14Z" style="fill:#fff"/><path d="M338.44,423.92a1.24,1.24,0,0,0,.94.8,1,1,0,0,0,.46,0,1.27,1.27,0,0,0,.19-2.13A1.13,1.13,0,0,0,338.44,423.92Z" style="fill:#fff"/></g><g id="baby-bear-arm"><path d="M299.64,485.43c1.69,5.93,6,10.84,11,14.43a41.93,41.93,0,0,0,10.56,5.49,84.15,84.15,0,0,0,11.33,2.83l23,4.62c2.42.48,5,1,7.33.31s4.52-2.85,4.26-5.3a4.51,4.51,0,0,0,5.54-6.36c3.11-1.4,2.87-6.84-.35-8,2.05-1.94,1.19-5.64-1-7.43s-5.17-2.16-8-2.41c-7.57-.67-15.21-.89-22.65-2.46-5.73-1.22-12.12-3.25-16.59-7.21-2.79-2.47-4.2-6.44-7.79-7.92C304.42,461.13,296.87,475.76,299.64,485.43Z" style="fill:#9b633a"/></g></svg>