<svg id="back" xmlns="http://www.w3.org/2000/svg" width="current" height="current" preserveAspectRatio="xMidYMid slice" viewBox="0 0 900 1200"><defs><style>.cls-1{fill:none;}.cls-2{fill:#054;}.cls-3{fill:#649b85;}.cls-4{fill:#7eb7a2;}.cls-5{fill:#997962;}.cls-6{fill:#84695a;}.cls-7{fill:#705140;}.cls-8{fill:#367f75;}.cls-9{fill:#0a6352;}</style></defs><g id="frame"><rect class="cls-1" y="2.72" width="902.05" height="1199.54"/></g><g id="bg"><rect class="cls-2" x="1.96" y="2.72" width="900" height="1200"/></g><g id="bush1"><path class="cls-3" d="M900.09,455.55c-9.24,1.61-18,7.66-21.14,17-27.71-44.45-76.2-14.43-76.2,20.21-27.14-12.12-59.46,0-59.46,39.83-19-47.34-71-26-78.51,0,.58-20.2-20.78-28.86-31.75-12.12,25.4-68.7-32.91-83.71-49.07-69.27,6.35-37.53-48.49-45-58.88-16.17C480.63,391.76,450,453.2,462.73,484.7c-11-11-39.83-6.93-30.59,35.79-11-23.09-34.06-30-56.65-7.51,2.23-25.4-17.25-35.21-29.63-19.15C335.3,413.31,259,458,275.25,505.71,227,446.89,187.9,495.26,201.32,537.2c-8.94-12.56-31.09-8.51-35.33,6-9-29.35-53-20.32-54.17,10.15l-4.52-13.54c-4.51-13.54-16.92-13.54-22.57,0C79.64,494,23.14,485.81-2,521.09v678.45H900.09Z" transform="translate(1.96 2.72)"/><path class="cls-3" d="M-2,0V303.21A76.67,76.67,0,0,0,6.23,301C27.5,293.72,45.5,276.45,68,275.8c8.68-.25,17.69,2,25.87-.79,7.34-2.53,12.56-8.67,18.58-13.43C136,243,170.09,246.17,199.93,251.5s62.62,11.46,89-3.06c23.27-12.83,37.3-39.93,63.11-46.92,13.11-3.55,27.1-1.15,40.66-2.36A75.4,75.4,0,0,0,441,175.51c8.13-8.86,13.93-19.62,22.79-27.79,33.38-30.79,98.81-16.26,123-54.2,10.25-16,9-36.77,17.95-53.54,14.38-27.12,49.12-35.51,80.88-40Z" transform="translate(1.96 2.72)"/><path class="cls-4" d="M114.86,71.05c15.26,29.75,34,55.58,68.82,63.94,12.13,2.91,25.36,3.86,36.7,9.74,12.25,6.36,12.87,18.67,21.1,28.25,9.39,10.93,22.79,1.8,34.83,6.13,13.58,4.88,15.77,24.43,24.75,36.43,18.15,24.23,54.73,10.41,82.21,20,14.31,5,25.78,16.44,38.75,24.66a96.5,96.5,0,0,0,85.29,8.89c20.25-7.69,40-22.56,61.12-18.35,23.58,4.7,41.19,32.41,65.08,30.06,13.1-1.28,22.71-7.18,33.6,4.59,26,28.12,57.5,46.8,95.51,32.72,15.51-5.74,30.8-16.58,46.91-13.23,8.4,1.75,15.65,7.2,23,11.83a132.82,132.82,0,0,0,67.52,19.89V0H92.17C101.89,22.53,103.75,49.39,114.86,71.05Z" transform="translate(1.96 2.72)"/></g><g id="tree1"><path class="cls-5" d="M36.52,0C30.29,374,38,903.07,29.17,1199.54H63S74.24,699,70.28,637.09,59.2,114.18,71.13,0Z" transform="translate(1.96 2.72)"/><path class="cls-5" d="M272.15,1199.54c6.22-374-1.52-903.07,7.35-1199.54H245.68s-11.25,500.53-7.3,562.45,11.08,522.91-.84,637.09Z" transform="translate(1.96 2.72)"/><path class="cls-5" d="M579.43,0c-6.22,374,1.52,903.07-7.35,1199.54H605.9S617.15,699,613.2,637.09,602.12,114.18,614,0Z" transform="translate(1.96 2.72)"/><path class="cls-5" d="M338,0c-6.22,374,1.52,903.07-7.35,1199.54h33.82s11.25-500.53,7.3-562.45S360.64,114.18,372.57,0Z" transform="translate(1.96 2.72)"/><path class="cls-5" d="M836.15,0c6.23,374-1.52,903.07,7.35,1199.54H809.69S798.43,699,802.39,637.09,813.47,114.18,801.54,0Z" transform="translate(1.96 2.72)"/></g><g id="tree2"><path class="cls-6" d="M447.73,0c4.54,147.18-38.18,364.51-98.76,472.78s-138.7,331-175.05,471.49S140.48,1199,140.48,1199H340.37c-24.23-189.07,39.37-428.66,78.75-540.39s101.47-220,131.76-384.73C569.53,172.49,572.08,0,572.08,0Z" transform="translate(1.96 2.72)"/><path class="cls-7" d="M94.45,1199C82,968.17,109.85,751.51,103,504.48,99.55,381.26,108.1,123.09,115.93,0H223.4S208,402.35,208,507.83s-.12,358.42-.12,415.34S219.41,1199,219.41,1199Z" transform="translate(1.96 2.72)"/><path class="cls-7" d="M634.55,0c6.5,129.36,4.56,294.47,0,369.88s-7.16,208.26-9.95,287.58C619,815.83,617.09,998.77,607.39,1199H759.14s-2-324.52,0-510.89c2-178.84-4.11-239.9-1.81-410.23C758.13,218.41,752.69,0,752.69,0Z" transform="translate(1.96 2.72)"/><path class="cls-7" d="M475.61,260.8C428.6,213.61,379.2,129.41,340,0H295.09c43.08,155.46,102.22,268.14,146,311.91,55.47,55.52,179.34,108.51,218,119.61-4.83-79.11-4.83-97.16-4.83-97.16S527.68,313.07,475.61,260.8Z" transform="translate(1.96 2.72)"/><path class="cls-7" d="M900.09,133.07a434.9,434.9,0,0,1-38,43.88C799.94,239,734.3,269,695.35,275.77v58.46c52.89-11,135.83-58.65,204.74-138.74Z" transform="translate(1.96 2.72)"/></g><g id="bush2"><path class="cls-4" d="M899.84,1199V601.61a35,35,0,0,0-6,1,17.41,17.41,0,0,0,6-5.35v-17.1c-12.42-2.89-14.76,3.87-21.84,7.45,4-8,5.94-15,0-24-11.87-1-20.78,8-21.77,20,0,0-5.93-19-24.73-17-5,7-2,15,3,18-8.91-4-18.8-4-24.74,0,0,11,12.86,19,12.86,19-5.65-2.38-10-2.71-13.67-2a19.23,19.23,0,0,0-1.28-4.55c-18.8-3-26.71,7-31.66,11,2-4,8.9-13,5.93-26-7.91-1-20.77,0-26.47,16.54-2.74-11.46-11.12-19.54-24-19.54-3,5-3,11,0,24-4.94-5-14.84-13-28.69-7-1,9,5.94,18,14.84,22,0,0-16.82-7-26.71-1,0,8,4,13,9.89,17-9-2.28-13-1.81-21.77,1a17.73,17.73,0,0,0,.08,7.63c-3.29-4.2-9.39-9.93-17.65-8.88-2.69,4.13-3.57,7.52-3.36,10.38A32.35,32.35,0,0,0,642,647.09c5-3,7.92-11,3-18-18.8-2-24.74,17-24.74,17-1-12-9.89-21-21.77-20-5.93,9-4,16,0,24-7.91-4-9.89-12-26.71-6,2.09,12,4,17,10.88,21-7.91-2-12.86-1-16.82,1-2,6-1,12,2,16-3.34-2.7-9.4-7.68-17.25-7.85a18.34,18.34,0,0,0-.17-13.1c-7.19.32-14.19,2.46-19.25,7.87,4-5,6.77-11.22,1-22.21-9.64,1.42-15.29,7.37-18.29,17.56,1.55-6.89,3.4-15.17-9.1-20.21-11.4,6.09-9.35,22.51-9.35,22.51-4.53-5.39-16.06-5.13-24.22,2.43,5,9.84,12.92,11.33,19.91,11.28a39,39,0,0,0-7.78,2.33c-7.79-1.53-19-.83-26.14,13.32-1.18-11.73-8.42-20.88-21.16-22.63-3.61,4.55-4.41,10.49-3.2,23.78-4.24-5.63-13-14.9-27.5-10.85-2.18,8.79,3.48,18.65,11.77,23.83,0,0-15.73-9.23-26.34-4.63-1.06,7.92,2.19,13.42,7.54,18.19-8.6-3.48-12.6-3.56-21.7-2-3.3,9.64,1.65,17.39,9.1,21.44L385.51,1199Z" transform="translate(1.96 2.72)"/><path class="cls-8" d="M865.7,989.76c4.64-4.54,8.07-10.37,3.48-22-9.85.3-16.19,5.57-20.36,15.35,1.74-5,3.73-10.66-.28-15.9A25.84,25.84,0,0,0,850,958c-14-9-25,0-30,4,3-4,4-10,2-16-4-2-9-3-17-1,7-4,8.88-9,11-21-17-6-19,2-27,6,4-8,6-15,0-24-12-1-21,8-22,20,0,0-3.13-9.9-12-14.66-6.08-12.63-12.3-16.43-29.54-16.75,13.25-2.13,21.42-4.8,25.62-18.16-9.9-5.2-19.14-9.15-34.07,5,4.82-5.62,9.82-18.12,2.37-28a4.8,4.8,0,0,0-.43-1c-18.58-1.87-24.29,6.22-29.7,10.19,6.7-8.26,17.3-14.64,9.56-27-19.24.27-25.42,11.48-29.67,16.27,1.29-4.28,6.66-14.34,1.5-26.64-8.06.37-20.7,3.56-23.57,20.84-2.73-6.34-7.21-11.19-13-13.69a16.15,16.15,0,0,0,2-7.48c-6-4-16-4-25,0a12.46,12.46,0,0,0,3-18c-19-2-25,17-25,17-1-12-10-21-22-20-6,9-4,16,0,24-7.92-4-10-11.84-26.53-6.16A12.72,12.72,0,0,0,543,809.38c-17.41-7.87-29.08,8.29-29.08,8.29,2.82-11.71-2.89-23.08-14.6-25.9-5.23,4.08-7.36,8.4-7.93,13.17a24.45,24.45,0,0,0-7.57-.41,13.64,13.64,0,0,0-3.42-2.22c6.82-4.55,10.64-10,10.64-20.31-11-2-21-3-31,15,3-7,4-21-7-28-16,8-15,18-9,32a51.64,51.64,0,0,0-9.25-5.4c-12.39-11.88-21.54-9.53-28-9.93,10.43-2,22.66-.14,24.65-14.6-14.92-12.13-26.86-7.5-33.2-6.54,3.74-2.46,14.31-6.73,18.24-19.48-6.41-4.88-18.16-10.54-31.44.87,3.36-11.3.08-22.54-11.16-29.06-5.11,2.82-8.12,8-12,20.75-1.81-6.83-6.45-18.77-21.57-20.6-5.38,7.28-3.84,18.58,1.94,26.55,0,0-11.19-14.58-22.86-14.41a18.15,18.15,0,0,0-2.64,9.86c-6.33-3.56-13.24-3.37-24.66,0,12-6,19-11,19-25-11-2-21-3-31,15,3-7,4-21-7-28-16,8-15,18-9,32-6-4.31-11.31-6.75-16.1-7.43A31.82,31.82,0,0,0,249,719c-9-4-17-2-25,5,5-5,11-11,3-22-13-1-20,14-20,14-.66-4.64-5.29-8.82-11.52-10.54a22.22,22.22,0,0,0,.75-4.36c-7-4-13-8-25-3,0,0,13-8,13-19-6-4-16-4-25,0a12.46,12.46,0,0,0,3-18c-19-2-25,17-25,17-1-12-10-21-22-20-6,9-4,16,0,24-8-4-10-12-27-6,2.12,12,4,17,11,21-8-2-13-1-17,1-2,6-1,12,2,16-5-4-16-13-30-4a26.94,26.94,0,0,0,1.16,8.36c-9.86-1.8-17.47,4.4-21.39,7.54,3-4,4-10,2-16-4-2-9-3-17-1,7-4,8.88-9,11-21-17-6-19,2-27,6,4-8,6-15,0-24a21.41,21.41,0,0,0-5,.17V1200H875.27V1005.92h.05c5.84-1.71,13.58-11,10.61-21.76C878.67,983.65,871.4,985,865.7,989.76Z" transform="translate(1.96 2.72)"/><path class="cls-2" d="M900,1015.21c-138.12-65.93-620.31-95-899,0V1199H899.84Z" transform="translate(1.96 2.72)"/><path class="cls-9" d="M900.09-2.72H391.39c.22,35.8,27.6,71.34,68.69,64.48,8.1,36,35,49.72,62.9,51.1a37.67,37.67,0,0,0,.41,21.38c20-5.23,33.25-14.18,35.67-25.91l.67-.19c1.67,13.54,11.26,24.15,24.48,28.64,6.77-17.5,7.79-32.23,1.9-41.41a43.12,43.12,0,0,0,6.78-6.27c0,21.61,23.77,39.23,45.09,12.13-1.71,22.25,28.91,38.09,56,33.7a38.47,38.47,0,0,0,6,16.26c14.76-8.67,24.33-18.5,26.73-28.4,13.23,33.35,78.92,30.93,109.58,12.44-.31,15.89,9.93,28.59,24.73,33.6a83.24,83.24,0,0,0,5.5-21.44c10.13,4.57,23.16,4,33.55-6.46Z" transform="translate(1.96 2.72)"/><path class="cls-2" d="M-2-2.72V111.43a61.34,61.34,0,0,0,23.52,5.51c-.45,13.13,7,24.73,18.86,31.14,8.29-13.91,11.88-26.47,9.71-36C63.94,106.6,74.94,96.57,78.05,82.9c3.19,12.15,19,22.42,35.78,22a36.06,36.06,0,0,0,6.85,22.83,77.66,77.66,0,0,0,17.77-15.06c18.75,24.54,70.65,19.32,85.47,2.78,1.68,9.92,10.67,20.11,25,29.33a36.87,36.87,0,0,0,6.86-19.13c20.07-1,41.07-14.14,38.3-25.22,8.77,12.06,23.14,16.41,38.11,15.54a36.56,36.56,0,0,0,7.53,20c13.54-9.35,22.1-19.44,23.89-29.11l1.12-.61c7.52,4.92,19.05,7.11,33.24,6.64.09-10.67-4-20.49-11.53-27.07A27.84,27.84,0,0,0,389.77,75c19,18.3,64.93,4.85,81.19-23a36.54,36.54,0,0,0,13.22,17.58c8.27-10.37,13.28-20.27,14.36-28.83C525.85,42,557.8,21.45,564.66-2.72Z" transform="translate(1.96 2.72)"/></g></svg>