<svg xmlns="http://www.w3.org/2000/svg" width="current" height="current" preserveAspectRatio="xMidYMid slice" style="transform:scale(1.25) translateY(-10%)" viewBox="0 0 1103.81 1729.89"><g id="Layer_2" data-name="Layer 2"><rect x="100.92" y="397.05" width="899.39" height="1199" style="fill:none"/></g><g id="Layer_56" data-name="Layer 56"><rect y="397.05" width="1100.61" height="1200" style="fill:#054"/><path d="M-99.82,473.19c39-10.16,81.95,29.34,90.88,60.94,19.19-49.66,88-45.14,93.67,5.64,5.65-13.54,18.06-13.54,22.57,0l4.52,13.54C113,522.84,157,513.81,166,543.16c5-17,34.68-19.63,38.64,2.15-21.81-43.28,19.26-102.26,70.62-39.6C259,458,335.3,413.31,345.86,493.83c12.38-16.06,31.86-6.25,29.63,19.15,22.59-22.51,45.68-15.58,56.65,7.51-9.24-42.72,19.62-46.76,30.59-35.79-12.73-31.5,17.9-92.94,62.35-49.65,10.39-28.86,65.23-21.36,58.88,16.17,16.16-14.44,74.47.57,49.07,69.27,11-16.74,32.33-8.08,31.75,12.12,7.5-26,59.46-47.34,78.51,0,0-39.83,32.32-51.95,59.46-39.83,0-34.64,48.49-64.66,76.2-20.21,7.64-22.51,47.33-26,49.07,5.78,11-41,54.52-45,72.29-10.39.19,38.67,0,864.87,0,864.87H-99.5Z" transform="translate(100.31 397.05)" style="fill:#649b85"/><path d="M-99.82,280.4c33.18,16,71.05,32.46,106.05,20.56C27.5,293.72,45.5,276.45,68,275.8c8.68-.25,17.69,2,25.87-.79,7.34-2.53,12.56-8.67,18.58-13.43C136,243,170.09,246.17,199.93,251.5s62.62,11.46,89-3.06c23.27-12.83,37.3-39.93,63.11-46.92,13.11-3.55,27.1-1.15,40.66-2.36A75.4,75.4,0,0,0,441,175.51c8.13-8.86,13.93-19.62,22.79-27.79,33.38-30.79,98.81-16.26,123-54.2,10.25-16,9-36.77,17.95-53.54C620.1,11.15,658.4,3.49,691.67-.81s71.56-11.69,87.17-40.37c7.36-13.5,8.4-30.12,18.38-42C805-92.37,817-97.14,827-104s19-18.3,15.84-29.8H-99.82Z" transform="translate(100.31 397.05)" style="fill:#649b85"/><path d="M1000.31,297.79c-44.59,43.47-115.75,51.52-167.74,19-7.39-4.63-14.64-10.08-23-11.83-16.11-3.35-31.4,7.49-46.91,13.23-38,14.08-69.49-4.6-95.51-32.72-10.89-11.77-20.5-5.87-33.6-4.59-23.89,2.35-41.5-25.36-65.08-30.06-21.11-4.21-40.87,10.66-61.12,18.35A96.5,96.5,0,0,1,422,260.24c-13-8.22-24.44-19.65-38.75-24.66-27.48-9.63-64.06,4.19-82.21-20-9-12-11.17-31.55-24.75-36.43-12-4.33-25.44,4.8-34.83-6.13-8.23-9.58-8.85-21.89-21.1-28.25-11.34-5.88-24.57-6.83-36.7-9.74-34.83-8.36-53.56-34.19-68.82-63.94C100,42.12,101.69,3.92,79.1-20.84,68-33,49.05-46.81,33.56-52.07c-10.12-3.44-21-6.3-28.57-13.85C-10.13-81-5.16-114.73-14.72-133.83h1015Z" transform="translate(100.31 397.05)" style="fill:#7eb7a2"/><path d="M36.52-133.83C30.29,323.42,38,970.35,29.17,1332.83H63s11.26-612,7.3-687.7-11.08-639.36.85-779Z" transform="translate(100.31 397.05)" style="fill:#997962"/><path d="M272.15,1332.83c6.22-457.25-1.52-1104.18,7.35-1466.66H245.68s-11.25,612-7.3,687.7,11.08,639.36-.84,779Z" transform="translate(100.31 397.05)" style="fill:#997962"/><path d="M579.43-133.83c-6.22,457.25,1.52,1104.18-7.35,1466.66H605.9s11.25-612,7.3-687.7-11.08-639.36.84-779Z" transform="translate(100.31 397.05)" style="fill:#997962"/><path d="M338-133.83c-6.22,457.25,1.52,1104.18-7.35,1466.66h33.82s11.25-612,7.3-687.7-11.09-639.36.84-779Z" transform="translate(100.31 397.05)" style="fill:#997962"/><path d="M836.15-133.83c6.23,457.25-1.52,1104.18,7.35,1466.66H809.69s-11.26-612-7.3-687.7,11.08-639.36-.85-779Z" transform="translate(100.31 397.05)" style="fill:#997962"/><path d="M447.73-133.83C452.27,46.2,409.55,312,349,444.49s-138.7,404.85-175.05,576.75-33.44,311.59-33.44,311.59H340.37c-24.23-231.28,39.37-524.36,78.75-661S520.59,402.68,550.88,201.19c18.65-124,21.2-335,21.2-335Z" transform="translate(100.31 397.05)" style="fill:#84695a"/><path d="M695.35,334.23c85.13-17.76,248.17-130.3,305.15-320.55V-44.18S943.86,95.33,862.09,177C799.94,239,734.3,269,695.35,275.77Z" transform="translate(100.31 397.05)" style="fill:#705140"/><path d="M264.48-133.83C305.33,90.06,385.57,256.39,441,311.91S620.38,420.42,659,431.52c-4.83-79.11-4.83-97.16-4.83-97.16S527.68,313.07,475.61,260.8C414,199,348.3,73.58,306.71-133.83Z" transform="translate(100.31 397.05)" style="fill:#705140"/><path d="M94.45,1332.83C82,1050.47,109.85,785.44,103,483.27c-3.43-150.73,5.12-466.54,13-617.1H223.4S208,358.34,208,487.37s-.12,438.43-.12,508.06,11.53,337.4,11.53,337.4Z" transform="translate(100.31 397.05)" style="fill:#705140"/><path d="M634.55-133.83c6.5,158.24,4.56,360.2,0,452.45s-7.16,254.75-9.95,351.78c-5.57,193.72-7.51,417.5-17.21,662.43H759.14s-2-397,0-624.94c2-218.76-4.11-293.46-1.81-501.81.8-72.74-4.64-339.91-4.64-339.91Z" transform="translate(100.31 397.05)" style="fill:#705140"/><path d="M987.21,587.69c-2.74-11.46-11.12-19.54-24-19.53-3,5-3,11,0,24-4.94-5-14.84-13-28.69-7-1,9,5.94,18,14.84,22,0,0-16.82-7-26.71-1a19.91,19.91,0,0,0,.82,5.82c-6.66,1-11.82,5.23-14.8,7.65,3-4,4-10,2-16-3.95-2-8.9-3-16.82-1,6.93-4,8.79-9,10.89-21-16.82-6-18.8,2-26.72,6,4-8,5.94-15,0-24-11.87-1-20.78,8-21.77,20,0,0-5.93-19-24.73-17-5,7-2,15,3,18-8.91-4-18.8-4-24.74,0,0,11,12.86,19,12.86,19-5.65-2.38-10-2.71-13.67-2a19.23,19.23,0,0,0-1.28-4.55c-18.8-3-26.71,7-31.66,11,2-4,8.9-13,5.93-26-7.91-1-20.77,0-26.47,16.54-2.74-11.46-11.12-19.54-24-19.54-3,5-3,11,0,24-4.94-5-14.84-13-28.69-7-1,9,5.94,18,14.84,22,0,0-16.82-7-26.71-1,0,8,4,13,9.89,17-9-2.28-13-1.81-21.77,1a17.73,17.73,0,0,0,.08,7.63c-3.29-4.2-9.39-9.93-17.65-8.88-2.69,4.13-3.57,7.52-3.36,10.38A32.35,32.35,0,0,0,642,647.09c5-3,7.92-11,3-18-18.8-2-24.74,17-24.74,17-1-12-9.89-21-21.77-20-5.93,9-4,16,0,24-7.91-4-9.89-12-26.71-6,2.09,12,4,17,10.88,21-7.91-2-12.86-1-16.82,1-2,6-1,12,2,16-3.34-2.7-9.4-7.68-17.25-7.85a18.34,18.34,0,0,0-.17-13.1c-7.19.32-14.19,2.46-19.25,7.87,4-5,6.77-11.22,1-22.21-9.64,1.42-15.29,7.38-18.29,17.56,1.55-6.89,3.4-15.17-9.1-20.21-11.4,6.09-9.35,22.51-9.35,22.51-4.53-5.39-16.06-5.13-24.22,2.43,5,9.84,12.92,11.33,19.91,11.28a39,39,0,0,0-7.78,2.33c-7.79-1.53-19-.83-26.14,13.32-1.18-11.73-8.42-20.88-21.16-22.63-3.61,4.55-4.41,10.49-3.2,23.78-4.24-5.63-13-14.9-27.5-10.85-2.18,8.79,3.48,18.65,11.77,23.83,0,0-15.73-9.23-26.34-4.63-1.06,7.92,2.19,13.42,7.54,18.19-8.6-3.48-12.6-3.56-21.7-2-3.3,9.64,1.65,17.39,9.1,21.44l-.15,589.66h615V570.46C995,570.91,986.94,579.93,987.21,587.69Z" transform="translate(100.31 397.05)" style="fill:#7eb7a2"/><path d="M885.93,984.16c-7.26-.51-14.53.81-20.23,5.6,4.64-4.54,8.07-10.37,3.48-22-9.85.3-16.19,5.57-20.36,15.35,1.74-5,3.73-10.66-.28-15.9A25.84,25.84,0,0,0,850,958c-14-9-25,0-30,4,3-4,4-10,2-16-4-2-9-3-17-1,7-4,8.88-9,11-21-17-6-19,2-27,6,4-8,6-15,0-24-12-1-21,8-22,20,0,0-3.13-9.9-12-14.66-6.08-12.63-12.3-16.43-29.54-16.75,13.25-2.13,21.42-4.8,25.62-18.16-9.9-5.2-19.14-9.15-34.07,5,4.82-5.62,9.82-18.12,2.37-28a4.8,4.8,0,0,0-.43-1c-18.58-1.87-24.29,6.22-29.7,10.19,6.7-8.26,17.3-14.64,9.56-27-19.24.27-25.42,11.48-29.67,16.27,1.29-4.28,6.66-14.34,1.5-26.64-8.06.37-20.7,3.56-23.57,20.84-2.73-6.34-7.21-11.19-13-13.69a16.15,16.15,0,0,0,2-7.48c-6-4-16-4-25,0a12.46,12.46,0,0,0,3-18c-19-2-25,17-25,17-1-12-10-21-22-20-6,9-4,16,0,24-7.92-4-10-11.84-26.53-6.16A12.72,12.72,0,0,0,543,809.38c-17.41-7.87-29.08,8.29-29.08,8.29,2.82-11.71-2.89-23.08-14.6-25.9-5.23,4.08-7.36,8.4-7.93,13.17a24.45,24.45,0,0,0-7.57-.41,13.64,13.64,0,0,0-3.42-2.22c6.82-4.55,10.64-10,10.64-20.31-11-2-21-3-31,15,3-7,4-21-7-28-16,8-15,18-9,32a51.64,51.64,0,0,0-9.25-5.4c-12.39-11.88-21.54-9.53-28-9.93,10.43-2,22.66-.14,24.65-14.6-14.92-12.13-26.86-7.5-33.2-6.54,3.74-2.46,14.31-6.73,18.24-19.48-6.41-4.88-18.16-10.54-31.44.87,3.36-11.3.08-22.54-11.16-29.06-5.11,2.82-8.12,8-12,20.75-1.81-6.83-6.45-18.77-21.57-20.6-5.38,7.28-3.84,18.58,1.94,26.55,0,0-11.19-14.58-22.86-14.41a18.15,18.15,0,0,0-2.64,9.86c-6.33-3.56-13.24-3.37-24.66,0,12-6,19-11,19-25-11-2-21-3-31,15,3-7,4-21-7-28-16,8-15,18-9,32-6-4.31-11.31-6.75-16.1-7.43A31.82,31.82,0,0,0,249,719c-9-4-17-2-25,5,5-5,11-11,3-22-13-1-20,14-20,14-.66-4.64-5.29-8.82-11.52-10.54a22.22,22.22,0,0,0,.75-4.36c-7-4-13-8-25-3,0,0,13-8,13-19-6-4-16-4-25,0a12.46,12.46,0,0,0,3-18c-19-2-25,17-25,17-1-12-10-21-22-20-6,9-4,16,0,24-8-4-10-12-27-6,2.12,12,4,17,11,21-8-2-13-1-17,1-2,6-1,12,2,16-5-4-16-13-30-4a26.94,26.94,0,0,0,1.16,8.36c-9.86-1.8-17.47,4.4-21.39,7.54,3-4,4-10,2-16-4-2-9-3-17-1,7-4,8.88-9,11-21-17-6-19,2-27,6,4-8,6-15,0-24-12-1-21,8-22,20,0,0-6-19-25-17a12.46,12.46,0,0,0,3,18c-9-4-19-4-25,0,0,11,13,19,13,19-5.19-9.47-15.18-12.46-21.77-12.46-5.79,5.59-6.39,9.78-5,18.77a16,16,0,0,0-13-13c-8.59,4-7,41.89-7,41.89v587.61h975V1005.92h.05C881.16,1004.21,888.9,994.93,885.93,984.16Z" transform="translate(100.31 397.05)" style="fill:#367f75"/><path d="M1000.5,1048.5c-169-102-759-147-1100,0v284.33H1000.31Z" transform="translate(100.31 397.05)" style="fill:#054"/><path d="M228.08-396.58C201-358.39,242.84-57.92,277.27-75.14,265.09-13.66,340.8,14.22,394.5-23.49c-13.12,41,16.43,93.45,65.58,85.25,8.1,36,35,49.72,62.9,51.1a37.67,37.67,0,0,0,.41,21.38c20-5.23,33.25-14.18,35.67-25.91l.67-.19c1.67,13.54,11.26,24.15,24.48,28.64,6.77-17.5,7.79-32.23,1.9-41.41a43.12,43.12,0,0,0,6.78-6.27c0,21.61,23.77,39.23,45.09,12.13-1.71,22.25,28.91,38.09,56,33.7a38.47,38.47,0,0,0,6,16.26c14.76-8.67,24.33-18.5,26.73-28.4,13.23,33.35,78.92,30.93,109.58,12.44-.31,15.89,9.93,28.59,24.73,33.6a83.24,83.24,0,0,0,5.5-21.44c11.89,5.36,27.76,3.65,38.69-12.81-5.23,52.61,54.5,82.53,95.08,41.95V-396.58Z" transform="translate(100.31 397.05)" style="fill:#0a6352"/><path d="M994.65-397H-99.4l.13,533.66c28.3,27.07,78.94-14.84,76.32-40.16,8.53,16.52,26.1,24.4,44.24,25.12-.44,13.05,7,24.59,18.75,31,8.24-13.83,11.82-26.32,9.65-35.75,13.74-5.49,24.68-15.47,27.77-29.06C80.64,99.8,96.31,110,113,109.63a35.89,35.89,0,0,0,6.82,22.7,77.69,77.69,0,0,0,17.67-15c18.64,24.4,70.24,19.21,85,2.76,1.67,9.87,10.61,20,24.83,29.17a36.58,36.58,0,0,0,6.82-19c20-.94,40.84-14,38.09-25.07,8.72,12,23,16.32,37.89,15.45a36.35,36.35,0,0,0,7.49,19.91c13.46-9.29,22-19.33,23.75-28.95l1.11-.6c7.48,4.89,18.94,7.07,33,6.6.1-10.61-4-20.37-11.46-26.92a27.6,27.6,0,0,0,3.33-10.81C406.33,98.06,452,84.69,468.13,57a36.16,36.16,0,0,0,13.15,17.47c8.21-10.3,13.2-20.14,14.27-28.66,36.32,1.66,80.92-35.41,63-68.07,33.18,0,38.41-26.19,33.18-35.8,21.1,16.82,50.18,11.22,68-6.84,1.77,5.38,5.19,11.06,10,14.61,7.74-3.68,15-11.32,12.92-25.49a22,22,0,0,0-1.58-5.75c31.52,12.91,74.89-14.34,77.3-46.26.48.33,1,.66,1.51,1,5.65,3.43,15.1,5.62,22.91,3.36,1.3-6.15.74-13.37-4.57-19.54,20.52-.12,38.56-16.37,42.76-31.82,5.68,2.57,13.55,3.89,20.23,2a23.44,23.44,0,0,0-.81-13.3c30.8,1.61,58.07-18.3,43-63.22,25.49,13.49,45.87-1.49,46.77-20.9,3.77,4,9,7.66,14.65,8.93,4.62-5.36,7.83-13.05,4.54-22.39a27,27,0,0,0,4.82,1.58c6.44,1.5,16.09.64,22.82-3.93-.66-6-3.27-12.43-9.67-16.66,4.53-8.27,5.28-18.22.68-26.17C1000.16-351.36,1014-370.86,994.65-397Z" transform="translate(100.31 397.05)" style="fill:#054"/></g></svg>