<svg xmlns="http://www.w3.org/2000/svg" width="current" height="current" preserveAspectRatio="xMidYMid slice" viewBox="0 0 900 1200"><g id="Layer_29" data-name="Layer 29"><rect width="900" height="1200" style="fill:none"/></g><g id="butterfly"><path d="M139.4,947.38c-.19-.47-.34-1.12.09-1.38a.93.93,0,0,1,1,.23,6.17,6.17,0,0,1,1.65,3.32q1.05,4,2.06,8.08a74.92,74.92,0,0,1,2,8.18c-.76-.08-1.28-3.27-1.52-4-.5-1.61-1-3.22-1.59-4.81C142,953.72,140.74,950.52,139.4,947.38Z" style="fill:#283b44"/><path d="M162.08,955.07c.86-.5,1.92-1,2.79-.51a.77.77,0,0,1,.06,1.4,2.71,2.71,0,0,1-1,.37c-6,1.37-10.75,5.89-15.12,10.25a1,1,0,0,1-.53.3c.28-1.13,2-2.47,2.84-3.3q1.66-1.68,3.46-3.2A51.89,51.89,0,0,1,162.08,955.07Z" style="fill:#283b44"/><path d="M115.27,974.58c-7.41,2.28-13.86,7.8-14.39,14.44a7.85,7.85,0,0,0,.67,4.1,9.74,9.74,0,0,0,2.47,3c6,5.11,16.44,5.87,23.35,1.7a26.5,26.5,0,0,0,7.64-7.57,24.23,24.23,0,0,0,4-7.56c1.1-4.08.83-8.74-4.69-9.39A47.07,47.07,0,0,0,115.27,974.58Z" style="fill:#283b44"/><path d="M128.85,974.74c-4.41,0-9,.23-12.9,2.22a4.66,4.66,0,0,0-2.06,1.73,2,2,0,0,0,.34,2.47,12.82,12.82,0,0,0-2.9,2.54,4.38,4.38,0,0,0-1,3.61,2.68,2.68,0,0,0,2.84,2.07,3.26,3.26,0,0,0,1,4.3,4.45,4.45,0,0,0,4.64,0,2,2,0,0,0,.63,2.06,3.47,3.47,0,0,0,2.11.76c2.37.14,4.54-1.26,6.37-2.77a37.73,37.73,0,0,0,5.62-5.75,14.13,14.13,0,0,0,3.19-6.31c.31-1.92-.12-4.82-1.9-6C133.36,974.65,130.57,974.74,128.85,974.74Z" style="fill:#57a0dd"/><path d="M162.92,994.94c2.9,7.19,2.67,15.68-2.16,20.27a7.84,7.84,0,0,1-3.6,2.06,9.63,9.63,0,0,1-3.89,0c-7.72-1.42-14.91-9.07-16-17.07a26.57,26.57,0,0,1,1.06-10.7,24.43,24.43,0,0,1,3.37-7.85c2.48-3.43,6.27-6.15,10.25-2.27A47.09,47.09,0,0,1,162.92,994.94Z" style="fill:#283b44"/><path d="M153.43,983.93c2.71,3.35,5.35,7,6.25,11.17a4.53,4.53,0,0,1,0,2.63,1.93,1.93,0,0,1-2.1,1.26,12.53,12.53,0,0,1-.13,3.77,4.25,4.25,0,0,1-2.17,2.94,2.61,2.61,0,0,1-3.32-.88,3.17,3.17,0,0,1-3.87,1.89,4.33,4.33,0,0,1-2.83-3.55,1.94,1.94,0,0,1-2,.78,3.37,3.37,0,0,1-1.88-1.12c-1.56-1.72-1.83-4.23-1.81-6.55a37.27,37.27,0,0,1,.9-7.81,13.9,13.9,0,0,1,2.84-6.32c1.26-1.41,3.73-2.87,5.72-2.24C150.72,980.44,152.37,982.62,153.43,983.93Z" style="fill:#57a0dd"/><path d="M137.32,958.18c-.52-.61-1-1.21-1.57-1.79a99.37,99.37,0,0,0-15.61-13.93c-3.85-2.76-10.55-8.41-15.65-4.87a6.46,6.46,0,0,0-2.09,2.89c-1.74,4.15-1.66,8.81-1.1,13.26a66.88,66.88,0,0,0,3.13,13.38,11.9,11.9,0,0,0,1.85,3.7,9.91,9.91,0,0,0,3.81,2.61c4.1,1.77,8.64,2.18,13.09,2.46q6.42.4,12.86.52c4.34.07,9.51-1.76,8.09-6.76C142.93,965.39,140.23,961.57,137.32,958.18Z" style="fill:#283b44"/><path d="M111.75,941.79a2.86,2.86,0,0,0-2.92,2.15c-.19,1.47,1.18,2.63,2.41,3.49a5.18,5.18,0,0,0-1.7,9.89,4.58,4.58,0,0,0-1.2,4.69,4.66,4.66,0,0,0,3.82,3,3.64,3.64,0,0,0-.52,4.35,7,7,0,0,0,3.64,2.92c2.73,1.11,5.76,1.25,8.72,1.38l12.21.53a5.3,5.3,0,0,0,2.66-.35c1.92-1,1.77-3.76,1.1-5.79-2.09-6.39-7-11.42-12-15.81C123.6,948.4,118.13,941.73,111.75,941.79Z" style="fill:#57a0dd"/><path d="M115.45,946.49a.88.88,0,0,0-.76,0,.81.81,0,0,0-.24.31,2,2,0,0,0,.63,2.2,4.91,4.91,0,0,0,2.22,1c.62.15,1.72.52,2-.17.16-.43-.21-1-.47-1.26A8.82,8.82,0,0,0,115.45,946.49Z" style="fill:#283b44"/><path d="M112.87,950.64a2.75,2.75,0,0,0-1.53,0,1.46,1.46,0,0,0-1,1,1.57,1.57,0,0,0,.55,1.41,3.49,3.49,0,0,0,1.41.68,10.34,10.34,0,0,0,2.14.32c1.17,0,1.74-.69,1-1.73A4.67,4.67,0,0,0,112.87,950.64Z" style="fill:#283b44"/><path d="M115.34,955.06a2.22,2.22,0,0,0-1.75.48,1.21,1.21,0,0,0,.18,1.75,1.88,1.88,0,0,0,.8.29,4.47,4.47,0,0,0,2.37-.26c.46-.18,1-.57.87-1.06C117.64,955.31,116.07,955.09,115.34,955.06Z" style="fill:#283b44"/><path d="M115.38,960.11a2.35,2.35,0,0,0-1.34.12,1,1,0,0,0-.55,1.11c.17.45.72.6,1.19.63s2.85,0,3.1-.75S115.88,960.16,115.38,960.11Z" style="fill:#283b44"/><path d="M116,965.53c-.29.23-.57.6-.42.94s.67.4,1.06.32a4.49,4.49,0,0,0,1.89-.91c.67-.53.87-1.19-.05-1.27A3.84,3.84,0,0,0,116,965.53Z" style="fill:#283b44"/><path d="M163,967.92c.8,0,1.59.06,2.37.1A98.54,98.54,0,0,1,186,971.38c4.57,1.24,13.17,2.89,13.63,9.09a6.41,6.41,0,0,1-.93,3.44c-2.12,4-5.8,6.84-9.61,9.2a65.88,65.88,0,0,1-12.36,6,11.55,11.55,0,0,1-4,.89,9.89,9.89,0,0,1-4.43-1.31c-3.95-2.07-7.13-5.34-10.15-8.62s-5.74-6.38-8.5-9.66-4.63-8.5.15-10.55C153.86,968.11,158.53,967.8,163,967.92Z" style="fill:#283b44"/><path d="M191.72,977.32c.85,1.08,1.11,2.76.2,3.72s-2.84.73-4.32.29a5.55,5.55,0,0,1-.33,6.53,5.37,5.37,0,0,1-6.35,1.15,4.54,4.54,0,0,1-2.91,4,4.83,4.83,0,0,1-4.89-1.12A3.62,3.62,0,0,1,170,995a7.18,7.18,0,0,1-4.67-1.06c-2.66-1.49-4.75-3.84-6.78-6.14l-8.37-9.48a5.58,5.58,0,0,1-1.46-2.36c-.46-2.18,1.8-3.82,3.84-4.58,6.4-2.39,13.58-1.63,20.27-.45C178.79,972,187.6,972.15,191.72,977.32Z" style="fill:#57a0dd"/><path d="M185.85,977.56a.87.87,0,0,1,.49.57.73.73,0,0,1-.09.38,2,2,0,0,1-2.11.9A4.93,4.93,0,0,1,182,978.3c-.51-.38-1.49-1-1.12-1.64.24-.4.89-.45,1.28-.43A8.64,8.64,0,0,1,185.85,977.56Z" style="fill:#283b44"/><path d="M184.25,982.18a2.76,2.76,0,0,1,1,1.16,1.49,1.49,0,0,1-.17,1.47,1.58,1.58,0,0,1-1.44.46,3.53,3.53,0,0,1-1.42-.68,10,10,0,0,1-1.6-1.45c-.77-.88-.55-1.78.69-1.9A4.67,4.67,0,0,1,184.25,982.18Z" style="fill:#283b44"/><path d="M179.26,983a2.24,2.24,0,0,1,.73,1.65,1.23,1.23,0,0,1-1.48,1,1.8,1.8,0,0,1-.72-.44,4.5,4.5,0,0,1-1.29-2c-.15-.47-.17-1.11.27-1.35C177.62,981.41,178.78,982.49,179.26,983Z" style="fill:#283b44"/><path d="M175.31,986.18a2.4,2.4,0,0,1,.75,1.12,1,1,0,0,1-.52,1.13,1.31,1.31,0,0,1-1.23-.53c-.4-.43-1.77-2.23-1.37-2.88S175,985.83,175.31,986.18Z" style="fill:#283b44"/><path d="M170.71,989.11c0,.37-.12.82-.48.92s-.72-.27-.91-.63a4.63,4.63,0,0,1-.49-2c0-.86.38-1.44,1-.77A3.91,3.91,0,0,1,170.71,989.11Z" style="fill:#283b44"/><path d="M147.53,964.73c-2.36-.49-5.19,2-6.54,3.58a26.86,26.86,0,0,0-2.9,4.46,5.73,5.73,0,0,0-.89,2.33,5.1,5.1,0,0,0,3.32,4.75,12.15,12.15,0,0,0,3.5.87c5.95.27,6.5-7.56,6.13-11.83a4.93,4.93,0,0,0-1.38-3.56A2.86,2.86,0,0,0,147.53,964.73Z" style="fill:#2f4b5b"/><path d="M137.68,976.82a11.81,11.81,0,0,0-4.54,5.26,39,39,0,0,0-4.36,16.6c0,1.53.13,3.31,1.46,4.14a3.45,3.45,0,0,0,3.54-.2,9.78,9.78,0,0,0,2.56-2.61c3.82-5,7.69-10.28,9.31-16.33a7.91,7.91,0,0,0,.3-3.54C145.27,976.71,140.66,975.25,137.68,976.82Z" style="fill:#3a5466"/></g></svg>