<svg xmlns="http://www.w3.org/2000/svg" width="current" height="current" preserveAspectRatio="xMidYMid slice" viewBox="0 0 900 1200"><g id="Layer_29" data-name="Layer 29"><rect width="900" height="1200" style="fill:none"/></g><g id="fox-body"><path d="M593.47,993.36a6.92,6.92,0,0,0-7.31,2.19c-1.51,1.91-1.78,4.31-1.9,6.62-1.41,27.76,13.43,56,9.15,83.42-.68,4.42-1.46,9.74,2.85,12.79,4,2.8,10.35,1.73,13.61-1.29s4.1-7.31,4.32-11.42a103.31,103.31,0,0,0-.59-14.37L609.73,1027c-.91-10.36-2.22-21.55-10.73-29.71" style="fill:#d87d21"/><path d="M602.64,1038.23a277.82,277.82,0,0,0,28.24,32.85q11.73,11.61,23.75,22.94c6.76,6.38,13.23,14.34,22,18,6.77,2.9,14.57,2.81,21.64.77s13.5-5.9,19.38-10.32c4.67-3.51,9.14-7.52,11.86-12.69,2.46-4.68,3.32-10,3.49-15.34.76-23.85-11.92-46.32-28.08-63.89a110.45,110.45,0,0,0-16.81-15.24c-6.79-4.86-14.27-8.67-21.31-13.17-19.19-12.26-34.87-29.55-50.91-45.38-2.57-2.53-4.83-5.34-7.41-7.87a16,16,0,0,0-9-4.78,46.34,46.34,0,0,0-21.84.22,41.36,41.36,0,0,0-11.31,5.42c-4.53,2.94-9,6.61-11.43,11.57-2.71,5.6-1.08,11.19,1.55,16.55,2.33,4.76,5.3,9.32,6.38,14.51,1,4.88.28,10,.58,14.92.61,10,5.6,21.24,13.83,27.14,6.95,5,14.53,11,20.23,17.32C599.26,1033.83,601,1036,602.64,1038.23Z" style="fill:#e28723"/><path d="M633.62,1049.14c-8.64-16.83-25.59-28.72-32.22-46.43-2.14-5.73-3.1-12.1-1.44-18,1.61-5.72,5.49-10.47,8.83-15.39a95.39,95.39,0,0,0,12.69-26.94q-2.81-2.82-5.62-5.6c-2.56-2.53-4.83-5.34-7.41-7.87a16,16,0,0,0-9-4.78,46.34,46.34,0,0,0-21.84.22,41.36,41.36,0,0,0-11.31,5.42c-4.53,2.94-9,6.61-11.43,11.57-2.71,5.6-1.08,11.19,1.55,16.55,2.33,4.76,5.3,9.32,6.38,14.51,1,4.88.28,10,.58,14.92.61,10,5.6,21.24,13.83,27.14,9.52,6.81,17.59,15.3,26.18,23.2,6.73,6.18,15.39,10.87,21.15,17.9,5.23,6.37,10.29,12.52,15.18,19A55.81,55.81,0,0,0,633.62,1049.14Z" style="fill:#e2b896"/><path d="M611.55,979.83a12.32,12.32,0,0,0-8.25,5.86,23.42,23.42,0,0,0-3.07,9.89,44.08,44.08,0,0,0,1.21,16.25c1,3.74,2.49,7.34,3.24,11.14,1.35,6.88.19,14-1,20.89l-4.87,29.06c-1.43,8.52-1.39,17.48-8.06,23.69l-6.12,5.71a5.57,5.57,0,0,1-1.19.92,6.94,6.94,0,0,1-2.36.47,15.23,15.23,0,0,0-10,5.23c-1.44,1.68-2.53,4-1.82,6.08a5.64,5.64,0,0,0,4.57,3.4,18.45,18.45,0,0,0,6-.39,116.81,116.81,0,0,1,13.46-1.45c4.52-.23,4.35-3.8,7.26-7.28l11.36-13.59a29.55,29.55,0,0,0,4.57-6.61c1.48-3.3,1.71-7,2.1-10.58a101.07,101.07,0,0,1,8.49-30.76c2.42-5.28,5.31-10.43,6.51-16.11a47.18,47.18,0,0,0,.71-10.82A134.34,134.34,0,0,0,632,999.28c-.76-4-1.81-8.25-4.56-11.31C624.1,984.26,616.49,979.07,611.55,979.83Z" style="fill:#e28723"/><path d="M693.34,1012c-14.74-5.56-41.11-1.14-52.24,10.4a26.71,26.71,0,0,0-7.23,20.95,38.77,38.77,0,0,0,3.85,12.47,73.48,73.48,0,0,0,35.51,35,268.82,268.82,0,0,1-31.85,1.27c-5.14-.09-10.32-.33-15.38.57s-10.07,3.1-13.34,7.06c-3.07,3.72-4.15,9.63-1,13.26,3.41,3.88,9.48,3.3,14.62,2.75,24.75-2.64,50.35,3.29,74.39-3.18,5-1.33,9.93-3.26,13.71-6.75,3.36-3.09,5.59-7.22,7.3-11.46a61.85,61.85,0,0,0,3.75-13.39,91.15,91.15,0,0,0,.95-12.78c.08-5.87-.13-11.84-1.87-17.45-1.62-5.24-4.52-10-7.41-14.65C711.05,1026.34,704.1,1016.06,693.34,1012Z" style="fill:#ed9326"/><path d="M600.27,1064.45c-.48,2.82-.95,5.65-1.42,8.47-1.43,8.52-1.39,17.48-8.06,23.69l-6.12,5.71a5.57,5.57,0,0,1-1.19.92,6.94,6.94,0,0,1-2.36.47,15.23,15.23,0,0,0-10,5.23c-1.44,1.68-2.53,4-1.82,6.08a5.64,5.64,0,0,0,4.57,3.4,18.45,18.45,0,0,0,6-.39,116.81,116.81,0,0,1,13.46-1.45c4.52-.23,4.35-3.8,7.26-7.28l11.36-13.59a29.55,29.55,0,0,0,4.57-6.61c1.48-3.3,1.71-7,2.1-10.58.14-1.26.31-2.53.5-3.79C615.28,1068,607.49,1063.59,600.27,1064.45Z" style="fill:#4f3216"/><path d="M735.34,1114a40.27,40.27,0,0,1-18.16,21.25c-8,4.56-17.2,6.36-26.2,6.32-6.19,0-12.5-.94-18-4-3.59-2-6.72-4.75-10.07-7.16-12.11-8.74-26.69-12.17-41.15-12.34a118.54,118.54,0,0,0-22.14,2c-4.65.82-15.51,4.38-8.59-4.71,8.54-11.22,20.29-20,33.4-22.38a59.07,59.07,0,0,1,17.36-.15c22.52,2.67,51.58,24.11,70.88.75,3.2-3.86,5.6-8.44,8.84-12.26,2-2.33,7.39-7.72,10.71-6.18,2.71,1.26,3.7,7.78,4.31,10.54C738.52,1094.71,738.46,1105.1,735.34,1114Z" style="fill:#e28723"/><path d="M624.43,1093c-13.11,2.36-24.86,11.16-33.4,22.38-6.92,9.09,3.94,5.53,8.59,4.71a118.54,118.54,0,0,1,22.14-2,77,77,0,0,1,30.16,6.09c3.51-4.23,6-9.68,5.53-15.25-.42-4.54-2.79-8.58-5.62-11.89a29.27,29.27,0,0,0-2.75-2.81,62.62,62.62,0,0,0-24.65-1.25Z" style="fill:#604026"/></g><g id="fox-head"><path d="M553.67,897.13c3.25-2.86,6.63-5.9,8.09-10,1.88-5.25.08-11.33-3.56-15.55s-8.86-6.8-14.19-8.41a52.11,52.11,0,0,0-11.8-2.11c-2-.13-4.25-.07-5.78,1.26a6.45,6.45,0,0,0-1.67,2.71,21.91,21.91,0,0,0-.77,8.39,106.84,106.84,0,0,0,1.56,13.47c.83,4.53,2,9.13,4.65,12.91,2.08,2.95,7.11,7.34,11.14,6.14C545.81,904.63,550.25,900.13,553.67,897.13Z" style="fill:#e28723"/><path d="M558.2,871.6c-3.64-4.22-8.86-6.8-14.2-8.41a51.93,51.93,0,0,0-11.79-2.11c-2-.13-4.25-.07-5.78,1.26a6.45,6.45,0,0,0-1.67,2.71,18.25,18.25,0,0,0-.84,6.33,19.74,19.74,0,0,0,3.47,1.9l.68.35c8,4.29,12.33,12.3,16.82,19.73,1.35,2.24,2.82,4.58,5.13,5.82a7.52,7.52,0,0,0,.92.4c1-.86,1.88-1.71,2.73-2.45,3.25-2.86,6.63-5.9,8.09-10C563.64,881.9,561.84,875.82,558.2,871.6Z" style="fill:#4f3216"/><path d="M597.75,898.22c-3.26-2.86-6.64-5.9-8.1-10-1.88-5.24-.07-11.33,3.57-15.55s8.85-6.79,14.19-8.4a51.93,51.93,0,0,1,11.8-2.12c2-.13,4.25-.07,5.77,1.27a6.16,6.16,0,0,1,1.67,2.7,21.73,21.73,0,0,1,.77,8.39A105,105,0,0,1,625.86,888c-.82,4.54-2,9.14-4.65,12.91-2.07,3-7.1,7.34-11.14,6.14C605.61,905.72,601.16,901.22,597.75,898.22Z" style="fill:#e28723"/><path d="M593.22,872.69c3.64-4.22,8.85-6.79,14.19-8.4a51.93,51.93,0,0,1,11.8-2.12c2-.13,4.25-.07,5.77,1.27a6.16,6.16,0,0,1,1.67,2.7,18.49,18.49,0,0,1,.85,6.33,19.83,19.83,0,0,1-3.48,1.9l-.68.35c-8,4.29-12.32,12.3-16.81,19.73-1.36,2.24-2.83,4.58-5.13,5.82a6.74,6.74,0,0,1-.92.4c-1-.86-1.88-1.7-2.73-2.45-3.26-2.86-6.64-5.9-8.1-10C587.77,883,589.58,876.91,593.22,872.69Z" style="fill:#4f3216"/><path d="M530.38,892a20.27,20.27,0,0,0,3.47,7.1,8.34,8.34,0,0,0,6.93,3.2c2.27-.24,4.22-1.67,6-3.12a9.47,9.47,0,0,0,2.64-3,7.33,7.33,0,0,0,.51-4c-.4-3.62-2.28-6.89-4.11-10-2.76-4.74-5.55-9.52-9.3-13.52-1.84-2-4.31-3.81-7.14-3.66-3.24.17-2.46,3.81-2.4,6.34A74.79,74.79,0,0,0,530.38,892Z" style="fill:#e0ac82"/><path d="M621,893.05a20.28,20.28,0,0,1-3.46,7.09,8.35,8.35,0,0,1-6.94,3.2c-2.26-.24-4.21-1.66-6-3.12a9.61,9.61,0,0,1-2.64-3,7.33,7.33,0,0,1-.51-4c.4-3.62,2.28-6.89,4.12-10,2.76-4.74,5.55-9.53,9.3-13.53,1.83-2,4.31-3.8,7.13-3.66,3.25.17,2.47,3.81,2.41,6.34A74.88,74.88,0,0,1,621,893.05Z" style="fill:#e0ac82"/><path d="M557.22,883.68a43.11,43.11,0,0,0-10.32,6.19c-7.63,6.15-12.67,15.25-11.42,25.25.87,7,4.21,13.5,8.22,19.33,3.87,5.62,8.49,10.84,14.24,14.52s12.74,5.71,19.49,4.68c8.68-1.32,17.67-7,23.86-13.19a55.3,55.3,0,0,0,14.2-24.15c1.81-6.45,0-12.21-4-17.39C598.63,882.22,576,875.75,557.22,883.68Z" style="fill:#e28723"/><path d="M561.71,926.32a28.77,28.77,0,0,0-3.48,12.23c-.27,3.1,0,6.77,2.64,8.44,3.11,2,7.08-.25,10.75-.6,2.74-.25,5.46.6,8.18,1.06s5.76.44,7.94-1.26c4.2-3.29,3.48-9.56,2.14-14.06C586.16,919.57,569.13,913.81,561.71,926.32Z" style="fill:#f39d2c"/><path d="M558.66,913.07a6.61,6.61,0,0,0-5.2,0,3.59,3.59,0,0,0-2.13,4,4.39,4.39,0,0,0,1.2,1.82,9.35,9.35,0,0,0,7.56,2.46c1.37-.17,2.84-.79,3.23-2a2.48,2.48,0,0,0,0-1.21C563,916.05,560.86,913.94,558.66,913.07Z" style="fill:#f4af14"/><path d="M558.94,921.94a9.81,9.81,0,0,1-6.82-2.69,4.78,4.78,0,0,1-1.32-2,4.05,4.05,0,0,1,2.4-4.54,7.17,7.17,0,0,1,5.68-.06h0c2.2.86,4.64,3,5,5.51a2.89,2.89,0,0,1-.07,1.42c-.46,1.42-2.2,2.12-3.67,2.31A10.14,10.14,0,0,1,558.94,921.94ZM556,913a5.26,5.26,0,0,0-2.28.49,3.11,3.11,0,0,0-1.87,3.46,4,4,0,0,0,1.07,1.62,8.82,8.82,0,0,0,7.08,2.3c1.14-.14,2.46-.64,2.78-1.62a2.12,2.12,0,0,0,0-1c-.29-1.84-2.19-3.89-4.4-4.76A6.63,6.63,0,0,0,556,913Z" style="fill:#4f3216"/><path d="M555.8,913.24a1.89,1.89,0,0,0-.54,1.24,4.92,4.92,0,0,0,1.13,3.7,2,2,0,0,0,1.17.75,1.67,1.67,0,0,0,1.52-.62,2.69,2.69,0,0,0,.48-1.35,6.37,6.37,0,0,0,0-2.22C559.26,913.34,557.5,911.67,555.8,913.24Z" style="fill:#4f3216"/><path d="M587.4,913.07a6.59,6.59,0,0,1,5.19,0,3.59,3.59,0,0,1,2.13,4,4.46,4.46,0,0,1-1.19,1.82,9.39,9.39,0,0,1-7.57,2.46c-1.37-.17-2.84-.79-3.23-2a2.61,2.61,0,0,1-.05-1.21C583,916.05,585.19,913.94,587.4,913.07Z" style="fill:#f4af14"/><path d="M585.88,921.87c-1.47-.19-3.2-.89-3.67-2.31a2.89,2.89,0,0,1-.07-1.42c.4-2.47,2.83-4.65,5-5.51h0a7.17,7.17,0,0,1,5.68.06,4.06,4.06,0,0,1,2.39,4.54,4.78,4.78,0,0,1-1.32,2,9.81,9.81,0,0,1-6.82,2.69A10.14,10.14,0,0,1,585.88,921.87Zm1.74-8.36c-2.21.87-4.1,2.92-4.4,4.76a2.25,2.25,0,0,0,0,1c.32,1,1.65,1.48,2.78,1.62a8.82,8.82,0,0,0,7.08-2.3,3.79,3.79,0,0,0,1.07-1.62,3.11,3.11,0,0,0-1.86-3.46A5.34,5.34,0,0,0,590,913,6.63,6.63,0,0,0,587.62,913.51Z" style="fill:#4f3216"/><path d="M590.25,913.24a1.89,1.89,0,0,1,.54,1.24,4.84,4.84,0,0,1-1.13,3.7,2,2,0,0,1-1.17.75,1.68,1.68,0,0,1-1.52-.62,2.59,2.59,0,0,1-.47-1.35,6.14,6.14,0,0,1,0-2.22C586.79,913.34,588.55,911.67,590.25,913.24Z" style="fill:#4f3216"/><path d="M609.77,929.58a11,11,0,0,0-6-2.06c-3.72-.15-7.33,1.27-10.7,2.86a96.87,96.87,0,0,0-9,4.83,18.43,18.43,0,0,1-4.71,2.32,16.39,16.39,0,0,1-4.14.39,22.81,22.81,0,0,1-7.77-.92,28.58,28.58,0,0,1-6.62-4,81.23,81.23,0,0,0-7.1-4.45,18,18,0,0,0-6.79-2.52,10.09,10.09,0,0,0-7,2.07,66.25,66.25,0,0,0,3.85,6.3c3.87,5.62,8.49,10.84,14.24,14.52s12.74,5.71,19.49,4.68c8.68-1.32,17.67-7,23.86-13.19A56.67,56.67,0,0,0,609.77,929.58Z" style="fill:#eac5a2"/><path d="M586.05,931.43c-3-.75-7,.39-9.41,2.13-1.55,1.1-2.91,2.64-4.65,1.4a17.51,17.51,0,0,0-5.06-2.79,8.51,8.51,0,0,0-3-.45,7.49,7.49,0,0,0-3.55,1.23,8.83,8.83,0,0,0-1.54,1.26,42.34,42.34,0,0,0-.61,4.34c-.27,3.1,0,6.77,2.64,8.44,3.11,2,7.08-.25,10.75-.6,2.74-.25,5.46.6,8.18,1.06s5.76.44,7.94-1.26c3.7-2.9,3.58-8.12,2.58-12.4-.25-.21-.52-.43-.82-.64A10.54,10.54,0,0,0,586.05,931.43Z" style="fill:#f4d6be"/><path d="M569.55,933.61c-1.52.72-2.39,2.39-3,4a2.39,2.39,0,0,0-.21,1.61,2.35,2.35,0,0,0,1,1.08A15.86,15.86,0,0,0,572,942.7a4.12,4.12,0,0,0,1.8.24,4.36,4.36,0,0,0,1.35-.48,23.41,23.41,0,0,0,3.43-2.14,3.78,3.78,0,0,0,1.61-2c.33-1.37-.75-2.63-1.74-3.63-1.94-1.93-4.87-1.49-7.33-1.42A3.92,3.92,0,0,0,569.55,933.61Z" style="fill:#4f3216"/></g></svg>