<svg xmlns="http://www.w3.org/2000/svg" width="current" height="current" preserveAspectRatio="xMidYMid slice" viewBox="0 0 1003.71 1200"><g id="Layer_29" data-name="Layer 29"><rect width="900" height="1200" style="fill:none"/></g><g id="guzmania-1"><path d="M875.8,799.78c4.63,8.76,9.4,18.22,8.31,28.1-.19,1.75-1.72,11.07-3.81,10.71-2.25-.39-2.92-10.12-3.21-12a132.71,132.71,0,0,1-1.36-13.66q-.15-3.27-.13-6.56C875.61,804.9,876.44,801,875.8,799.78Z" style="fill:#c6421e"/><path d="M889.5,826.16c-1,4.62-2.41,9.12-3.56,13.69-1.22,4.88-2.08,9.84-2.94,14.8a113.67,113.67,0,0,1-2.55-31.16,34.45,34.45,0,0,1,1-7.37,27.71,27.71,0,0,1,3.22-7c1.27-2.1,3.21-3.61,4.95-5.34a7.66,7.66,0,0,1,2.67-2c-1.2,4.15-1.1,9.26-1.41,13.59A81.24,81.24,0,0,1,889.5,826.16Z" style="fill:#d6451e"/><path d="M874.14,842.46c-4.58-9.78-9.94-19.45-17.9-26.65q7.34,4.35,14.28,9.32c5,3.58,10.1,7.69,12.4,13.48,1.58,4,1.68,8.41,1.75,12.72.09,5.3.85,11.14.18,16.37-2-.71-4.17-10-5.1-12.33C878.08,851.22,876.59,846.21,874.14,842.46Z" style="fill:#d6451e"/><path d="M879.72,854.59c.37-5.13,1.2-10.41,3.95-14.74,3.86-6.1,10.8-9.27,17.36-12.13-7.44,15-11.67,32.07-21,46C879.37,867.34,879.72,861,879.72,854.59Z" style="fill:#c6421e"/><path d="M869.48,851.72c-1.88-4.29-4.11-8.75-8.06-11.18a5.3,5.3,0,0,1,3.42.55c6.4,2.61,13.07,5.61,17.12,11.29,3.37,4.72,4.49,10.75,4.6,16.58s-.7,11.64-.77,17.47c0,3.67.47,7.24.65,10.87-2.24-.34-3.36-7.78-4-9.85-1.29-4.1-2.6-8.19-4-12.26C875.78,867.25,872.86,859.38,869.48,851.72Z" style="fill:#e85a34"/><path d="M888.88,892.68a132.86,132.86,0,0,1,2.4-22.33c.68-3.48,1.53-7,3.52-9.93,3-4.43,8.28-6.8,11.64-11-1.55-.84-3.44-.27-5.08.35q-4,1.49-7.92,3.2a25.85,25.85,0,0,0-7.78,4.67c-3.32,3.2-4.91,7.91-5.27,12.55s.4,9.28,1.16,13.87l1.29,7.84c.32,2,.24,6.24,1.38,7.82C887.57,904.39,888.88,894.65,888.88,892.68Z" style="fill:#d6451e"/><path d="M873.83,888.53c-4.84-8.51-10.7-17-19.3-21.44a178.14,178.14,0,0,1,16.91,7.64c4.52,2.34,9.12,5,11.91,9.34,3,4.67,3.48,10.54,3.63,16.13.18,6.4.93,14.06-.5,20.3-1.72-1-1.63-4.07-2-5.88a67.27,67.27,0,0,0-2.61-9.12A109.64,109.64,0,0,0,873.83,888.53Z" style="fill:#c6421e"/><path d="M904.24,879.53c3.85-5.3,8.54-10.16,10.79-16.34-7.77,4.75-15.6,9.54-22.38,15.67a25.21,25.21,0,0,0-5,5.74c-2.5,4.21-2.87,9.34-3,14.25a225.18,225.18,0,0,0,.62,24.78c.08,1.11.79,4.36,2.54,3.21.84-.55.73-4.5.85-5.37a121.51,121.51,0,0,1,3.18-15.09A83.57,83.57,0,0,1,904.24,879.53Z" style="fill:#d6451e"/><path d="M884.54,953.79c-2.65-11-2.89-22.46-5.4-33.48s-7.89-22.18-17.65-27.61c5.58.36,10.61,3.42,15.15,6.73,3.4,2.48,6.74,5.24,8.84,8.92,3,5.23,3.08,11.59,3.1,17.63l.06,21.3c0,1.81,1.06,8.51-.12,9.92C886.64,959.42,884.94,955.45,884.54,953.79Z" style="fill:#e85a34"/><path d="M890.54,953.78c.61-4,1.23-8,1.58-12,.43-5,.45-10.14,1.28-15.13s2.55-10,5.92-13.72c4.79-5.33,12.21-7.38,17.53-12.17q-9.33.15-18.64,1c-3.09.29-6.29.69-8.94,2.33-3.8,2.36-5.8,6.95-6.27,11.45s.37,9,1,13.5a192.89,192.89,0,0,1,2,22.26c0,1.33-.46,6.1,1,6.93C889.35,959.56,890.3,955.32,890.54,953.78Z" style="fill:#d6451e"/><path d="M885.07,962.92c-4.85-9.18-9-18.79-14.56-27.52s-12.9-16.72-22.29-20.9A124.52,124.52,0,0,1,868,920.74c5.06,2.07,10.16,4.59,13.67,8.84a29.84,29.84,0,0,1,5.12,10.25,93.24,93.24,0,0,1,3.44,19.56c.16,1.81,1.46,6.56-.37,7.56C887.77,968.12,885.77,964.24,885.07,962.92Z" style="fill:#d6451e"/><path d="M919.75,922.36a51.42,51.42,0,0,0-19.29,8.91,37.31,37.31,0,0,0-9.5,11.81,34,34,0,0,0-2.84,10c-.62,4-3.16,15.54-.24,18.84,3.59,4,5.14-8.34,5.77-10.63,4.57-16.76,13.26-30.42,28.28-39.4C921.2,922.05,920.48,922.2,919.75,922.36Z" style="fill:#c6421e"/><path d="M865,951.69a69.24,69.24,0,0,0-48.55-12.83,150.75,150.75,0,0,1,45.67-1.11c4.82.63,9.68,1.5,14.06,3.61,7.69,3.69,13.26,11,16.34,18.92,3,7.65,3.93,16.09,4,24.25s-3.79,7.06-7,.65C882.83,972.07,877.29,960.7,865,951.69Z" style="fill:#35822f"/><path d="M884.26,996.66c1.35,3.9,4.34,5.52,9.4.06,3.13-3.37,4.12-8.15,5-12.67,1.67-8.73,3.32-17.53,6.57-25.81s8.24-16.09,15.45-21.29c7.7-5.56,17.27-7.73,26.55-9.77-8.62-.43-16.68-1.24-25.11.59-25.89,5.65-35.94,37-38.54,60A21.5,21.5,0,0,0,884.26,996.66Z" style="fill:#1f751a"/><path d="M878.82,1004.25c-2.63-8.94-4.14-18.65-9.65-26-6.2-8.24-16.89-12-26.73-10.46s-18.69,8-24.56,16.45a36.58,36.58,0,0,1,19.67-21.89c9-4.11,19.26-4.62,28.86-2.52,5.73,1.25,11.42,3.49,15.81,7.58s7,9.37,9.15,14.9c4.34,11.22,6.78,24.64,3.84,36.6C891.72,1033.11,880.36,1009.51,878.82,1004.25Z" style="fill:#1f751a"/><path d="M897.78,1023.35c1.59-3.44,2-7.28,2.39-11.05.8-8.72,1.15-17.63,4.21-25.84s9.46-15.78,18-17.51c10.62-2.13,20.71,4.93,29.11,11.78,5.79,4.73,11.84,10.07,13.49,17.35-.17-6.29-2.6-12.34-5.87-17.71a46.19,46.19,0,0,0-16.56-16.53,32.79,32.79,0,0,0-22.84-3.76c-10.39,2.32-18.74,10.41-23.89,19.73S888.31,999.66,886,1010c-.9,4-5.77,15.27-2.87,19C887.52,1034.72,895.85,1027.69,897.78,1023.35Z" style="fill:#1a6614"/><path d="M875.77,1025.49c-11.7-11.7-29.09-18.64-45.21-21-18.8-2.73-34.16,1.59-51.17,9,6.33-8.92,17.2-13.27,27.6-16.68,6.49-2.13,13.12-4.08,20-4.43,7.39-.37,14.72,1.15,22,2.67,12.32,2.58,27.16,3.14,37,11.83,6.16,5.46,9.68,13.3,12.08,21.17C903.86,1047.5,880.63,1029.92,875.77,1025.49Z" style="fill:#35822f"/><path d="M898.45,1040.49a116.56,116.56,0,0,1,11.46-18.11c10.51-13.33,27.51-15.53,42.93-15.83a341.25,341.25,0,0,1,45.86,2.21c-16.94-9.31-35.73-12.94-54.37-14.59-7.19-.63-14.53-1-21.48,1.24-11.54,3.68-20.63,13.88-29.2,23.71-7.13,8.18-17.2,20.47-9.29,31.53,1.47,2,4,3.83,6.36,3,1.86-.68,2.79-2.69,3.59-4.5C895.57,1046.27,897,1043.37,898.45,1040.49Z" style="fill:#1f751a"/><path d="M910.59,1047.86c8-5,15.12-11.21,23.32-15.87,6.21-3.53,12.71-7.14,19.88-6.63a436.72,436.72,0,0,1,49.92,6.4c-15.42-14-37.05-13.49-56.64-13.31-7.52.06-15.13.28-22.36,2.29-13.64,3.81-24.28,13.51-33.46,23.5-3.33,3.63-12.19,11.39-1.9,11.41C896.75,1055.66,904.57,1051.62,910.59,1047.86Z" style="fill:#165b0f"/><path d="M891.67,1068.38c-3.26-.53-5.86-2.71-8.14-4.89-6.94-6.62-12.82-14.16-20.32-20.25-9.32-7.57-20.55-13.81-33.37-11.86q-27.89,4.23-55.26,10.73c13.35-8.78,29.64-17,45.68-20.83,14.78-3.49,36.09,2.44,49.45,8.22,7.57,3.28,14.72,7.63,20.09,13.49C893.51,1047,906.63,1070.81,891.67,1068.38Z" style="fill:#1a6614"/><path d="M752.19,793.93c5.17,9.77,10.5,20.33,9.28,31.35-.22,2-1.93,12.35-4.25,12-2.51-.43-3.26-11.29-3.58-13.41a144.28,144.28,0,0,1-1.52-15.24c-.11-2.44-.16-4.89-.15-7.33C752,799.63,752.91,795.27,752.19,793.93Z" style="fill:#c6421e"/><path d="M767.49,823.36c-1.07,5.15-2.7,10.17-4,15.28-1.36,5.44-2.32,11-3.28,16.51a126.54,126.54,0,0,1-2.85-34.77,39.24,39.24,0,0,1,1.15-8.23,31.14,31.14,0,0,1,3.6-7.79c1.41-2.35,3.57-4,5.52-6a8.63,8.63,0,0,1,3-2.2c-1.34,4.63-1.22,10.33-1.57,15.16A93.3,93.3,0,0,1,767.49,823.36Z" style="fill:#d6451e"/><path d="M750.35,841.55c-5.12-10.91-11.1-21.71-20-29.74q8.18,4.85,15.93,10.39c5.61,4,11.28,8.59,13.84,15,1.76,4.46,1.87,9.39,2,14.19.11,5.92,1,12.43.2,18.28-2.26-.8-4.65-11.19-5.68-13.76C754.74,851.32,753.08,845.73,750.35,841.55Z" style="fill:#d6451e"/><path d="M756.57,855.08c.42-5.73,1.34-11.62,4.4-16.44,4.32-6.81,12.06-10.35,19.38-13.54-8.31,16.7-13,35.79-23.44,51.34C756.18,869.31,756.57,862.23,756.57,855.08Z" style="fill:#c6421e"/><path d="M745.15,851.88c-2.1-4.79-4.59-9.76-9-12.47A5.9,5.9,0,0,1,740,840c7.15,2.91,14.59,6.26,19.11,12.6,3.76,5.26,5,12,5.14,18.5s-.78,13-.87,19.5c-.05,4.08.53,8.07.73,12.13-2.5-.39-3.75-8.69-4.47-11q-2.15-6.87-4.43-13.68C752.17,869.21,748.91,860.43,745.15,851.88Z" style="fill:#e85a34"/><path d="M766.79,897.58a148.86,148.86,0,0,1,2.68-24.91c.76-3.88,1.71-7.83,3.93-11.08,3.38-5,9.23-7.59,13-12.26-1.72-.93-3.83-.29-5.67.39q-4.47,1.66-8.83,3.58a28.76,28.76,0,0,0-8.68,5.21c-3.71,3.57-5.49,8.83-5.89,14s.45,10.36,1.3,15.48l1.44,8.75c.36,2.17.26,7,1.54,8.72C765.32,910.65,766.79,899.78,766.79,897.58Z" style="fill:#d6451e"/><path d="M750,893c-5.4-9.5-11.94-18.93-21.54-23.92a195.88,195.88,0,0,1,18.87,8.52c5,2.61,10.18,5.61,13.29,10.42,3.37,5.21,3.88,11.76,4,18,.2,7.14,1,15.68-.55,22.65-1.93-1.14-1.82-4.54-2.25-6.56A75.73,75.73,0,0,0,759,911.9,123.24,123.24,0,0,0,750,893Z" style="fill:#c6421e"/><path d="M783.93,882.91c4.29-5.91,9.52-11.34,12-18.23-8.68,5.3-17.4,10.65-25,17.48a28.57,28.57,0,0,0-5.61,6.41c-2.78,4.7-3.19,10.42-3.36,15.9a255.14,255.14,0,0,0,.69,27.65c.1,1.24.89,4.86,2.85,3.58.93-.61.8-5,.94-6a135.42,135.42,0,0,1,3.55-16.84A93.12,93.12,0,0,1,783.93,882.91Z" style="fill:#d6451e"/><path d="M762,965.77c-3-12.26-3.23-25.06-6-37.36s-8.81-24.75-19.7-30.81c6.22.41,11.84,3.82,16.91,7.52,3.79,2.77,7.52,5.85,9.86,10,3.32,5.83,3.43,12.93,3.45,19.68l.07,23.77c0,2,1.19,9.49-.14,11.06C764.29,972.06,762.4,967.63,762,965.77Z" style="fill:#e85a34"/><path d="M768.64,965.76c.69-4.45,1.37-8.92,1.76-13.41.49-5.63.51-11.31,1.44-16.88s2.84-11.15,6.6-15.32c5.35-5.93,13.63-8.23,19.56-13.57q-10.41.17-20.79,1.16c-3.45.33-7,.77-10,2.61-4.24,2.63-6.48,7.75-7,12.77s.41,10.07,1.16,15.06a215.17,215.17,0,0,1,2.2,24.84c0,1.48-.52,6.81,1.13,7.73C767.32,972.21,768.38,967.49,768.64,965.76Z" style="fill:#d6451e"/><path d="M762.54,976c-5.41-10.25-10-21-16.25-30.72s-14.39-18.65-24.87-23.32a139.36,139.36,0,0,1,22.11,7c5.65,2.31,11.34,5.13,15.26,9.87a33.07,33.07,0,0,1,5.71,11.44A104,104,0,0,1,768.34,972c.18,2,1.63,7.32-.41,8.43C765.55,981.77,763.32,977.44,762.54,976Z" style="fill:#d6451e"/><path d="M801.24,930.71a57.49,57.49,0,0,0-21.53,9.93c-3.94,2.94-8.4,8.72-10.6,13.18a38.63,38.63,0,0,0-3.17,11.2c-.68,4.45-3.53,17.34-.27,21,4,4.52,5.74-9.31,6.44-11.86,5.11-18.7,14.79-33.95,31.56-44C802.85,930.36,802.05,930.52,801.24,930.71Z" style="fill:#c6421e"/><path d="M740.17,963.43A77.32,77.32,0,0,0,686,949.11a168.52,168.52,0,0,1,51-1.23c5.37.69,10.8,1.67,15.68,4,8.59,4.12,14.8,12.23,18.23,21.12,3.3,8.54,4.4,18,4.42,27.06s-4.22,7.88-7.85.72C760,986.18,753.86,973.49,740.17,963.43Z" style="fill:#35822f"/><path d="M761.64,1013.61c1.5,4.35,4.84,6.16,10.49.07,3.49-3.77,4.6-9.09,5.56-14.13,1.85-9.75,3.69-19.57,7.32-28.81s9.2-18,17.24-23.76c8.6-6.2,19.27-8.62,29.62-10.89-9.61-.49-18.6-1.39-28,.66-28.89,6.29-40.1,41.22-43,67A24.09,24.09,0,0,0,761.64,1013.61Z" style="fill:#1f751a"/><path d="M755.56,1022.09c-2.93-10-4.61-20.82-10.76-29C737.88,983.9,726,979.7,715,981.42s-20.85,8.88-27.4,18.36a40.77,40.77,0,0,1,21.95-24.43c10-4.59,21.48-5.16,32.2-2.81,6.39,1.39,12.74,3.89,17.64,8.46,4.73,4.41,7.83,10.45,10.21,16.62,4.85,12.52,7.56,27.49,4.28,40.84C770,1054.29,757.29,1027.94,755.56,1022.09Z" style="fill:#1f751a"/><path d="M776.72,1043.39c1.77-3.83,2.28-8.12,2.67-12.33.89-9.73,1.28-19.67,4.69-28.83s10.56-17.61,20.14-19.53c11.86-2.39,23.12,5.5,32.49,13.14,6.46,5.27,13.21,11.23,15.06,19.36-.2-7-2.9-13.77-6.56-19.77A51.67,51.67,0,0,0,826.73,977c-7.68-4.29-16.89-6.11-25.48-4.19-11.59,2.58-20.91,11.61-26.66,22s-8.44,22.15-11.06,33.73c-1,4.44-6.43,17-3.2,21.19C765.27,1056.08,774.57,1048.23,776.72,1043.39Z" style="fill:#1a6614"/><path d="M752.16,1045.78c-13-13-32.45-20.8-50.45-23.41-21-3-38.12,1.78-57.1,10.09,7.07-10,19.2-14.81,30.8-18.61,7.25-2.38,14.65-4.56,22.26-5,8.25-.41,16.43,1.29,24.51,3,13.74,2.88,30.31,3.5,41.23,13.2,6.87,6.1,10.8,14.84,13.48,23.63C783.5,1070.34,757.59,1050.73,752.16,1045.78Z" style="fill:#35822f"/><path d="M777.47,1062.52a129.42,129.42,0,0,1,12.79-20.21c11.72-14.87,30.7-17.33,47.91-17.66a380.66,380.66,0,0,1,51.17,2.46c-18.91-10.39-39.88-14.43-60.68-16.28-8-.7-16.21-1.08-24,1.39-12.87,4.11-23,15.48-32.58,26.46-8,9.13-19.19,22.84-10.36,35.18,1.63,2.28,4.46,4.27,7.1,3.3,2.06-.76,3.11-3,4-5C774.26,1069,775.81,1065.74,777.47,1062.52Z" style="fill:#1f751a"/><path d="M791,1070.75c8.92-5.56,16.87-12.51,26-17.72,6.92-3.93,14.18-8,22.18-7.4a489.72,489.72,0,0,1,55.7,7.15c-17.2-15.64-41.34-15-63.2-14.86-8.39.08-16.89.32-24.94,2.57-15.23,4.24-27.1,15.07-37.34,26.21-3.72,4.06-13.6,12.71-2.12,12.73C775.57,1079.44,784.3,1074.94,791,1070.75Z" style="fill:#165b0f"/><path d="M769.9,1093.64c-3.63-.59-6.54-3-9.08-5.46-7.74-7.38-14.3-15.8-22.67-22.59-10.41-8.45-22.93-15.42-37.24-13.24q-31.11,4.73-61.66,12c14.9-9.8,33.07-19,51-23.25,16.49-3.89,40.28,2.73,55.17,9.18,8.46,3.66,16.43,8.51,22.43,15C772,1069.83,786.6,1096.35,769.9,1093.64Z" style="fill:#1a6614"/></g><g id="guzmania-2"><path d="M718,820.42c-4.63,8.76-9.41,18.22-8.31,28.1.19,1.74,1.72,11.07,3.81,10.71s2.91-10.12,3.21-12a130,130,0,0,0,1.35-13.66q.15-3.28.14-6.57C718.21,825.54,717.38,821.63,718,820.42Z" style="fill:#d6451e"/><path d="M704.31,846.79c1,4.63,2.42,9.12,3.56,13.7,1.23,4.88,2.09,9.84,3,14.8a113.67,113.67,0,0,0,2.55-31.16,35.19,35.19,0,0,0-1-7.38,28,28,0,0,0-3.22-7c-1.27-2.1-3.21-3.61-5-5.35a7.63,7.63,0,0,0-2.66-2c1.2,4.15,1.09,9.25,1.4,13.58A82.49,82.49,0,0,0,704.31,846.79Z" style="fill:#c6421e"/><path d="M719.67,863.1c4.59-9.78,10-19.45,17.91-26.66q-7.33,4.37-14.28,9.32c-5,3.59-10.1,7.69-12.4,13.48-1.58,4-1.68,8.42-1.76,12.72-.09,5.31-.85,11.14-.17,16.38,2-.71,4.17-10,5.09-12.33C715.73,871.86,717.22,866.84,719.67,863.1Z" style="fill:#c6421e"/><path d="M714.1,875.22c-.38-5.13-1.21-10.41-4-14.73-3.86-6.1-10.81-9.28-17.37-12.13,7.45,15,11.68,32.07,21,46C714.45,888,714.1,881.63,714.1,875.22Z" style="fill:#e85a34"/><path d="M724.33,872.35c1.89-4.28,4.12-8.74,8.07-11.17a5.3,5.3,0,0,0-3.42.55c-6.41,2.6-13.07,5.61-17.12,11.29-3.37,4.72-4.5,10.74-4.61,16.58s.7,11.64.78,17.47c0,3.66-.47,7.24-.66,10.87,2.25-.34,3.36-7.79,4-9.85,1.28-4.1,2.6-8.2,4-12.26C718,887.89,721,880,724.33,872.35Z" style="fill:#d6451e"/><path d="M704.94,913.31A132.75,132.75,0,0,0,702.53,891c-.67-3.48-1.53-7-3.52-9.93-3-4.43-8.27-6.81-11.63-11,1.55-.83,3.44-.26,5.08.35q4,1.5,7.92,3.21a25.64,25.64,0,0,1,7.78,4.67c3.32,3.2,4.91,7.91,5.27,12.55s-.4,9.28-1.16,13.87l-1.3,7.84c-.32,2-.23,6.23-1.37,7.82C706.25,925,704.94,915.28,704.94,913.31Z" style="fill:#d6451e"/><path d="M720,909.17c4.83-8.51,10.69-17,19.3-21.44a177,177,0,0,0-16.91,7.64c-4.52,2.34-9.12,5-11.91,9.34-3,4.67-3.48,10.54-3.64,16.13-.17,6.4-.92,14.06.5,20.3,1.73-1,1.63-4.07,2-5.88a68.75,68.75,0,0,1,2.61-9.12A110.62,110.62,0,0,1,720,909.17Z" style="fill:#d6451e"/><path d="M689.57,900.17c-3.84-5.3-8.53-10.17-10.78-16.34,7.77,4.75,15.59,9.54,22.37,15.66a25.52,25.52,0,0,1,5,5.75c2.49,4.21,2.86,9.34,3,14.25a227.68,227.68,0,0,1-.62,24.78c-.09,1.11-.79,4.35-2.55,3.2-.83-.54-.72-4.49-.85-5.36A121.48,121.48,0,0,0,702,927,83.19,83.19,0,0,0,689.57,900.17Z" style="fill:#c6421e"/><path d="M709.28,974.42c2.65-11,2.89-22.45,5.39-33.48s7.89-22.17,17.65-27.61c-5.57.36-10.61,3.43-15.15,6.74-3.39,2.48-6.74,5.24-8.83,8.92-3,5.23-3.08,11.59-3.1,17.63l-.06,21.3c0,1.81-1.07,8.51.12,9.92C707.17,980.06,708.87,976.09,709.28,974.42Z" style="fill:#d6451e"/><path d="M703.28,974.42c-.62-4-1.23-8-1.58-12-.44-5-.46-10.14-1.29-15.13s-2.55-10-5.91-13.73c-4.8-5.32-12.21-7.37-17.53-12.16q9.33.15,18.63,1c3.09.29,6.29.69,8.94,2.33,3.8,2.36,5.81,7,6.27,11.45s-.36,9-1,13.5a195,195,0,0,0-2,22.26c0,1.33.47,6.1-1,6.93C704.47,980.2,703.51,976,703.28,974.42Z" style="fill:#e85a34"/><path d="M708.75,983.56c4.85-9.18,9-18.79,14.56-27.53s12.9-16.71,22.29-20.89a125.19,125.19,0,0,0-19.82,6.23c-5.07,2.07-10.16,4.6-13.67,8.85A29.66,29.66,0,0,0,707,960.47,93.8,93.8,0,0,0,703.54,980c-.16,1.8-1.46,6.56.37,7.56C706.05,988.76,708.05,984.88,708.75,983.56Z" style="fill:#c6421e"/><path d="M674.06,943a51.67,51.67,0,0,1,19.3,8.9,37.48,37.48,0,0,1,9.5,11.82,34.63,34.63,0,0,1,2.84,10c.61,4,3.16,15.54.24,18.84-3.59,4-5.15-8.35-5.77-10.63-4.58-16.76-13.26-30.42-28.28-39.4C672.62,942.69,673.34,942.84,674.06,943Z" style="fill:#d6451e"/><path d="M728.79,972.33a69.28,69.28,0,0,1,48.56-12.83,150.81,150.81,0,0,0-45.68-1.11c-4.82.62-9.68,1.5-14,3.6-7.7,3.7-13.27,11-16.34,18.93-2.95,7.65-3.94,16.09-4,24.25s3.78,7.06,7,.64C711,992.71,716.53,981.34,728.79,972.33Z" style="fill:#1f751a"/><path d="M709.56,1017.29c-1.35,3.9-4.35,5.53-9.41.07-3.12-3.38-4.12-8.15-5-12.67-1.66-8.73-3.31-17.53-6.56-25.81s-8.24-16.09-15.45-21.3c-7.71-5.55-17.27-7.72-26.55-9.76,8.62-.44,16.67-1.25,25.1.59,25.89,5.64,35.94,37,38.55,60A21.78,21.78,0,0,1,709.56,1017.29Z" style="fill:#35822f"/><path d="M715,1024.89c2.63-9,4.13-18.65,9.65-26,6.19-8.24,16.89-12,26.73-10.46s18.68,8,24.56,16.45A36.59,36.59,0,0,0,756.26,983c-9-4.11-19.25-4.62-28.85-2.52-5.74,1.25-11.42,3.49-15.82,7.58-4.24,3.95-7,9.37-9.15,14.9-4.34,11.22-6.77,24.63-3.83,36.6C702.09,1053.75,713.46,1030.14,715,1024.89Z" style="fill:#1a6614"/><path d="M696,1044c-1.59-3.44-2-7.28-2.39-11-.8-8.72-1.15-17.64-4.21-25.84s-9.47-15.78-18.05-17.51c-10.62-2.14-20.72,4.93-29.11,11.78-5.79,4.72-11.84,10.06-13.5,17.35.18-6.29,2.6-12.34,5.88-17.71a46.11,46.11,0,0,1,16.56-16.53,32.77,32.77,0,0,1,22.83-3.76c10.39,2.32,18.74,10.41,23.89,19.72s7.57,19.86,9.92,30.24c.9,4,5.76,15.27,2.87,19C706.3,1055.36,698,1048.32,696,1044Z" style="fill:#1f751a"/><path d="M718.05,1046.13c11.7-11.7,29.08-18.65,45.21-21,18.8-2.72,34.16,1.6,51.17,9-6.34-8.92-17.2-13.27-27.6-16.68-6.49-2.13-13.13-4.09-20-4.43-7.39-.37-14.72,1.15-22,2.67-12.32,2.58-27.17,3.14-37,11.83-6.15,5.46-9.67,13.3-12.08,21.17C690,1068.13,713.19,1050.56,718.05,1046.13Z" style="fill:#1f751a"/><path d="M695.36,1061.13A115.19,115.19,0,0,0,683.9,1043c-10.5-13.32-27.51-15.52-42.93-15.82a339.76,339.76,0,0,0-45.86,2.21c16.95-9.31,35.74-12.94,54.38-14.59,7.18-.64,14.52-1,21.48,1.24,11.54,3.68,20.63,13.88,29.2,23.71,7.13,8.18,17.2,20.47,9.29,31.53-1.47,2-4,3.83-6.37,3-1.85-.69-2.79-2.7-3.59-4.5C698.24,1066.91,696.86,1064,695.36,1061.13Z" style="fill:#35822f"/><path d="M683.22,1068.5c-8-5-15.11-11.21-23.32-15.87-6.2-3.53-12.7-7.14-19.88-6.63a436.55,436.55,0,0,0-49.91,6.4c15.42-14,37-13.49,56.64-13.32,7.51.07,15.13.29,22.35,2.3,13.65,3.81,24.28,13.51,33.46,23.5,3.34,3.63,12.19,11.39,1.91,11.4C697.06,1076.29,689.25,1072.25,683.22,1068.5Z" style="fill:#1a6614"/><path d="M703.47,1090.38c3.26-.53,5.86-2.7,8.15-4.88,6.93-6.62,12.81-14.16,20.31-20.25,9.32-7.58,20.55-13.82,33.38-11.87q27.87,4.24,55.25,10.74c-13.35-8.78-29.64-17-45.68-20.84-14.78-3.48-36.09,2.45-49.44,8.23-7.58,3.28-14.73,7.63-20.1,13.49C701.63,1069.05,688.51,1092.82,703.47,1090.38Z" style="fill:#165b0f"/><path d="M832.77,784.21c-5.17,9.78-10.5,20.34-9.27,31.36.21,1.95,1.92,12.35,4.25,11.95,2.5-.44,3.25-11.29,3.58-13.41a144.26,144.26,0,0,0,1.51-15.24c.11-2.44.16-4.89.15-7.33C833,789.92,832.06,785.56,832.77,784.21Z" style="fill:#d6451e"/><path d="M817.48,813.64c1.06,5.16,2.69,10.18,4,15.29,1.36,5.44,2.33,11,3.29,16.51a126.93,126.93,0,0,0,2.84-34.77,39.24,39.24,0,0,0-1.15-8.23,31,31,0,0,0-3.59-7.79c-1.42-2.35-3.58-4-5.53-6a8.41,8.41,0,0,0-3-2.2c1.34,4.63,1.23,10.32,1.57,15.16A91.22,91.22,0,0,0,817.48,813.64Z" style="fill:#c6421e"/><path d="M834.62,831.84c5.11-10.91,11.09-21.71,20-29.75q-8.18,4.86-15.93,10.4c-5.6,4-11.27,8.59-13.83,15-1.77,4.45-1.88,9.38-2,14.19-.1,5.92-1,12.43-.2,18.27,2.26-.79,4.65-11.18,5.69-13.75C830.22,841.61,831.88,836,834.62,831.84Z" style="fill:#c6421e"/><path d="M828.39,845.37c-.41-5.73-1.34-11.62-4.4-16.45-4.31-6.8-12.06-10.34-19.38-13.53,8.31,16.7,13,35.78,23.44,51.34C828.79,859.6,828.39,852.52,828.39,845.37Z" style="fill:#d6451e"/><path d="M839.81,842.16c2.11-4.78,4.6-9.76,9-12.46a5.92,5.92,0,0,0-3.82.61c-7.15,2.91-14.59,6.26-19.11,12.59-3.76,5.27-5,12-5.13,18.5s.78,13,.86,19.51c0,4.08-.52,8.07-.73,12.12,2.5-.38,3.75-8.69,4.47-11q2.14-6.87,4.44-13.68C832.79,859.5,836.05,850.72,839.81,842.16Z" style="fill:#d6451e"/><path d="M818.17,887.87A146.69,146.69,0,0,0,815.49,863c-.75-3.88-1.71-7.83-3.93-11.08-3.38-5-9.23-7.6-13-12.26,1.73-.93,3.84-.29,5.67.39q4.47,1.66,8.84,3.58a28.43,28.43,0,0,1,8.67,5.21c3.71,3.57,5.49,8.82,5.89,14s-.45,10.36-1.3,15.48L824.91,887c-.36,2.17-.26,7-1.53,8.72C819.64,900.94,818.17,890.07,818.17,887.87Z" style="fill:#e85a34"/><path d="M835,883.25c5.39-9.5,11.93-18.93,21.53-23.93a198.43,198.43,0,0,0-18.87,8.53c-5,2.61-10.17,5.61-13.28,10.42-3.38,5.21-3.89,11.76-4.06,18-.19,7.15-1,15.69.56,22.66,1.92-1.14,1.82-4.54,2.24-6.56A76.29,76.29,0,0,1,826,902.18,122.25,122.25,0,0,1,835,883.25Z" style="fill:#d6451e"/><path d="M801,873.2c-4.29-5.92-9.52-11.34-12-18.23,8.67,5.3,17.4,10.65,25,17.48a28.11,28.11,0,0,1,5.61,6.41c2.78,4.7,3.2,10.42,3.36,15.9a255.14,255.14,0,0,1-.69,27.65c-.1,1.24-.88,4.86-2.85,3.58-.93-.61-.8-5-.94-6a136.16,136.16,0,0,0-3.54-16.84A93.19,93.19,0,0,0,801,873.2Z" style="fill:#c6421e"/><path d="M823,956.06c3-12.26,3.22-25.06,6-37.36s8.8-24.75,19.69-30.81c-6.22.4-11.84,3.82-16.9,7.52-3.79,2.77-7.52,5.84-9.86,10-3.33,5.83-3.44,12.93-3.46,19.67l-.07,23.77c0,2-1.19,9.5.14,11.07C820.67,962.35,822.57,957.92,823,956.06Z" style="fill:#d6451e"/><path d="M816.32,956.05c-.68-4.46-1.37-8.92-1.76-13.41-.49-5.63-.51-11.31-1.43-16.88s-2.85-11.15-6.6-15.32c-5.36-5.94-13.63-8.23-19.56-13.57q10.41.17,20.79,1.16c3.45.33,7,.77,10,2.6,4.24,2.64,6.48,7.76,7,12.78s-.41,10.07-1.15,15.06a215.21,215.21,0,0,0-2.21,24.83c0,1.49.52,6.82-1.12,7.74C817.65,962.5,816.59,957.77,816.32,956.05Z" style="fill:#e85a34"/><path d="M822.42,966.25c5.42-10.24,10-21,16.25-30.71s14.39-18.65,24.87-23.32a139.69,139.69,0,0,0-22.11,7c-5.65,2.31-11.34,5.13-15.26,9.87a33.28,33.28,0,0,0-5.71,11.43,104.15,104.15,0,0,0-3.84,21.83c-.18,2-1.63,7.33.41,8.44C819.41,972.06,821.64,967.73,822.42,966.25Z" style="fill:#c6421e"/><path d="M783.72,921a57.71,57.71,0,0,1,21.54,9.94c3.93,2.94,8.39,8.72,10.6,13.18a38.62,38.62,0,0,1,3.16,11.2c.69,4.45,3.53,17.34.27,21-4,4.52-5.74-9.31-6.44-11.86-5.1-18.7-14.79-34-31.55-44C782.11,920.65,782.92,920.81,783.72,921Z" style="fill:#d6451e"/><path d="M844.79,953.72A77.35,77.35,0,0,1,899,939.4a168.52,168.52,0,0,0-51-1.23c-5.38.69-10.8,1.67-15.69,4-8.59,4.12-14.8,12.23-18.23,21.12-3.29,8.53-4.39,18-4.42,27.06s4.22,7.87,7.85.71C824.92,976.47,831.11,963.78,844.79,953.72Z" style="fill:#1f751a"/><path d="M823.33,1003.89c-1.51,4.36-4.85,6.17-10.5.08-3.49-3.77-4.59-9.09-5.55-14.14-1.86-9.74-3.7-19.56-7.33-28.8s-9.19-18-17.24-23.76c-8.6-6.2-19.27-8.62-29.62-10.9,9.61-.48,18.6-1.39,28,.66,28.89,6.3,40.1,41.23,43,67A24.1,24.1,0,0,1,823.33,1003.89Z" style="fill:#35822f"/><path d="M829.4,1012.37c2.93-10,4.61-20.81,10.77-29C847.08,974.19,859,970,870,971.71s20.85,8.88,27.41,18.36a40.8,40.8,0,0,0-21.95-24.43c-10.05-4.59-21.49-5.16-32.2-2.82-6.4,1.4-12.75,3.9-17.65,8.47-4.73,4.4-7.82,10.45-10.21,16.62-4.84,12.52-7.56,27.49-4.28,40.84C815,1044.58,827.68,1018.23,829.4,1012.37Z" style="fill:#1a6614"/><path d="M808.24,1033.68c-1.77-3.83-2.28-8.12-2.66-12.33-.9-9.73-1.29-19.68-4.7-28.83S790.32,974.91,780.74,973c-11.85-2.38-23.12,5.5-32.49,13.15-6.45,5.27-13.21,11.23-15,19.35.19-7,2.9-13.76,6.55-19.76a51.67,51.67,0,0,1,18.48-18.44c7.69-4.3,16.89-6.11,25.48-4.2,11.59,2.59,20.91,11.62,26.66,22s8.44,22.16,11.06,33.74c1,4.44,6.43,17,3.21,21.19C819.7,1046.37,810.39,1038.52,808.24,1033.68Z" style="fill:#1f751a"/><path d="M832.8,1036.07c13.06-13,32.46-20.8,50.45-23.42,21-3,38.12,1.79,57.1,10.1-7.07-10-19.19-14.81-30.8-18.61-7.24-2.38-14.65-4.56-22.26-4.95-8.24-.41-16.43,1.29-24.51,3-13.74,2.88-30.31,3.5-41.23,13.2-6.87,6.09-10.79,14.84-13.48,23.63C801.46,1060.63,827.38,1041,832.8,1036.07Z" style="fill:#1f751a"/><path d="M807.49,1052.81a128.22,128.22,0,0,0-12.79-20.21c-11.72-14.88-30.69-17.33-47.9-17.66a380.59,380.59,0,0,0-51.17,2.46c18.9-10.39,39.87-14.44,60.67-16.28,8-.71,16.21-1.09,24,1.39,12.87,4.1,23,15.48,32.58,26.45,8,9.13,19.2,22.85,10.37,35.18-1.64,2.29-4.47,4.28-7.1,3.31-2.07-.77-3.12-3-4-5C810.7,1059.26,809.16,1056,807.49,1052.81Z" style="fill:#35822f"/><path d="M793.94,1061c-8.92-5.56-16.86-12.5-26-17.71-6.92-3.93-14.18-8-22.18-7.4a487.76,487.76,0,0,0-55.7,7.15c17.21-15.64,41.34-15,63.2-14.86,8.39.08,16.89.32,25,2.56,15.22,4.25,27.09,15.08,37.33,26.22,3.73,4,13.61,12.71,2.13,12.73C809.39,1069.73,800.66,1065.22,793.94,1061Z" style="fill:#1a6614"/><path d="M815.06,1083.93c3.63-.6,6.54-3,9.09-5.46,7.74-7.38,14.3-15.8,22.66-22.59,10.41-8.46,22.93-15.42,37.25-13.24q31.1,4.72,61.66,12c-14.91-9.8-33.08-19-51-23.25-16.49-3.89-40.27,2.73-55.17,9.18-8.46,3.66-16.43,8.51-22.43,15C813,1060.12,798.37,1086.64,815.06,1083.93Z" style="fill:#165b0f"/></g></svg>