<svg xmlns="http://www.w3.org/2000/svg" width="current" height="current" preserveAspectRatio="xMidYMid slice" viewBox="0 0 981.62 1200"><g id="Layer_29" data-name="Layer 29"><rect width="900" height="1200" style="fill:none"/></g><g id="monstera-leaf-1"><path d="M976.46,609.27c.29-1-.21-2.4-1.23-2.28a1.84,1.84,0,0,0-.83.37l-4.49,2.92c-5.33,3.47-11.69,2.62-17.58,1.09a9.89,9.89,0,0,1-4.39-2.12,4.31,4.31,0,0,1-1.33-4.46c.68-1.84,2.78-2.67,4.66-3.23,8.13-2.46,16.53-4.06,24.43-7.17,1.7-.67,3.38-1.42,5-2.25a71.64,71.64,0,0,0,.84-14c0-.62-.08-1.22-.13-1.83a65.57,65.57,0,0,1-24.79,7.59c-1.44.14-3.24.06-3.89-1.24s.51-3,1.65-4.07a151.73,151.73,0,0,1,18.71-15.09c1.7-1.16,3.43-2.29,5.12-3.47a72.54,72.54,0,0,0-8.08-16.75c-8.09,15.66-21.94,27.72-35.4,39.27a3.37,3.37,0,0,1-2.4,1.12c-2.2-.27-1.63-3.65-.42-5.51,7.12-11,14.55-21.86,20.36-33.61a98.34,98.34,0,0,0,6.08-15.74,116.52,116.52,0,0,0-14.84-12.46c-1.64,18.52-9.39,36.29-19.87,51.75-1.52,2.23-4.45,4.65-6.51,2.9a129.78,129.78,0,0,0,12.72-62.75l0-.5c-3.42-1.89-6.9-3.65-10.39-5.27-.69-.32-1.38-.61-2.07-.92a68.22,68.22,0,0,1-.61,28.83c-3.15,13.62-9.87,26.21-18,37.59-2.19-.64-3.44-3.07-3.49-5.34a17.54,17.54,0,0,1,1.65-6.57c6.06-15.69,9.31-32.65,8.51-49.5a56.23,56.23,0,0,0-1.8-10.37,170.37,170.37,0,0,0-17.36-4.84c.29.83.57,1.67.84,2.49,2.6,7.87,5.22,15.8,6.37,24s.74,16.82-2.53,24.45c-.76,1.76-2.25,3.75-4.11,3.3s-2.25-2.58-2.41-4.34c-.93-9.83-.88-19.77-2.57-29.5a82.82,82.82,0,0,0-5-17.25,50.15,50.15,0,0,0-3.19-5.53q-9.24-1.39-18.6-1.91c1.22,2.16,2.3,4.41,3.3,6.67,4.83,10.88,8.44,23.81,2.93,34.36-4-1.53-6.67-5.47-8.2-9.5s-2.22-8.34-3.83-12.34c-3-7.52-9-13.36-14.91-18.93a87.19,87.19,0,0,0-19.61,4.18A80.7,80.7,0,0,1,829,506.85c2.35,3.26,4.45,7.59,2.51,11.11a2,2,0,0,1-1.2,1.11,2.49,2.49,0,0,1-1.29-.13,29,29,0,0,1-7-2.65,33,33,0,0,1-6.37-5.57,138.48,138.48,0,0,0-14.46-12.61,46,46,0,0,0-8.68,7.44,52.8,52.8,0,0,1,6.49,3.92,12.51,12.51,0,0,1,3.24,3.25,1.61,1.61,0,0,1,.28,1.49,1.62,1.62,0,0,1-1.2.72c-2.09.44-8.38-.8-13.77-2.64A44,44,0,0,0,783,523.05c3.76.42,7.25,1.08,9,1.12,2.63.06,5.35.08,7.75,1.17.92.93.46,2.62-.57,3.42a7,7,0,0,1-3.72,1.07c-2.38.23-8.37,1.5-14.11,2.07a70.5,70.5,0,0,0,0,13.55,63.68,63.68,0,0,0,21.43-2.56,17.35,17.35,0,0,1,4.9-1A5,5,0,0,1,812,544c1.14,2,.11,4.61-1.69,6s-4.13,1.83-6.38,2.2q-8.13,1.37-16.34,2.35l-4.87.59c.52,2.72,1.14,5.42,1.82,8.09.3,1.16.62,2.31.94,3.46a138.14,138.14,0,0,0,22.92-4.92c4.31-1.29,8.55-2.73,12.63-4.24,2.53-.94,5.55-1.9,7.75-.33,1.83,1.3,2.25,4,1.49,6.09a12.26,12.26,0,0,1-4.2,5.15c-5.66,4.5-10.22,4.61-16.81,6s-13.28,3.38-20,4.76c1.16,3.65,2.32,7.3,3.43,11,3-.44,6-1,9-1.71,12.53-2.88,24.65-7.4,37.27-9.85,4.38-.85,9.14-1.39,13.1.65,0,2.72-3,4.34-5.51,5.35a347.58,347.58,0,0,1-49.71,15.78l-1.2.26c1.17,4.67,2.21,9.37,3.56,14,.63,0,1.26.09,1.88.1a64.35,64.35,0,0,0,19.42-3.11A89.51,89.51,0,0,0,836.14,605c5.25-2.8,11.19-6.24,16.76-4.14.16,4.41-4.14,7.5-7.94,9.73-12.69,7.48-25.6,15-39.8,18.86,1,1.93,2,3.84,3.13,5.71q1.41,2.38,3,4.68c17.06-3.22,32.73-11.43,47.88-19.59a3.84,3.84,0,0,1,3-.66,2.62,2.62,0,0,1,1.21,3.35,7.63,7.63,0,0,1-2.52,3L843.7,640.32c-6.34,5.31-12.87,10.71-20.62,13.55a80.62,80.62,0,0,0,17.48,12.72,46.38,46.38,0,0,0,22.68-16c5.57-7.4,8.75-16.26,12.65-24.65.93-2,2.78-4.36,4.83-3.51,1.67.69,1.83,3,1.64,4.76-1.87,17-12.11,31.85-23.41,44.66l-1.16,1.3a68.54,68.54,0,0,0,16.77,1.93c1.23,0,2.45-.09,3.67-.2a46.42,46.42,0,0,0,4.27-8.14c3-7.44,4.26-15.48,4.77-23.49.14-2.25.28-4.64,1.6-6.46s4.33-2.59,5.81-.89a5.67,5.67,0,0,1,1,2.17c1.64,5.57,3.7,11,3.44,16.84-.16,3.62-.91,7.75-2.88,10.84-1.19,1.89-2.65,3.65-3.45,5.73.78,1,2.29.24,3.25-.53a70.56,70.56,0,0,0,6.69-6.23c2.76-2.85,5.46-5.38,7.51-8.85a32.49,32.49,0,0,0,3.58-23.63,11.54,11.54,0,0,1-.47-4.86c1.17-5.31,4.34-6.31,8-5.53,4.24.92,9.11,4.27,12.13,6a28.84,28.84,0,0,0,38.69-8.83A36,36,0,0,0,976.46,609.27ZM867.29,553.56c-2.43.13-3.91-2.6-4.61-4.93s-1.16-4.65-.17-6.72,4.13-3.14,5.64-1.4l-.86-.19c1.84.67,2.67,3.17,3.06,5.25a11.61,11.61,0,0,1,.22,4.83A4,4,0,0,1,867.29,553.56ZM876.48,596c-3.7,3-8.82,3.36-13.58,3.54a3.39,3.39,0,0,1-2.55-.61c-1.19-1.17-.09-3.18,1.13-4.32A23.53,23.53,0,0,1,875,588.44c1.65-.78,3.77.78,4,2.63S878,594.77,876.48,596Zm14.45,10.84c-1.15,2.34-2.61,4.94-5.15,5.51a2.69,2.69,0,0,1-2.34-.43c-1-.85-.86-2.39-.54-3.64a21.53,21.53,0,0,1,3.68-7.67c1.26-1.67,3.54-3,5.27-1.06S891.8,605,890.93,606.83Zm1.29,21.06c-1.63-.49-2.06-2.59-2-4.29a20.24,20.24,0,0,1,1.44-6.61,3.91,3.91,0,0,1,1.94-2.41c1-.39,2.4.37,2.2,1.41l.76-.23a15.1,15.1,0,0,1-.34,9C895.6,626.49,894,628.43,892.22,627.89Zm16.27-38.3a2.16,2.16,0,0,1-1.8.1c-.87-.49-1-2-.56-3.26a10.92,10.92,0,0,1,2-3.16c2.31-2.88,5.65-11.81,7.58-6.45C917.49,581.62,912.06,588.16,908.49,589.59ZM926,593.34a8,8,0,0,1-7.33,4.46c-.83,0-1.81-.33-2-1.13a2,2,0,0,1,.17-1.23,9.84,9.84,0,0,1,6.53-5.88l-.46.36a12.35,12.35,0,0,1,2.49,1.25,1.78,1.78,0,0,1,.82.85A1.82,1.82,0,0,1,926,593.34Zm14.71,2c-2.81,1.82-5.88,3.71-9.23,3.53a1.58,1.58,0,0,1-1.35-.6,1.31,1.31,0,0,1-.06-1c.38-1.4,1.75-2.26,3-2.93a49.35,49.35,0,0,1,8.17-3.3l-.27.63c.83-.44,1.79.7,1.57,1.62A3.82,3.82,0,0,1,940.71,595.33Z" style="fill:#054"/><path d="M808.24,523.9q14.28,6.83,28,14.75c8.8,5.84,17.46,11.9,25.77,18.46a269.45,269.45,0,0,1,23.86,20.95,213.81,213.81,0,0,1,20.73,24.15,223.2,223.2,0,0,1,16.81,27,217.1,217.1,0,0,1,12.86,29.07A213.27,213.27,0,0,1,945,688.86a190.1,190.1,0,0,1,2,31.66,245.35,245.35,0,0,0-6.2-30.79,208.37,208.37,0,0,0-8.54-30,212.85,212.85,0,0,0-12.62-28.54,219.76,219.76,0,0,0-16.48-26.47,210.52,210.52,0,0,0-20.29-23.63,266.22,266.22,0,0,0-23.49-20.63c-8.2-6.45-16.74-12.49-25.5-18.21C825.5,536,816.86,530,808.24,523.9Z" style="fill:#003a2e"/></g><g id="monstera-leaf-2"><path d="M925.33,658.65c-.37-1-1.7-1.92-2.51-1.18a2.16,2.16,0,0,0-.48.85q-1,2.68-2,5.37c-2.39,6.37-8.4,9.68-14.45,12.11a10.62,10.62,0,0,1-5.12,1,4.6,4.6,0,0,1-4-3c-.59-2,.7-4.07,2-5.75,5.44-7.28,11.65-14,16.47-21.7,1-1.66,2-3.37,2.89-5.13a78,78,0,0,0-8.19-12.61c-.42-.51-.85-1-1.28-1.5a70.12,70.12,0,0,1-16.51,22.3c-1.16,1-2.76,2.11-4.14,1.4s-1.46-2.89-1.16-4.55a162.26,162.26,0,0,1,6.5-24.88c.73-2.08,1.5-4.15,2.21-6.24a77.49,77.49,0,0,0-17.61-9.28c3,18.62-1.26,37.81-5.51,56.31a3.58,3.58,0,0,1-1.35,2.48c-2.07,1.17-3.72-2.1-3.86-4.47-.86-14-1.38-28.07-3.85-41.88a103.59,103.59,0,0,0-4.77-17.4,123.75,123.75,0,0,0-20.69-1.3c10.36,17,15,37.21,15.79,57.17.11,2.89-.87,6.84-3.75,6.64A138.92,138.92,0,0,0,821,601.29c-.12-.14-.24-.27-.35-.41-4.15.54-8.26,1.24-12.29,2.07-.8.16-1.58.35-2.37.52a72.73,72.73,0,0,1,17.79,25.21c6,13.72,8.17,28.83,8.41,43.78-2.28.84-4.9-.45-6.39-2.37s-2.11-4.36-2.75-6.71c-4.76-17.36-12.75-34-24.15-48a58.49,58.49,0,0,0-8.14-7.78,182.38,182.38,0,0,0-18,6.86l2.3,1.61c7.25,5.13,14.55,10.29,20.76,16.63s11.33,14,13.36,22.65c.47,2,.45,4.66-1.44,5.46s-3.56-.79-4.83-2.2c-7-7.87-13.32-16.46-21-23.77a89.69,89.69,0,0,0-15.25-11.69,55.26,55.26,0,0,0-6.25-2.73c-5.9,3.11-11.65,6.52-17.23,10.18,2.42,1.08,4.78,2.34,7.07,3.64,11.08,6.3,22.41,15.13,24.37,27.73-4.44,1.23-9.21-.48-13.09-3s-7.22-5.78-11.15-8.2C743,646.25,734.15,645,725.54,644A93.44,93.44,0,0,0,711.31,660c8.18.26,17,2.59,22,4.2,4.09,1.31,8.66,3.7,9.22,8a2.19,2.19,0,0,1-.33,1.72,2.62,2.62,0,0,1-1.19.71,31.24,31.24,0,0,1-7.68,2.15,35.2,35.2,0,0,1-9-.75,149.33,149.33,0,0,0-20.47-1.66,49.34,49.34,0,0,0-2.73,11.92,57.19,57.19,0,0,1,8.07-.76,13.74,13.74,0,0,1,4.86.75,1.71,1.71,0,0,1,1.19,1.1,1.78,1.78,0,0,1-.58,1.38c-1.52,1.71-7.73,4.64-13.53,6.49A47.29,47.29,0,0,0,704,707.4c3.51-2,6.93-3.68,8.47-4.76,2.3-1.63,4.66-3.34,7.42-3.92,1.38.21,2.06,2,1.67,3.3a7.52,7.52,0,0,1-2.51,3.29c-1.91,1.71-6.26,6.61-10.84,10.74a75.91,75.91,0,0,0,8.59,11.69,68.21,68.21,0,0,0,16.82-15.82,18.76,18.76,0,0,1,3.57-4,5.3,5.3,0,0,1,5.07-.9c2.24,1,3,3.9,2.37,6.24s-2.39,4.21-4.09,6q-6.13,6.35-12.58,12.4c-1.21,1.14-2.48,2.37-3.81,3.61q3.27,3,6.71,5.81c1,.81,2,1.59,3,2.38a147.83,147.83,0,0,0,16.6-18.81c2.89-3.85,5.63-7.78,8.17-11.68,1.58-2.41,3.58-5.16,6.47-5.21,2.4,0,4.46,2,5.15,4.3a13.12,13.12,0,0,1-.34,7.1c-2,7.47-5.87,10.47-10.68,15.82s-9.29,11.34-14.2,16.82c3.32,2.4,6.64,4.8,9.92,7.24,2.32-2.29,4.53-4.7,6.65-7.17,9-10.45,16.51-22,25.81-32.17,3.23-3.51,7-7,11.7-7.77,1.68,2.38.18,5.63-1.34,8.11A373.47,373.47,0,0,1,765,765.17l-.87,1c4,3.27,7.87,6.66,12,9.78.59-.36,1.16-.73,1.69-1.12a68.63,68.63,0,0,0,14.74-15,95.21,95.21,0,0,0,9.32-15.59c2.73-5.75,5.67-12.49,11.79-14.22,2.94,3.69,1.21,9.09-.64,13.43-6.18,14.5-12.49,29.21-22.28,41.53,2.09,1,4.19,2,6.33,2.93q2.73,1.15,5.53,2.14c12.64-13.62,20.91-30.65,28.76-47.31a4.16,4.16,0,0,1,2.17-2.48c1.36-.4,2.77.77,3.17,2.12a8,8,0,0,1-.27,4.17q-2.8,11.63-5.63,23.26c-2.08,8.6-4.26,17.39-9.13,24.77a86.52,86.52,0,0,0,23.13-.16,49.63,49.63,0,0,0,9.38-28.16c.09-9.9-2.8-19.55-4.78-29.25-.47-2.32-.37-5.53,1.92-6.09,1.88-.47,3.47,1.38,4.44,3.05,9.19,15.8,9.83,35.11,8.25,53.32l-.18,1.86a72.88,72.88,0,0,0,15.66-9c1-.79,2.06-1.64,3-2.51a49.17,49.17,0,0,0-1.51-9.72c-2.13-8.31-6.17-16-10.82-23.25-1.3-2-2.71-4.17-2.72-6.57s2.07-5,4.43-4.46a6,6,0,0,1,2.24,1.23c5,3.76,10.16,7.1,13.66,12.3,2.17,3.22,4.14,7.26,4.42,11.17.17,2.38,0,4.82.67,7.13,1.27.32,2.12-1.26,2.46-2.53a75.58,75.58,0,0,0,1.8-9.61c.56-4.21,1.27-8.11.84-12.39a34.82,34.82,0,0,0-11.94-22.62,12.24,12.24,0,0,1-3.5-3.89c-2.37-5.31-.27-8.19,3.35-9.82,4.23-1.91,10.55-2.11,14.27-2.51a30.87,30.87,0,0,0,27.7-32.21A38.37,38.37,0,0,0,925.33,658.65ZM795.94,680.1c-2,1.66-5,.24-7.09-1.32s-4-3.26-4.42-5.67,1.56-5.33,4-4.8l-.86.39c2-.59,4.32,1,6,2.57a12.27,12.27,0,0,1,3.26,4A4.22,4.22,0,0,1,795.94,680.1Zm34.88,30.68c-1.26,4.93-5.44,8.5-9.43,11.67a3.65,3.65,0,0,1-2.58,1.11c-1.78-.25-2.1-2.69-1.78-4.45a25.23,25.23,0,0,1,7.72-13.88c.93-1.73,3.74-1.73,5.1-.27S831.33,708.79,830.82,710.78Zm19.33.14c.51,2.75.9,5.91-.92,8a2.87,2.87,0,0,1-2.29,1.12c-1.39-.1-2.26-1.51-2.78-2.79a23.43,23.43,0,0,1-1.71-8.95c0-2.23,1.16-4.8,3.87-4.26S849.77,708.82,850.15,710.92Zm14.5,17.31c-1.71.62-3.42-.92-4.43-2.43a21.81,21.81,0,0,1-3-6.6,4.25,4.25,0,0,1,.14-3.31c.61-1,2.3-1.21,2.8-.19l.5-.67a16.22,16.22,0,0,1,5.4,7.91C866.68,724.88,866.55,727.54,864.65,728.23Zm-10.33-43.31a2.29,2.29,0,0,1-1.49,1.22c-1.06.14-2.15-1.11-2.56-2.44a12.11,12.11,0,0,1-.25-4c.16-3.94-2.64-13.75,2.43-10.37C857,672.34,856.48,681.42,854.32,684.92Zm17.45-7.9a8.53,8.53,0,0,1-3.47,8.49,1.72,1.72,0,0,1-3.1-.85,10.55,10.55,0,0,1,1.89-9.21l-.17.6a13.82,13.82,0,0,1,2.94-.51,1.52,1.52,0,0,1,1.91,1.48Zm13.92-7.64c-1.26,3.35-2.69,6.93-5.69,8.91a1.69,1.69,0,0,1-1.55.34,1.43,1.43,0,0,1-.68-.82c-.56-1.45.07-3.06.76-4.45a51.62,51.62,0,0,1,4.93-8l.17.72c.44-.92,2-.55,2.38.38A4,4,0,0,1,885.69,669.38Z" style="fill:#0a6d5a"/><path d="M726.27,692.11q16.62-3.21,33.49-5.12c11.28-.56,22.59-.85,33.91-.49a288.87,288.87,0,0,1,33.85,2.87,228.41,228.41,0,0,1,33.2,7.61,238.68,238.68,0,0,1,31.63,12.55,234.3,234.3,0,0,1,29.55,16.85,229.53,229.53,0,0,1,26.94,20.79,203.65,203.65,0,0,1,21.86,26,263.47,263.47,0,0,0-24.91-22.56,224.75,224.75,0,0,0-26.42-20.39,229.48,229.48,0,0,0-29-16.54,236.62,236.62,0,0,0-31-12.31,225.81,225.81,0,0,0-32.49-7.44,285.57,285.57,0,0,0-33.33-2.83c-11.16-.33-22.35-.11-33.52.54C748.79,691.53,737.55,691.87,726.27,692.11Z" style="fill:#054"/></g></svg>