<svg xmlns="http://www.w3.org/2000/svg" width="current" height="current" preserveAspectRatio="xMidYMid slice" viewBox="0 0 952.97 1282.43"><g id="Layer_29" data-name="Layer 29"><rect x="52.97" width="900" height="1200" style="fill:none"/></g><g id="musa-1"><path d="M482.42,1149.4c-153.61,101.49-232,152.39-409.08,126.24C137.66,1175.58,299.15,1106.72,482.42,1149.4Z" transform="translate(52.97)" style="fill:#005422"/><path d="M436.11,996.38C329,1146.1,273.91,1221.69,99.24,1260.59,123.52,1144.14,249.7,1022.07,436.11,996.38Z" transform="translate(52.97)" style="fill:#0d6330"/><path d="M140,811c-7.33,184-11.82,277.37-136.44,405.8C-40.06,1106.13-1.64,934.82,140,811Z" transform="translate(52.97)" style="fill:#005422"/></g><g id="musa-2"><path d="M19.73,778.66c-15,14.22-32.6,43.52-46.73,83.05l9.72,40.37L-32,876.46a468.69,468.69,0,0,0-21,126.86c11.53,24.65,28.23,59.94,28.23,59.94L-53,1028.61a455.28,455.28,0,0,0,67.34,227.84c23.45-62.08,49.6-126.5,57-204.1L18.4,1090.43s34.8-48.56,54.92-76.68A486,486,0,0,0,61.73,905.38L19,940.24s24.89-43,35.87-63.11A714.7,714.7,0,0,0,19.73,778.66Z" transform="translate(52.97)" style="fill:#1b8c48"/><path d="M61.13,1115v0q.75-3.3,1.47-6.65l0-.07c.47-2.21.94-4.43,1.39-6.66l0-.11q.66-3.33,1.29-6.68l0-.17q.63-3.33,1.21-6.69l0-.22c.39-2.22.75-4.46,1.11-6.71a2.34,2.34,0,0,1,0-.26q.52-3.35,1-6.74c0-.1,0-.2,0-.3q.48-3.36.91-6.76c0-.11,0-.23,0-.35.29-2.25.55-4.51.81-6.78,0-.14,0-.27,0-.41.25-2.25.48-4.52.7-6.79,0-.07,0-.14,0-.21L18.4,1090.43s34.8-48.56,54.92-76.68c.11-12.42-.29-25.18-1.27-38.33,0-.17,0-.34,0-.52q-.23-3-.49-6c0-.37-.07-.74-.1-1.11-.18-2-.37-4-.58-5.95,0-.23,0-.45-.07-.67q-1-9.33-2.36-18.93c-.07-.47-.13-1-.2-1.43-.26-1.75-.54-3.51-.81-5.27L67,933.11c-.28-1.68-.56-3.36-.85-5.06l-.48-2.68c-.3-1.68-.6-3.37-.92-5.06-.15-.81-.32-1.63-.47-2.44q-1.2-6.2-2.56-12.49L19,940.24s24.89-43,35.87-63.11h0c-.74-2.74-1.52-5.5-2.31-8.26-.17-.61-.35-1.21-.52-1.82-.79-2.71-1.59-5.44-2.43-8.18l-.43-1.4c-.77-2.52-1.56-5-2.38-7.58l-.45-1.44c-.9-2.78-1.83-5.57-2.77-8.38-.21-.63-.43-1.25-.64-1.87-1-2.89-2-5.78-3-8.69l0,0q-1.56-4.38-3.2-8.81L36,818.73c-1.08-2.9-2.18-5.8-3.32-8.73l-.57-1.48c-1.05-2.69-2.13-5.4-3.22-8.12l-.6-1.48c-1.2-3-2.44-6-3.69-9l-.84-2q-2-4.63-4-9.32C-23.46,925-2.68,1178.43,14.37,1256.45q1.1-2.9,2.2-5.81C32.79,1207.85,50,1163.79,61.13,1115Z" transform="translate(52.97)" style="fill:#12753a"/><path d="M397.05,901.21c-20.67.13-53.53,9.5-90.87,28.71L285.7,966l6.78-28.74a469.05,469.05,0,0,0-102,78.29c-8.42,25.88-20.34,63.05-20.34,63.05l3-44.6A455.27,455.27,0,0,0,66.67,1246.41c59.55-29.31,122.65-58.48,181-110.11l-64.66-8.36s58.59-11.68,92.49-18.46a485.55,485.55,0,0,0,65.59-87.05l-55.06-3.77s47.53-14.36,69.32-21.57A713.82,713.82,0,0,0,397.05,901.21Z" transform="translate(52.97)" style="fill:#1b8c48"/><path d="M197.5,1175h0q2.82-1.9,5.62-3.85l.06,0q2.79-1.94,5.57-3.92l.09-.06q2.76-2,5.51-4l.14-.1q2.73-2,5.45-4.06l.17-.13q2.7-2.05,5.4-4.15l.2-.16c1.78-1.39,3.57-2.8,5.34-4.23l.24-.19q2.64-2.13,5.28-4.32l.28-.23c1.74-1.44,3.48-2.91,5.21-4.39l.32-.27c1.72-1.48,3.44-3,5.15-4.49l.16-.14-64.66-8.36s58.59-11.68,92.49-18.46q12.85-13.49,25.27-28.85l.33-.4c1.25-1.56,2.49-3.14,3.73-4.72.23-.29.46-.58.68-.88,1.23-1.56,2.44-3.14,3.66-4.74.13-.18.26-.36.4-.53q5.65-7.48,11.21-15.44c.27-.39.55-.78.82-1.18,1-1.45,2-2.93,3-4.41l1.38-2q1.43-2.13,2.83-4.27l1.49-2.29q1.39-2.14,2.79-4.33l1.32-2.1c2.23-3.56,4.46-7.17,6.66-10.87l-55.06-3.77s47.53-14.36,69.32-21.57h0q2-3.75,4-7.61l.86-1.68q1.92-3.76,3.82-7.63l.64-1.32q1.72-3.54,3.44-7.16c.22-.45.44-.9.65-1.35q1.86-4,3.71-8l.81-1.8c1.26-2.78,2.5-5.57,3.74-8.41l0,0q1.86-4.26,3.68-8.62l.8-1.89c1.18-2.85,2.37-5.73,3.54-8.64.19-.49.39-1,.59-1.47q1.61-4,3.2-8.13c.19-.5.38-1,.58-1.49q1.72-4.49,3.42-9.07l.75-2c1.15-3.15,2.31-6.32,3.45-9.53C265.5,978.58,107.53,1177.8,66.67,1246.41l5.57-2.74C113.33,1223.51,156,1203.09,197.5,1175Z" transform="translate(52.97)" style="fill:#12753a"/></g><g id="musa-3"><path d="M202.82,828.15c-19.22,7.58-46.47,28.21-74.33,59.61l-6.05,41.09-4.06-29.25a469,469,0,0,0-66.8,109.87c1.51,27.18,3.83,66.14,3.83,66.14l-13.28-42.68A455.2,455.2,0,0,0,19.6,1269.44c44.92-48.85,93.21-98.87,129-168.11l-63.31,15.58,79.57-50.65a486,486,0,0,0,29.68-104.87l-52.7,16.38s39.12-30.57,56.83-45.18A713,713,0,0,0,202.82,828.15Z" transform="translate(52.97)" style="fill:#1b8c48"/><path d="M115.78,1155.6v0c1.29-1.86,2.58-3.73,3.85-5.62l0-.06q1.91-2.82,3.77-5.67l.07-.09q1.86-2.84,3.69-5.72l.09-.14c1.21-1.91,2.42-3.83,3.61-5.76l.12-.19q1.77-2.88,3.53-5.81c0-.08.09-.15.13-.22q1.74-2.92,3.45-5.88l.15-.26c1.13-2,2.26-3.94,3.37-5.94l.17-.31c1.1-2,2.2-4,3.28-6l.19-.36q1.6-3,3.18-6a1.62,1.62,0,0,0,.1-.18l-63.31,15.58,79.57-50.65q7.11-17.23,13.12-36c.06-.16.11-.33.16-.49.6-1.91,1.2-3.82,1.78-5.75.11-.36.21-.71.32-1.06.57-1.91,1.14-3.82,1.69-5.75l.18-.64q2.58-9,4.87-18.44c.11-.47.23-.93.34-1.4.42-1.72.82-3.46,1.22-5.2.18-.8.37-1.6.55-2.41q.56-2.49,1.1-5c.19-.88.37-1.77.56-2.66.35-1.68.69-3.35,1-5,.16-.81.31-1.62.47-2.44q1.2-6.18,2.29-12.53l-52.7,16.38s39.12-30.57,56.83-45.18h0c.33-2.81.64-5.66.94-8.52.06-.63.13-1.25.19-1.88q.42-4.22.8-8.49l.12-1.47c.23-2.62.43-5.26.63-7.92,0-.5.07-1,.11-1.5q.3-4.37.56-8.82c0-.65.07-1.31.11-2,.16-3,.31-6.09.44-9.18v-.05c.13-3.1.23-6.23.32-9.37l.06-2c.07-3.09.14-6.2.18-9.33,0-.53,0-1.06,0-1.59q0-4.34,0-8.74v-1.6c0-3.2,0-6.44-.09-9.69l0-2.15c-.06-3.35-.13-6.72-.23-10.12C108.14,947.84,32.89,1190.69,19.6,1269.44l4.2-4.57C54.82,1231.22,87.2,1196.76,115.78,1155.6Z" transform="translate(52.97)" style="fill:#12753a"/></g></svg>