<svg xmlns="http://www.w3.org/2000/svg" width="current" height="current" preserveAspectRatio="xMidYMid slice" viewBox="0 0 900 1200"><g id="Layer_29" data-name="Layer 29"><rect x="99.69" width="900" height="1200" style="fill:none"/></g><g id="palm-leaf-1"><path d="M141.12,638.3c-27.08-10.1-52.56-4-74.33,2.76q9.72-9.87,19.57-19c11.58,5.81,48.92,3.21,80.67-9.14-26.85-10-55.56-.78-77.68,6.4q5.16-4.71,10.35-9.19a2.14,2.14,0,0,0,.68-1.15c18.57-9.85,34.89-15.89,53.53-44.44-22.69,5-46.32,16.48-58.74,43.86q-4.89,4.26-9.74,8.7c4.73-17.68,14.5-36.7,9.58-56.39-17.14,19.95-20.48,35.89-11.4,58.07q-10.17,9.4-20.2,19.62c3.74-18.35,6.21-42.41,1.3-62.06C52.18,598.09,48.6,628.28,61,640.91q-8.55,8.8-17,18.14c2.73-18.71-1.9-45.37-6.8-65-12.54,21.74-8.54,54.79,4.43,67.64q-10.3,11.53-20.32,23.79c5.24-23.64-2.17-49-7.09-68.71-12.59,21.85-5.7,51.7,4.61,71.76q-7.47,9.23-14.74,18.79C8.74,683.74-2,658.25-12.25,636.71c-8.87,34,3.15,54.55,13.81,73.95q-7,9.3-13.77,18.88c3.51-24.24-15.35-54.27-25.55-75.81-8.87,34,11.88,59.46,23.15,79.21q-6.87,9.79-13.47,19.84c2.72-24.94-21-59.81-31.23-81.33-8.87,34,17.24,64.79,28.88,84.9q-5.61,8.63-11,17.39c-3.1-26-22.91-69.08-44.06-85.44,5.42,46.37,28.55,69.63,43,87.22q-4.86,7.92-9.53,15.94C-56.8,768.12-84.22,727.82-97.55,712c4.51,37.63,21.48,67,44.22,81.67a757.78,757.78,0,0,0-46.21,93.77,2.15,2.15,0,0,0,1.18,2.79,2.08,2.08,0,0,0,.8.16,2.15,2.15,0,0,0,2-1.34,752.91,752.91,0,0,1,45.82-93c18.94,12.37,55.75,27.93,93,29-19.41-16.31-64.73-38.63-91.71-31.19q4.56-7.82,9.28-15.54c20.63,9.69,62.5,19.58,99.56,15.66-21.26-13.47-71.82-28.79-98-18.23q5.05-8.19,10.3-16.25c20.22,9.3,55.67,13,92.72,9.07-21.2-13.44-65.34-22.71-91-11.76q6.87-10.49,14-20.74c19.73,9.16,47.23,10.62,84.28,6.7-21.13-13.38-57.4-20.5-82.3-9.52q7-9.87,14.16-19.46c19.6,8.92,45.16,6.53,82.91.73C60.25,704.25,31,699.67,6.88,710.7q7.38-9.74,15-19.12c19.58,8.69,44.76,3,82.5-2.83-27.14-10.12-55.89-11.56-79.9-.36q10.08-12.35,20.49-24c11,7,44.87,14.55,76.75,2.15C94.42,656.37,68.9,656,47,662.05q8.57-9.49,17.28-18.47C75.44,649.82,109.32,650.67,141.12,638.3Z" transform="translate(99.69)" style="fill:#003a2e"/></g><g id="palm-leaf-2"><path d="M152.83,795.62c-17.89-15.14-39-17.5-57.48-18.31q10.13-4.86,20.15-9.11c7.24,7.61,36.45,15.88,64.07,15.18-17.74-15-42.18-15.86-61-16.46q5.23-2.17,10.43-4.17a1.72,1.72,0,0,0,.83-.69c16.88-2.42,31-2.54,53.06-19.21-18.7-2.39-39.88-.15-56.88,17.34q-4.89,1.9-9.82,4c8.47-12.19,21.15-24,22.8-40.41-18.56,10.52-25.48,21.77-24.65,41.2q-10.33,4.38-20.81,9.42c7.9-13,16.4-30.66,18-47C96,740.5,85,762.56,90.93,775.6Q82,780,73,784.78c7.22-13.53,11-35.15,12.65-51.47-15.53,13.15-21.56,39.47-15.19,52.84q-11,6-22,12.57c10.49-16.6,11.81-38,13.46-54.38-15.61,13.21-18.55,37.88-16.2,56q-8.23,5-16.41,10.29c10-16.72,8.81-39.14,6.94-58.38-16.1,23.48-12.58,42.5-9.78,60.23q-7.89,5.18-15.69,10.63c9.34-17.54,3.2-45.63,1.33-64.88C-4,781.76,4.81,806.9,8,825.07Q.05,830.67-7.75,836.51c8.94-18.28.38-51.42-1.49-70.64-16.11,23.5-4.63,54.18-1.28,72.73q-6.64,5-13.19,10.24c4.78-20.67,1.49-59-10.15-77.31-8.6,36.88,2.66,61,8.83,78.37q-5.88,4.71-11.65,9.54c2.81-19.1-7-57.4-12.87-73.17-6.89,30-2,57,11.32,74.48a612.56,612.56,0,0,0-61,58.87,1.74,1.74,0,0,0,.13,2.45,1.6,1.6,0,0,0,.57.34,1.72,1.72,0,0,0,1.88-.47,610.8,610.8,0,0,1,60.54-58.43c11.05,14.65,34.87,36.63,63,47.68-10.34-17.78-38.8-47.27-61.43-49q5.63-4.71,11.36-9.31c13.07,13.06,42.32,32.11,71.68,39.3C36,876.05,1.56,850.48-21.3,851.36q6.11-4.87,12.33-9.58C3.91,854.43,30,867,59.3,874.17c-12.49-16.08-43.63-35.28-66.2-34q8.13-6.12,16.41-12C22.05,840.64,42.65,849.31,72,856.5c-12.44-16-38.17-31.41-60.19-29.87q8-5.62,16.15-11C40.46,827.85,60.62,833.05,91,839c-18-15.25-39.08-26.78-60.52-25q8.31-5.4,16.68-10.49c12.55,12,33.34,14.57,63.73,20.5C93,808.84,71.44,799.85,50,801.8q11.1-6.64,22.23-12.68c6.49,8.37,30.25,23.42,58,22.72-18-15.25-37.38-22.58-55.74-23.93q9.15-4.9,18.26-9.35C99.54,786.37,125.16,796.33,152.83,795.62Z" transform="translate(99.69)" style="fill:#054"/></g></svg>