<svg xmlns="http://www.w3.org/2000/svg" width="current" height="current" preserveAspectRatio="xMidYMid slice" viewBox="0 0 900 1223.62"><g id="Layer_29" data-name="Layer 29"><rect width="900" height="1200" style="fill:none"/></g><g id="penstemon-1"><path d="M389.12,1214.55c-2.24-5.9-3.06-12.22-3.93-18.47a893.58,893.58,0,0,0-24.53-117.31c-.51-1.81-2.61-7.51-1.24-9.11,3.17-3.74,5.78,5.29,6.38,7.2q6.84,22,12.48,44.39a866.65,866.65,0,0,1,17.63,89.47c.31,2.19.43,4.86-1.38,6.15S389.9,1216.62,389.12,1214.55Z" style="fill:#1f751a"/><path d="M354.17,1067.07a13.53,13.53,0,0,1-3.87-6.39,15.26,15.26,0,0,1,.47-6.87,13.78,13.78,0,0,1,3.14-6.54c1.6-1.61,4.35-2.43,6.12-1a5.65,5.65,0,0,1,1.54,2.39,29,29,0,0,1,1.48,10.24c0,3-.11,6.06-.39,9.07C362,1074.84,356.76,1069.7,354.17,1067.07Z" style="fill:#efe7df"/><path d="M356.72,1070.34a2.75,2.75,0,0,1-1-1.94,3.24,3.24,0,0,1,1.28-2.23,6.69,6.69,0,0,1,4.44-2.14,2.28,2.28,0,0,1,1.47.48,2.55,2.55,0,0,1,.7,1.21c.53,1.61.65,4.74-1,5.83S358,1071.52,356.72,1070.34Z" style="fill:#1f751a"/><path d="M345.68,1069.29c-2.84-.57-5.81-1.07-8.62-.33s-5.41,3.06-5.53,6a4.1,4.1,0,0,0,.74,2.62c1.25,1.71,3.7,1.86,5.81,1.81a87.67,87.67,0,0,0,10-.76c2.43-.34,7.67-.53,9.56-2.24C361.77,1072.57,347.7,1069.7,345.68,1069.29Z" style="fill:#efe7df"/><path d="M355.91,1070.92c-.84-.45-1.93-.85-2.71-.29a2.77,2.77,0,0,0-.86,1.8l-.41,2.13c-.24,1.21-.38,2.68.58,3.45a3.15,3.15,0,0,0,2.66.27c1.32-.31,6.69-1.54,6.64-3.22C361.77,1073.76,356.89,1071.44,355.91,1070.92Z" style="fill:#1f751a"/><path d="M380.23,1062.65c1.65-1.47,3.56-3,5.76-2.83a2,2,0,0,1,1.14.43,2.56,2.56,0,0,1,.63,1.37c.49,2.14,1,4.44.14,6.46-.94,2.26-3.25,3.57-5.42,4.7-1.77.93-15.68,7.06-15.42,1.8.08-1.79,4.74-4.57,6-5.63Q376.66,1065.83,380.23,1062.65Z" style="fill:#efe7df"/><path d="M364.14,1074.87c-.56.51-1.16,1.38-.65,1.94a1.49,1.49,0,0,0,.6.34,12.82,12.82,0,0,0,5.83.61,2.36,2.36,0,0,0,1-.33,2.21,2.21,0,0,0,.71-1.84c.05-1.62-.64-4.48-2.74-4.49C367.34,1071.1,365.24,1073.87,364.14,1074.87Z" style="fill:#1f751a"/><path d="M343.83,1085.42a83.79,83.79,0,0,0-10.55,4.11c-2.95,1.38-6,3.17-7.2,6.13s-.08,6.31,1.11,9.29a3.25,3.25,0,0,0,.78,1.28,3.09,3.09,0,0,0,2.62.39c3.35-.62,6.3-2.49,9.14-4.33,2.16-1.39,4.32-2.78,6.33-4.36,4.64-3.65,8.64-8.39,14.27-10.33,4.66-1.61-2.59-3.49-4.07-3.67A29.5,29.5,0,0,0,343.83,1085.42Z" style="fill:#efe7df"/><path d="M356.77,1083.4a3.42,3.42,0,0,0-2.81.61,3.29,3.29,0,0,0-.6,2.37,4.72,4.72,0,0,0,.88,3.22,3.38,3.38,0,0,0,3,.89,9.87,9.87,0,0,0,3-1.13c1.42-.71,6-2.16,4.57-4.41C363.71,1083.19,358.54,1083.55,356.77,1083.4Z" style="fill:#1f751a"/><path d="M384.12,1080.68a35.05,35.05,0,0,1,11.77-.81,8.46,8.46,0,0,1,3.51,1c2.22,1.34,2.94,4.23,3,6.82a4.55,4.55,0,0,1-.7,2.95c-1.1,1.39-3.21,1.26-5,1l-23.6-3.54a5.78,5.78,0,0,1-3.05-1.07c-3-2.61,3.57-3.19,4.64-3.48C377.88,1082.67,380.94,1081.45,384.12,1080.68Z" style="fill:#efe7df"/><path d="M368.54,1083.6a5.86,5.86,0,0,0-2.23.88,2,2,0,0,0-.76,2.12,2.64,2.64,0,0,0,1.27,1.22,16.58,16.58,0,0,0,6.49,2.1,2.64,2.64,0,0,0,2.22-.48,2.3,2.3,0,0,0,.57-1.22,5.2,5.2,0,0,0-.52-3.75C373.94,1081.76,371,1083,368.54,1083.6Z" style="fill:#1f751a"/><path d="M349.42,1104.85c-1,.36-2.07.75-3.08,1.18a96.7,96.7,0,0,1-11.91,4.59c-3.57,1-6.81,2.71-10.54,3.43a7.45,7.45,0,0,0-2.23.63c-2,1.12-1.68,3.7-.62,5.46a7.6,7.6,0,0,0,3,3,5.36,5.36,0,0,0,4.53.26,5.85,5.85,0,0,0-.47,8.06c2,2.31,6.06,3.17,9.28,2,2.57-1,4.37-2.92,6.09-4.79a215.38,215.38,0,0,1,16.31-15.92c2.15-1.9,8.07-7.75,3.87-10.25-1.86-1.1-6.25.27-8.29.71A53.27,53.27,0,0,0,349.42,1104.85Z" style="fill:#efe7df"/><path d="M357.61,1101.08a8.18,8.18,0,0,0-3.54,1.67A3.08,3.08,0,0,0,353,1106c.4,1.1,1.6,1.82,2.42,2.72s1.46,2.37,2.72,3.07a5,5,0,0,0,4.19,0,10,10,0,0,0,3.32-2.48,28,28,0,0,0,3.09-3.85,3.37,3.37,0,0,0,.62-1.35,2.43,2.43,0,0,0-1.41-2.29C365.42,1100.36,360.42,1100.37,357.61,1101.08Z" style="fill:#1f751a"/><path d="M380.56,1102.19c-1.35-.1-3-.08-3.7,1-.94,1.42.34,3.26,1.62,4.39,4.83,4.25,10.84,6.9,16.87,9.16,2,.75,4.15,1.47,6.26,1.1s4.12-2.26,3.83-4.39a10.93,10.93,0,0,0,5.87-.59,5.47,5.47,0,0,0,3.38-4.55c.19-5.71-10.32-4.4-13.81-4.66Z" style="fill:#efe7df"/><path d="M372.38,1101.73a5.18,5.18,0,0,0-1.85.57,1.92,1.92,0,0,0-1,1.58,2.37,2.37,0,0,0,.4,1.1,7.63,7.63,0,0,0,4,3,22.82,22.82,0,0,0,4.95,1,8.07,8.07,0,0,0,4.53-.37,6.13,6.13,0,0,0,2.72-3.53C387.89,1100.09,374.42,1101.41,372.38,1101.73Z" style="fill:#1f751a"/><path d="M333.28,1136.05c-2.34.08-4.81.14-6.9-.92a113.92,113.92,0,0,1,16.4-8.45c4.89-2,10.06-3.77,15.36-3.58,7.91.27,18.1,6.44,20,14.71,1.47,6.52-6.18,1.89-9.42,1a86,86,0,0,0-16.26-2.59A182.57,182.57,0,0,0,333.28,1136.05Z" style="fill:#35822f"/><path d="M414.57,1114.81c-5.56-1.29-11.26-2.35-16.94-1.81s-11.4,2.88-15,7.34a25.16,25.16,0,0,0-3.68,6.92,26.22,26.22,0,0,0-1.81,7.63c-.18,3.43-.1,11.78,5,7.81,3.54-2.75,6.14-7.54,9.33-10.78A91.82,91.82,0,0,1,414.57,1114.81Z" style="fill:#1f751a"/><path d="M360.66,1145.43q-7-.09-14,.46c-3.83.3-7.77.77-11.13,2.63a4.71,4.71,0,0,0-2,1.84,5.29,5.29,0,0,0,.17,3.94c1.31,4,.08,4.16-1.24,7.92a3.92,3.92,0,0,0-.21,2.56,3.08,3.08,0,0,0,2.63,1.82,8.94,8.94,0,0,0,3.31-.49c11.24-3.19,22-7,33-11.15a14.82,14.82,0,0,0,4.56-2.34c1.43-1.21,2.87-4.18,1.28-5.81s-7.42-1-9.54-1.15C365.2,1145.53,362.93,1145.46,360.66,1145.43Z" style="fill:#efe7df"/><path d="M367.66,1143.87c-.87.12-2,.58-1.89,1.46a2.53,2.53,0,0,0,.65,1.17c1.44,2,.42,4.78.42,7.25a2.16,2.16,0,0,0,.17,1,1.87,1.87,0,0,0,.92.81c2.37,1.15,5.14-.19,7.39-1.57,1.12-.68,2.24-1.39,3.34-2.11a6.17,6.17,0,0,0,2.25-2.08C383.57,1144.78,370.31,1143.5,367.66,1143.87Z" style="fill:#1f751a"/><path d="M395.34,1140.76c10.73-.66,21.49-1.32,32.22-.75a3.06,3.06,0,0,1,2.18.71,2.77,2.77,0,0,1,.39,2.41,15.56,15.56,0,0,1-12.54,12.38c-8.09,1.3-15.34-3.77-22.8-5.94-2.5-.74-8.42-.26-8.35-3.75C386.53,1141.72,392.43,1140.93,395.34,1140.76Z" style="fill:#efe7df"/><path d="M382.56,1144.08c-1.15.74-2.34,2-2,3.27s1.87,1.74,3.17,2l6.92,1.37a3.92,3.92,0,0,0,1.4.12,3.05,3.05,0,0,0,1.21-.53,5.7,5.7,0,0,0,2.17-6.53C393.17,1137.88,386,1141.87,382.56,1144.08Z" style="fill:#1f751a"/><path d="M366.49,1167.6q-7,.54-13.87,1.71c-5.85,1-11.18,3.78-16.36,6.64a5.68,5.68,0,0,0-2.57,2.26c-.78,1.65.14,3.59,0,5.41-.19,2-1.69,3.79-1.39,5.76a5.06,5.06,0,0,0,3,3.43c4.88,2.42,10.75.69,15.71-1.54a87,87,0,0,0,24.52-16.54c2-1.92,4.49-5.53.57-7.11a8.64,8.64,0,0,0-3.55-.37C370.5,1167.32,368.49,1167.44,366.49,1167.6Z" style="fill:#efe7df"/><path d="M368.94,1167.39c-.91,2,1,5,2.45,7.5a4.23,4.23,0,0,0,1.25,1.55c1.49.94,3.37-.24,4.7-1.4a29.53,29.53,0,0,0,5.54-5.85c2.38-3.61-9-3.93-10.63-3.67C370.35,1165.82,369.36,1166.49,368.94,1167.39Z" style="fill:#1f751a"/><path d="M423.7,1159.06c6.44,1.24,11.19,6.57,15.42,11.59.82,1,1.7,2.12,1.5,3.37-.28,1.77-2.41,2.5-4.19,2.65-6.05.51-12-1.56-18-2.39-9.3-1.29-21.54,1-29.55-5,1-2.76,4.94-1.92,7.28-2.4a46.78,46.78,0,0,0,9.42-3.42C411.23,1161,417.31,1157.83,423.7,1159.06Z" style="fill:#efe7df"/><path d="M389.26,1165.47a8,8,0,0,0-2.64.38,2.7,2.7,0,0,0-1.76,1.87c-.3,1.5,1.11,2.76,2.42,3.57a37.13,37.13,0,0,0,9.07,4.06,3.19,3.19,0,0,0,2.82-.12A2.64,2.64,0,0,0,400,1174c.9-2.39.44-6.37-1.79-8S391.9,1165.38,389.26,1165.47Z" style="fill:#1f751a"/><path d="M354.67,1198.32c-11.64.4-24,.11-33.84-6.18a398.24,398.24,0,0,1,39.88-6.68c4.42-.51,9-1,13.27.15a19.35,19.35,0,0,1,9.85,6.25c1.94,2.28,6.09,8,1.82,8.54-1.93.26-5.31-1.36-7.36-1.67a71.15,71.15,0,0,0-7.57-.66C365.37,1197.86,360,1198.14,354.67,1198.32Z" style="fill:#35822f"/><path d="M414.88,1187.34c5.09-1,10.48-1.29,15.06-3.58,4.28-2.15,7.37-5.82,10.34-9.4l7.34-8.84c-8.28-.85-14.77,6.39-22.69,8.78-7,2.12-14.92.27-22,2.27a19.36,19.36,0,0,0-10.28,7.23c-1.84,2.53-5.09,8.79-3.21,11.9,2.24,3.71,7.41-1,9.89-2.42A49.68,49.68,0,0,1,414.88,1187.34Z" style="fill:#1f751a"/></g><g id="penstemon-2"><path d="M454.56,1219.67c1.91-7.48,2-15.28,2.24-23a1094.33,1094.33,0,0,1,13.72-146c.37-2.27,2.15-9.48.26-11.25-4.37-4.1-6.3,7.23-6.76,9.64q-5.31,27.7-9.09,55.69a1061,1061,0,0,0-9.16,111.2c-.08,2.71.15,6,2.53,7.29S453.89,1222.31,454.56,1219.67Z" style="fill:#1f751a"/><path d="M476.81,1035.56a16.52,16.52,0,0,0,3.82-8.31,18.62,18.62,0,0,0-1.51-8.29c-1.05-2.8-2.39-5.63-4.72-7.51-2.16-1.74-5.61-2.36-7.57-.39a6.61,6.61,0,0,0-1.54,3.12c-1.07,4.11-.86,8.43-.41,12.65q.6,5.54,1.72,11C468.31,1046.08,474,1039.11,476.81,1035.56Z" style="fill:#fff8fa"/><path d="M474.15,1039.88a3.43,3.43,0,0,0,1-2.5,4,4,0,0,0-1.87-2.53c-1.65-1.23-3.65-2.25-5.69-2a2.82,2.82,0,0,0-1.73.78,3.24,3.24,0,0,0-.69,1.57c-.41,2-.13,5.85,2,7S472.76,1041.49,474.15,1039.88Z" style="fill:#1f751a"/><path d="M487.43,1037.1c3.39-1.09,6.93-2.11,10.45-1.6s7,3,7.54,6.5a5.06,5.06,0,0,1-.54,3.29c-1.3,2.24-4.25,2.77-6.83,3a106.21,106.21,0,0,1-12.23.44c-3-.08-9.4.41-11.93-1.41C468.32,1043.29,485,1037.86,487.43,1037.1Z" style="fill:#fff8fa"/><path d="M475.22,1040.48c1-.67,2.23-1.3,3.26-.73a3.4,3.4,0,0,1,1.28,2.07l.8,2.54c.45,1.43.83,3.2-.23,4.27a3.84,3.84,0,0,1-3.2.69c-1.65-.19-8.35-1-8.52-3C468.48,1044.73,474.1,1041.24,475.22,1040.48Z" style="fill:#1f751a"/><path d="M444.51,1033.76c-2.2-1.56-4.75-3.2-7.38-2.65a2.39,2.39,0,0,0-1.33.67,3.12,3.12,0,0,0-.58,1.77c-.31,2.66-.58,5.52.72,7.86,1.44,2.62,4.44,3.9,7.22,5,2.29.88,20,6.43,19,.07-.35-2.17-6.39-4.9-8-6Q449.3,1037.14,444.51,1033.76Z" style="fill:#fff8fa"/><path d="M465.75,1046.41c.76.54,1.61,1.51,1.06,2.27a1.61,1.61,0,0,1-.68.49,15.56,15.56,0,0,1-7,1.54,2.63,2.63,0,0,1-1.3-.25,2.74,2.74,0,0,1-1.13-2.14c-.27-2,.17-5.54,2.73-5.84C461.35,1042.26,464.28,1045.35,465.75,1046.41Z" style="fill:#1f751a"/><path d="M491.9,1056.45a102.7,102.7,0,0,1,13.39,3.55c3.77,1.27,7.77,3,9.59,6.47s1,7.66-.07,11.44a4,4,0,0,1-.77,1.66,3.8,3.8,0,0,1-3.13.84c-4.17-.3-8-2.17-11.71-4-2.81-1.39-5.63-2.79-8.3-4.43-6.14-3.8-11.65-9-18.76-10.6-5.89-1.32,2.66-4.61,4.44-5A35.82,35.82,0,0,1,491.9,1056.45Z" style="fill:#fff8fa"/><path d="M475.88,1055.77c1.2-.24,2.58-.42,3.51.36a4,4,0,0,1,1.06,2.79,5.88,5.88,0,0,1-.64,4,4.12,4.12,0,0,1-3.51,1.5,12.61,12.61,0,0,1-3.83-1c-1.82-.68-7.56-1.81-6.16-4.75C467.41,1056.46,473.76,1056.19,475.88,1055.77Z" style="fill:#1f751a"/><path d="M442.26,1056.22a42.93,42.93,0,0,0-14.43.63,10.28,10.28,0,0,0-4.13,1.64c-2.51,1.93-3,5.54-2.7,8.7a5.55,5.55,0,0,0,1.26,3.48c1.52,1.55,4.07,1.1,6.17.54l28.22-7.54a7.08,7.08,0,0,0,3.56-1.72c3.29-3.59-4.78-3.4-6.13-3.59C450.12,1057.78,446.24,1056.72,442.26,1056.22Z" style="fill:#fff8fa"/><path d="M461.61,1057.62a7.18,7.18,0,0,1,2.82.77,2.4,2.4,0,0,1,1.22,2.47,3.26,3.26,0,0,1-1.38,1.67,20.47,20.47,0,0,1-7.6,3.44,3.28,3.28,0,0,1-2.77-.28,2.94,2.94,0,0,1-.86-1.41,6.35,6.35,0,0,1,.12-4.62C454.79,1056.14,458.56,1057.24,461.61,1057.62Z" style="fill:#1f751a"/><path d="M487.77,1080.84c1.32.3,2.62.63,3.9,1,5.09,1.5,9.8,3.11,15.12,4,4.47.71,8.65,2.36,13.28,2.72a9.23,9.23,0,0,1,2.8.47c2.63,1.08,2.55,4.26,1.5,6.55a9.34,9.34,0,0,1-3.19,4,6.57,6.57,0,0,1-5.48.93,7.18,7.18,0,0,1,1.68,9.75c-2.13,3.07-6.93,4.68-11,3.68-3.26-.79-5.72-3-8.07-5a262.26,262.26,0,0,0-22-17.13c-2.88-2-10.88-8.31-6.11-11.92,2.11-1.6,7.64-.54,10.18-.27A63.22,63.22,0,0,1,487.77,1080.84Z" style="fill:#fff8fa"/><path d="M477.29,1077.38a10.11,10.11,0,0,1,4.54,1.55,3.77,3.77,0,0,1,1.75,3.75c-.34,1.4-1.69,2.43-2.57,3.65s-1.44,3.07-2.89,4.1a6.13,6.13,0,0,1-5.09.58,12.43,12.43,0,0,1-4.38-2.57,33.14,33.14,0,0,1-4.28-4.26,4.2,4.2,0,0,1-.95-1.55,3,3,0,0,1,1.41-3C467.7,1077.58,473.78,1076.91,477.29,1077.38Z" style="fill:#1f751a"/><path d="M449.54,1081.88c1.62-.31,3.58-.5,4.64.77,1.34,1.6,0,4-1.37,5.56-5.29,5.83-12.23,9.88-19.25,13.45-2.34,1.19-4.84,2.37-7.46,2.2s-5.31-2.19-5.26-4.81a13.42,13.42,0,0,1-7.22.09,6.71,6.71,0,0,1-4.73-5.07c-1-6.92,11.94-6.77,16.15-7.56Z" style="fill:#fff8fa"/><path d="M459.42,1080.21a6.14,6.14,0,0,1,2.33.43,2.28,2.28,0,0,1,1.4,1.78,2.78,2.78,0,0,1-.33,1.4,9.29,9.29,0,0,1-4.42,4.15,27.43,27.43,0,0,1-5.89,1.85c-1.84.42-3.8.83-5.56.17a7.45,7.45,0,0,1-3.79-3.92C440.34,1080.34,456.9,1080.09,459.42,1080.21Z" style="fill:#1f751a"/><path d="M511.67,1116.56c2.87-.23,5.87-.48,8.27-2.06a139.27,139.27,0,0,0-21.1-8c-6.23-1.81-12.75-3.2-19.17-2.25-9.58,1.43-21.12,10.33-22.26,20.63-.9,8.14,7.77,1.45,11.59-.06a105.3,105.3,0,0,1,19.42-5.38A227,227,0,0,1,511.67,1116.56Z" style="fill:#1f751a"/><path d="M409.92,1101.89c6.58-2.33,13.37-4.4,20.35-4.52s14.26,1.94,19.2,6.88a30.56,30.56,0,0,1,5.42,7.9,31.92,31.92,0,0,1,3.25,9c.69,4.14,1.74,14.3-5,10.18-4.68-2.86-8.51-8.33-12.82-11.83A112.92,112.92,0,0,0,409.92,1101.89Z" style="fill:#35822f"/><path d="M479.67,1131.73q8.49-1.07,17.05-1.36c4.7-.17,9.55-.13,13.89,1.67a5.76,5.76,0,0,1,2.72,2c.91,1.38.68,3.19.34,4.81-1,5,.48,5.08,2.6,9.47a4.79,4.79,0,0,1,.6,3.07,3.74,3.74,0,0,1-3,2.57,10.65,10.65,0,0,1-4.09-.14c-14.1-2.33-27.74-5.54-41.63-9a18.35,18.35,0,0,1-5.87-2.21c-1.9-1.28-4.06-4.69-2.34-6.9s8.87-2.26,11.43-2.7C474.16,1132.48,476.91,1132.07,479.67,1131.73Z" style="fill:#fff8fa"/><path d="M471,1130.79c1.07,0,2.45.44,2.49,1.51a2.91,2.91,0,0,1-.63,1.52c-1.47,2.65.15,5.87.49,8.88a2.56,2.56,0,0,1-.07,1.2,2.29,2.29,0,0,1-1,1.12c-2.72,1.72-6.28.47-9.2-.89q-2.19-1-4.36-2.11a7.71,7.71,0,0,1-3-2.23C451.73,1134.08,467.68,1130.71,471,1130.79Z" style="fill:#1f751a"/><path d="M436.86,1130.8c-13.13.68-26.3,1.36-39.28,3.52a3.74,3.74,0,0,0-2.55,1.16,3.46,3.46,0,0,0-.14,3,19.06,19.06,0,0,0,16.94,13.33c10,.46,18.15-6.69,26.91-10.36,2.94-1.23,10.2-1.47,9.63-5.69C447.7,1130.77,440.43,1130.62,436.86,1130.8Z" style="fill:#fff8fa"/><path d="M452.86,1133.09c1.5.75,3.11,2.05,2.86,3.7s-2,2.37-3.57,2.86l-8.23,2.63a4.7,4.7,0,0,1-1.69.33,3.56,3.56,0,0,1-1.54-.48,7,7,0,0,1-3.53-7.64C439.11,1127,448.41,1130.88,452.86,1133.09Z" style="fill:#1f751a"/><path d="M475.62,1159.48q8.56-.3,17.11.18c7.24.4,14.11,3,20.8,5.83a7,7,0,0,1,3.44,2.39c1.17,1.9.32,4.39.79,6.57.5,2.39,2.58,4.38,2.47,6.81-.08,1.93-1.54,3.54-3.16,4.59-5.6,3.61-13,2.31-19.31.28a106.15,106.15,0,0,1-32.08-16.74c-2.7-2.06-6.22-6.11-1.67-8.57a10.63,10.63,0,0,1,4.26-.94C470.72,1159.7,473.17,1159.56,475.62,1159.48Z" style="fill:#fff8fa"/><path d="M472.61,1159.56c1.38,2.27-.55,6.25-1.94,9.45a5,5,0,0,1-1.31,2.06c-1.68,1.35-4.13.17-5.9-1a36,36,0,0,1-7.54-6.36c-3.39-4.06,10.39-6,12.42-5.91C470.69,1157.85,472,1158.53,472.61,1159.56Z" style="fill:#1f751a"/><path d="M404.9,1157c-7.67,2.39-12.71,9.52-17.17,16.2-.86,1.3-1.77,2.81-1.35,4.31.58,2.1,3.27,2.7,5.45,2.64,7.43-.21,14.36-3.54,21.56-5.38,11.13-2.84,26.33-1.74,35.25-10.11-1.58-3.23-6.27-1.66-9.18-1.93a56.75,56.75,0,0,1-11.92-2.86C420.31,1157.53,412.49,1154.59,404.9,1157Z" style="fill:#fff8fa"/><path d="M447.65,1160a9.9,9.9,0,0,1,3.26.1,3.35,3.35,0,0,1,2.4,2c.57,1.78-1,3.51-2.45,4.67a45.45,45.45,0,0,1-10.47,6.18c-1.11.47-2.43.87-3.45.25a3.19,3.19,0,0,1-1.13-1.38c-1.42-2.78-1.41-7.68,1.07-10S444.42,1160.28,447.65,1160Z" style="fill:#1f751a"/><path d="M494.21,1195.21c14.22-1.11,29.24-3.16,40.31-12.16a491.23,491.23,0,0,0-49.41-2.65c-5.44,0-11,.08-16.11,2a23.7,23.7,0,0,0-11.13,8.95c-2,3-6.3,10.54-1,10.64,2.38,0,6.27-2.39,8.72-3a85.63,85.63,0,0,1,9.12-1.85C481.14,1196.13,487.69,1195.73,494.21,1195.21Z" style="fill:#1f751a"/><path d="M422.79,1197.78c-6.33-.54-12.92-.13-18.8-2.29-5.5-2-9.77-6.06-13.87-10L380,1175.75c9.94-2.17,18.83,5.74,28.79,7.55,8.85,1.61,18.17-1.72,27.06-.25a23.74,23.74,0,0,1,13.49,7.37c2.58,2.83,7.39,10,5.54,14-2.21,4.81-9.15-.15-12.36-1.59A60.92,60.92,0,0,0,422.79,1197.78Z" style="fill:#35822f"/></g></svg>