<svg xmlns="http://www.w3.org/2000/svg" width="current" height="current" preserveAspectRatio="xMidYMid slice" viewBox="0 0 984.72 1200"><g id="Layer_29" data-name="Layer 29"><rect width="900" height="1200" style="fill:none"/></g><g id="philodendron-leaf-1"><path d="M738.65,794c6.31-6.83,6.19-17.46.5-24.71s-16.14-11-26-10.18a38.79,38.79,0,0,0-25.24,12.72c-5.44,6.08-8.92,13.68-15.77,18.52-12,8.46-30.64,6-42.19,14.92-9.07,7-10.85,18.75-12,29.39s-2.85,22.38-11.86,29.46c-4.86,3.83-11.37,5.82-15.84,10-4.92,4.6-6.66,11.2-7.3,17.52a67.33,67.33,0,0,0,.63,18.26,240.46,240.46,0,0,1,52.22-29.2c44.44-18.18,94.66-23.06,138.82-41.77,9.73-4.13,19.43-9.15,25.74-16.93s8.42-19,2.53-27c-5.74-7.83-17.24-10.67-27.74-10.64A75.45,75.45,0,0,0,738.65,794Z" style="fill:#12753a"/><path d="M806.31,805c-5-4.54-12.37-7-19.59-7-9.27,0-18.17,3.52-25.78,8.24-6.41,4-12.1,8.79-18.56,12.7a77.29,77.29,0,0,1-33,10.68c-12.06,1.08-25-.43-35.58,4.91-13.82,7-18.21,23.15-30.28,32.38-11,8.39-26.71,9.94-38.63,17.24-10,6.11-16.3,15.59-21.22,25.63a240.49,240.49,0,0,1,52.07-29.08c44.44-18.18,94.66-23.06,138.82-41.77,9.73-4.13,19.43-9.15,25.74-16.93A25.82,25.82,0,0,0,806.31,805Z" style="fill:#005422"/><path d="M759.88,811.74,758,811l-1-.36-1-.3-4-1.16c-1.33-.36-2.7-.62-4-.94l-2-.44-2.06-.35c-1.37-.21-2.74-.49-4.12-.65l-4.16-.48a150.45,150.45,0,0,0-16.72-.61c-2.79,0-5.57.19-8.35.4l-1.54.12c1.53-.56,3.07-1.11,4.63-1.63,2.75-1,5.53-1.89,8.31-2.82l4.18-1.39,4.12-1.5c-5.67,1.56-11.39,3-17.07,4.56-2.84.77-5.64,1.7-8.45,2.58-.34.1-.68.23-1,.34.71-2.19,1.57-4.38,2.49-6.52a86.6,86.6,0,0,1,3.88-7.85,81.54,81.54,0,0,1,4.69-7.5,82.41,82.41,0,0,1,5.58-7,66,66,0,0,0-6.16,6.7c-1,1.15-1.83,2.38-2.73,3.59s-1.69,2.48-2.45,3.75a77.14,77.14,0,0,0-4.25,7.83,68.5,68.5,0,0,0-3.09,7.76l-1.1.39c-1.38.51-2.79,1-4.14,1.52l-4.09,1.64-2,.83-2,.92c-2.65,1.24-5.35,2.39-7.9,3.79-1.79.95-3.61,1.87-5.38,2.86-.15-1.47-.26-3-.34-4.45-.12-2.07-.14-4.15-.12-6.23s.1-4.16.24-6.25.42-4.15.69-6.23a56.66,56.66,0,0,0-1.38,6.17,62.74,62.74,0,0,0-.76,6.27c-.16,2.1-.22,4.2-.22,6.31,0,1.79.1,3.57.25,5.37l-.62.37L669,822.6l-1.87,1.11-1.79,1.2c-2.26,1.57-4.56,3.08-6.78,4.68-2.59.16-5.15.38-7.7.68-2.91.34-5.8.75-8.67,1.26s-5.72,1.1-8.54,1.79-5.6,1.52-8.32,2.47c2.84-.62,5.65-1.26,8.51-1.73s5.72-.93,8.59-1.3,5.75-.7,8.63-1c1.71-.15,3.43-.29,5.14-.41L651.51,835c-1.16.85-2.17,1.84-3.25,2.75l-3.2,2.8c-1,.93-2.14,1.84-3.17,2.81l-3,3c-8.17,7.76-15.07,16.46-21.63,25.26,1.89-2.05,3.76-4.1,5.6-6.17l2.77-3.09.69-.77.74-.74,1.48-1.48,5.85-5.94c2-2,4.08-3.81,6.11-5.72,5.25-4.78,10.71-9.4,16.44-13.71-.62,1.53-1.15,3.09-1.64,4.66A57.28,57.28,0,0,0,653,856.81a64.25,64.25,0,0,0,.94,9.08l0-2.28c0-.76-.09-1.51-.06-2.27.05-1.51,0-3,.14-4.52l.13-2.26.24-2.24c.06-.75.15-1.5.28-2.24s.21-1.49.34-2.23a68.09,68.09,0,0,1,2.14-8.78,49.29,49.29,0,0,1,3-7.35c2.3-1.65,4.64-3.25,7-4.78q4.34-2.84,8.84-5.44c1.48-.13,3-.19,4.52-.21,2,0,4,.11,6,.3s4,.46,5.93.81l2.94.59,2.89.74a66.46,66.46,0,0,1,11.11,4.15c1.82.79,3.49,1.79,5.23,2.72.89.45,1.67,1,2.5,1.55l2.49,1.58c-1.52-1.2-3-2.47-4.63-3.57a50.76,50.76,0,0,0-5.05-3.13c-.88-.46-1.74-1-2.65-1.4l-2.76-1.23c-.91-.44-1.88-.74-2.83-1.1s-1.91-.71-2.9-1a60.94,60.94,0,0,0-19.57-2.65,199.29,199.29,0,0,1,18.22-8.89c1.88-.8,3.8-1.56,5.72-2.31,5.24-.64,10.58-1,15.89-1.1,5.51-.12,11,0,16.51.42a133,133,0,0,1,16.3,2.33,90.9,90.9,0,0,1,15.6,4.92A69.26,69.26,0,0,0,759.88,811.74Z" style="fill:#005422"/><path d="M868.51,868.41a26.75,26.75,0,0,0-3-29.93c-7.14-8.41-20.18-12.59-31.58-9.76-12.22,3-20.55,12.93-24.87,23.07-2.4,5.64-3.65,12.06-7.51,17.11-4.57,6-11.69,7.53-18.12,11.38C775.58,885,770.2,892.72,769,901s.77,17.45-1.36,25.81c-2.75,10.79-12.86,13.92-20.2,21.73A24.78,24.78,0,0,0,741,970.33c2.87,13.95,14,26.3,7.21,40.75-7.18,15.24-6.77,38.43,3.61,49.14,8.24-9.37,22.88-14.38,26.35-14.88,14.57-2.11,25.86-6.06,33.06-19.09,2.36-4.27,3.16-9.08,5-13.56,4-9.9,13.52-17.33,24.38-21.12,11.79-4.1,25-1.44,36.36-6.82a25.45,25.45,0,0,0,12.79-13.22c3.65-9.17,1-20,6.56-28.39,6.57-9.88,15.84-14.45,27.06-20.08,31-15.54,28.12-56.5-3.56-66.91C907.07,852,876.28,854.1,868.51,868.41Z" style="fill:#0d6330"/><path d="M868.46,903.72a115.79,115.79,0,0,0-17.27-.49,99.82,99.82,0,0,0-14,1.6c2.58-3.66,5.21-7.3,7.94-10.87,1.55-2.05,3.15-4.06,4.78-6.06l.85-.41c1.16-.56,2.26-1.17,3.47-1.66l1.78-.77,1.83-.7c2.42-.94,4.93-1.74,7.45-2.48a124.79,124.79,0,0,1,15.5-3.41,111.4,111.4,0,0,1,15.92-1.36,77.91,77.91,0,0,1,16,1.36A65.12,65.12,0,0,0,896.72,876a99.06,99.06,0,0,0-16.24.75,109.46,109.46,0,0,0-15.9,3.2,85.66,85.66,0,0,0-11.37,4l.46-.51c.61-.68,1.19-1.38,1.84-2s1.25-1.33,1.9-2l2-1.89a69.16,69.16,0,0,0-8.39,7.33l-.18.19-.14.07c-.62-1.35-1.2-2.73-1.69-4.15l-.48-1.32-.44-1.35c-.3-.89-.56-1.8-.8-2.71a90.64,90.64,0,0,1-2.33-11,82.83,82.83,0,0,1-.93-11.23,54.74,54.74,0,0,1,1-11.26,45.28,45.28,0,0,0-2,11.24,71.44,71.44,0,0,0,.26,11.42,79.54,79.54,0,0,0,2,11.3,57.37,57.37,0,0,0,3.8,10.88l-1.81,2c-1.26,1.34-2.45,2.72-3.67,4.09-3.35,3.88-6.56,7.84-9.67,11.87a73.51,73.51,0,0,1-20.68-22.56,71.12,71.12,0,0,1-4.59-9.46,53.47,53.47,0,0,0,3.72,9.83,61.15,61.15,0,0,0,5.55,9.17,68.3,68.3,0,0,0,7.17,8.28,71.61,71.61,0,0,0,7.54,6.41q-1.33,1.75-2.66,3.52c-3,4-5.94,8.13-8.8,12.26-4.36.18-8.81.28-13.24.85a72.32,72.32,0,0,0-14.22,3.34c-1.13.41-2.29.78-3.4,1.22L786.94,929c-2.18,1-4.38,1.91-6.49,3-4.27,2.07-8.38,4.37-12.41,6.77,4.3-2,8.55-4,12.94-5.84A125.64,125.64,0,0,1,794.3,928a76.65,76.65,0,0,1,13.9-2.9c3.77-.45,7.58-.56,11.45-.69l-2.25,3.28q-6,9-11.76,18.09c-3.77,6.11-7.48,12.25-11.06,18.44-.06.1-.11.2-.17.29A55.71,55.71,0,0,0,784,969.45a69.37,69.37,0,0,0-10.22,7.49,65.28,65.28,0,0,0-8.48,9A49,49,0,0,0,759,996.19a69.63,69.63,0,0,1,16-18.07,78.23,78.23,0,0,1,10.18-7,62.41,62.41,0,0,1,7.62-3.72c-2.93,5.17-5.82,10.37-8.54,15.63q-5,9.47-9.44,19.15a206.09,206.09,0,0,0-7.9,19.68c3-6.42,6.27-12.73,9.68-19s6.88-12.46,10.43-18.64q3.63-6.26,7.29-12.48c-.12,1.77-.2,3.55-.22,5.33a109.1,109.1,0,0,0,.58,12.13c.41,4,1,8,1.77,12s1.62,7.93,2.6,11.86c-.45-4-1-8-1.43-12s-.84-8-1.08-12-.34-8-.19-12a99.3,99.3,0,0,1,.78-10.05l.77-1.27c3.67-6.12,7.39-12.23,11.2-18.28s7.62-12.11,11.52-18.11c.28-.45.57-.88.86-1.32a65.08,65.08,0,0,0,1,8,78.26,78.26,0,0,0,3.41,12.42,90.76,90.76,0,0,0,5.29,11.85,83,83,0,0,0,7.06,11A111.8,111.8,0,0,1,827.6,948a87.88,87.88,0,0,1-3-12.26,66.77,66.77,0,0,1-.94-11.09c2.91-4.41,5.87-8.79,8.84-13.17q1.46-2.12,2.93-4.21a106.25,106.25,0,0,1,15.86-2,129.08,129.08,0,0,1,16.92.23,105.07,105.07,0,0,1,16.68,2.6,68.33,68.33,0,0,1,15.69,5.78,57.14,57.14,0,0,0-15.3-6.9A93,93,0,0,0,868.46,903.72Z" style="fill:#005422"/></g><g id="philodendron-leaf-2"><path d="M881.9,743.58a25.12,25.12,0,0,1,7.25-27c7.78-6.84,20.33-9.12,30.34-5.19,10.72,4.21,16.87,14.26,19.31,24,1.35,5.44,1.54,11.46,4.32,16.54,3.28,6,9.56,8.26,14.87,12.55a26.33,26.33,0,0,1,10,20.67c-.14,7.67-3.31,15.87-2.6,23.78.9,10.18,9.68,14.25,15.23,22.26a22.47,22.47,0,0,1,2.65,20.66c-4.71,12.42-16.75,22.4-12.67,36.42,4.29,14.78.46,36-10.63,44.52-6.15-9.54-18.78-15.86-21.89-16.73-13-3.65-22.75-8.6-27.39-21.37-1.52-4.18-1.53-8.68-2.54-13-2.22-9.54-9.78-17.45-19.15-22.2-10.17-5.15-22.65-4.28-32.23-10.54a22.41,22.41,0,0,1-9.73-13.6c-2-8.82,2.07-18.43-1.78-26.75-4.53-9.81-12.32-15.09-21.75-21.56-26-17.89-17.29-55,13.23-60.79C849.09,724,876.92,729.57,881.9,743.58Z" style="fill:#12753a"/><path d="M876.68,775.89a103.82,103.82,0,0,1,15.86,1.59,90,90,0,0,1,12.58,3.12c-1.81-3.66-3.68-7.29-5.64-10.88-1.12-2.06-2.28-4.09-3.47-6.11l-.72-.48c-1-.64-1.89-1.34-2.92-1.93l-1.52-.91-1.56-.85c-2.08-1.15-4.25-2.18-6.45-3.16a110.68,110.68,0,0,0-13.67-4.95,102.15,102.15,0,0,0-14.35-3.13,71.8,71.8,0,0,0-14.81-.64,60.77,60.77,0,0,1,15-.39,91.44,91.44,0,0,1,14.75,2.6,100,100,0,0,1,14.06,4.81,74.75,74.75,0,0,1,9.8,5l-.34-.53c-.46-.69-.88-1.4-1.38-2.07s-1-1.36-1.44-2l-1.56-2a62.19,62.19,0,0,1,6.57,7.7l.14.2.12.08c.77-1.17,1.5-2.36,2.16-3.59l.64-1.16.59-1.18c.41-.79.79-1.58,1.15-2.38a90.11,90.11,0,0,0,3.78-9.83,79.34,79.34,0,0,0,2.52-10.16,50.37,50.37,0,0,0,.79-10.41,41.6,41.6,0,0,1,.16,10.52,65.32,65.32,0,0,1-1.94,10.41A74.6,74.6,0,0,1,902,753.31a54.82,54.82,0,0,1-5.09,9.5l1.36,2c1,1.38,1.84,2.78,2.75,4.18q3.72,5.91,7.07,12a71.2,71.2,0,0,0,22.28-18.19,67.7,67.7,0,0,0,5.61-8.11,51.94,51.94,0,0,1-4.87,8.55,59.59,59.59,0,0,1-6.44,7.73,66.26,66.26,0,0,1-7.79,6.73,70.48,70.48,0,0,1-7.86,5c.64,1.17,1.28,2.35,1.91,3.53,2.17,4,4.22,8.14,6.22,12.25,4,.69,8,1.3,12,2.35a64.57,64.57,0,0,1,12.5,4.74c1,.5,2,1,2.93,1.51l2.86,1.61c1.85,1.15,3.72,2.26,5.49,3.49,3.6,2.4,7,5,10.34,7.66-3.64-2.33-7.22-4.71-11-6.88a112.73,112.73,0,0,0-11.46-6,69,69,0,0,0-12.28-4.3c-3.37-.85-6.85-1.41-10.37-2,.53,1.09,1,2.17,1.57,3.26,2.8,5.94,5.47,11.93,8.07,17.94s5,12.09,7.36,18.18c0,.09.07.19.11.28a48.75,48.75,0,0,1,8.83,5.75,60.88,60.88,0,0,1,8.23,8,58.22,58.22,0,0,1,6.43,9.22A43.39,43.39,0,0,1,963,873.41,61.22,61.22,0,0,0,951.07,855a68,68,0,0,0-8.26-7.62,54.72,54.72,0,0,0-6.41-4.3c1.91,5.08,3.77,10.17,5.48,15.3q3.15,9.25,5.77,18.63a177.94,177.94,0,0,1,4.29,18.94c-1.81-6.23-3.83-12.39-6-18.51s-4.44-12.21-6.76-18.28c-1.6-4.09-3.19-8.19-4.82-12.28-.15,1.64-.34,3.28-.58,4.9a101.76,101.76,0,0,1-2.35,11c-1,3.63-2.14,7.22-3.41,10.77s-2.66,7.06-4.15,10.54c1-3.61,2.11-7.2,3.11-10.81s1.95-7.21,2.77-10.83,1.5-7.27,2-10.94a90.67,90.67,0,0,0,.78-9.29c-.17-.42-.33-.83-.51-1.25q-3.66-9-7.51-18c-2.52-6-5.17-12-7.84-17.93l-.59-1.31a61.93,61.93,0,0,1-2.07,7.18,73.91,73.91,0,0,1-5,11,87.19,87.19,0,0,1-6.6,10.22,80.62,80.62,0,0,1-8.1,9.27,108.35,108.35,0,0,0,13.17-20.13A84,84,0,0,0,912,810.35a61.84,61.84,0,0,0,2.51-10q-3-6.57-6.12-13.09-1-2.1-2-4.2a98.1,98.1,0,0,0-14.21-3.68,120.14,120.14,0,0,0-15.51-1.79A98.53,98.53,0,0,0,861,778a64.86,64.86,0,0,0-15.21,3.43,54.71,54.71,0,0,1,15-4.5A87.13,87.13,0,0,1,876.68,775.89Z" style="fill:#005422"/></g><g id="philodendron-leaf-3"><path d="M838.78,796.2c9.09-9.6,11.85-23.78,6.38-35.36S826,741,811.91,741.3c-15.1.29-28,9.54-36.33,20.13-4.64,5.87-8.21,13-14.33,17.78-7.24,5.7-16,5.63-24.68,8.39C726,791,717.24,798.51,713.12,807.78s-4.87,20.36-10.1,29.46c-6.74,11.72-19.45,12.69-30.5,19.79-8.41,5.4-13.92,14.22-14.63,23.43-1.29,16.86,7.51,34-5.14,48.95-13.33,15.7-20.51,42.59-12.08,57.67,12.62-8.65,31.17-10.6,35.36-10.27,17.51,1.38,31.85-.22,44.47-13.37,4.13-4.32,6.65-9.66,10.24-14.35,7.94-10.38,21.34-16.47,35.13-18,15-1.66,29.34,4.88,44.23,1.64a32.83,32.83,0,0,0,19.14-11.9c7.24-9.63,7.77-22.85,17-31.06,10.84-9.68,23.06-12.54,37.88-16.09,40.94-9.82,51.13-57.87,18-78.2C888.74,787.31,852.49,781.72,838.78,796.2Z" style="fill:#1b8c48"/><path d="M827.05,837a133.64,133.64,0,0,0-19.77-5.09A119.29,119.29,0,0,0,790.57,830c4.2-3.55,8.43-7,12.77-10.46,2.46-2,5-3.87,7.52-5.75l1.12-.25c1.51-.34,3-.76,4.55-1l2.31-.42,2.34-.33c3.11-.45,6.27-.72,9.43-.91a149,149,0,0,1,19,.13,132.41,132.41,0,0,1,18.83,2.59,90.59,90.59,0,0,1,18,5.76,74.28,74.28,0,0,0-17.59-7,116.7,116.7,0,0,0-19-3.4,132.35,132.35,0,0,0-19.41-.47A103.45,103.45,0,0,0,816,810.13l.7-.48c.93-.61,1.83-1.27,2.79-1.85s1.88-1.2,2.84-1.78l3-1.66a90.48,90.48,0,0,0-12.1,6.27l-.28.17-.19.05c-.26-1.73-.47-3.47-.57-5.23L812,804l-.06-1.67c-.05-1.11-.05-2.22,0-3.34a111,111,0,0,1,1-13.36,101.43,101.43,0,0,1,2.64-13.2,67.08,67.08,0,0,1,4.84-12.75,56.77,56.77,0,0,0-6,12.45,86.41,86.41,0,0,0-3.47,13.25,93.68,93.68,0,0,0-1.46,13.57,66.4,66.4,0,0,0,.79,13.55l-2.73,1.78c-1.9,1.22-3.73,2.5-5.59,3.76-5.15,3.6-10.17,7.34-15.09,11.17a78.81,78.81,0,0,1-6.49-8.83,80.43,80.43,0,0,1-5.86-11,78.58,78.58,0,0,1-4.07-11.66,81.67,81.67,0,0,1-2.18-12.12,62.33,62.33,0,0,0,1.05,12.32A68.6,68.6,0,0,0,772.61,810a75.28,75.28,0,0,0,5.54,11.44,78.42,78.42,0,0,0,6.59,9.37c-1.41,1.12-2.83,2.24-4.23,3.37C775.67,838,771,842,766.29,846c-5.1-.93-10.26-2-15.57-2.48a87.65,87.65,0,0,0-17.52.13c-1.44.17-2.89.29-4.33.51l-4.29.65c-2.84.56-5.68,1.06-8.48,1.74-5.61,1.27-11.12,2.85-16.56,4.57,5.62-1.18,11.21-2.44,16.87-3.36a157.34,157.34,0,0,1,17-2.16,92.88,92.88,0,0,1,17,.29c4.49.47,8.94,1.34,13.44,2.21q-1.85,1.59-3.68,3.19-9.95,8.76-19.56,17.81t-18.87,18.39l-.28.29a69.54,69.54,0,0,0-13.71,3,88.92,88.92,0,0,0-14.27,6,85.42,85.42,0,0,0-12.77,8.14,63.82,63.82,0,0,0-10.58,10.24,90.39,90.39,0,0,1,24.42-16.69,98.83,98.83,0,0,1,14.07-5.43,76.14,76.14,0,0,1,10-2.3c-5.09,5.2-10.14,10.44-15,15.8q-8.88,9.63-17.23,19.64a257.28,257.28,0,0,0-15.62,20.66c5.61-6.62,11.45-13.06,17.44-19.39s12.07-12.58,18.2-18.79c4.18-4.17,8.34-8.35,12.55-12.49-.73,2-1.41,4.05-2,6.09a131.78,131.78,0,0,0-3.34,14.17c-.86,4.76-1.46,9.54-1.92,14.33s-.75,9.58-.92,14.37c.8-4.74,1.49-9.5,2.31-14.23s1.68-9.45,2.72-14.12,2.25-9.32,3.74-13.88a120.21,120.21,0,0,1,4.23-11.41l1.3-1.27Q734.46,881,744,872c6.33-6.05,12.8-12,19.29-17.9l1.43-1.3a78.48,78.48,0,0,0-1.54,9.47,92.35,92.35,0,0,0-.16,15.24,103.68,103.68,0,0,0,2.2,15.07,91.51,91.51,0,0,0,4.49,14.6,127.08,127.08,0,0,1-4.5-29.76,103.36,103.36,0,0,1,.62-14.93,80.77,80.77,0,0,1,2.58-13.05c4.81-4.33,9.68-8.61,14.56-12.88l4.77-4.1a128.59,128.59,0,0,1,19,1.88,153.22,153.22,0,0,1,19.46,4.7,120.59,120.59,0,0,1,18.4,7.38,76,76,0,0,1,16.2,10.79,62.88,62.88,0,0,0-15.39-12A106.12,106.12,0,0,0,827.05,837Z" style="fill:#005422"/></g></svg>