<svg xmlns="http://www.w3.org/2000/svg" width="current" height="current" preserveAspectRatio="xMidYMid slice" viewBox="0 0 999.17 1289.03"><g id="Layer_29" data-name="Layer 29"><rect width="900" height="1200" style="fill:none"/></g><g id="philodendron-small-1"><path d="M756.51,1139c10.87,2.8,21.3,10.59,25.34,22.37s-.27,27.32-10.64,31.93c-5.39,2.4-11.42,1.71-17.17.88-31.15-4.49-55.8-7-93.53-3,5.15-19.08,15-35.81,27.1-50.1,11.52-13.57,27.29-31.67,43.67-36.93,8.42-2.7,18.38-1.21,24.4,6S763.75,1133.45,756.51,1139Z" style="fill:#5d8429"/><path d="M754,1194.21c5.75.83,11.78,1.52,17.17-.88,10.37-4.61,14.68-20.15,10.64-31.93a33.86,33.86,0,0,0-13.57-17.14L756.51,1139c-35.49,2.65-67.63,23.66-96,52.2C698.24,1187.21,722.89,1189.72,754,1194.21Z" style="fill:#517020"/><path d="M897.26,1100c-11.53,2.62-22.6,9.91-26.89,20.92s.28,25.57,11.29,29.88c5.72,2.24,12.12,1.59,18.22.82,33.07-4.2,59.23-6.55,99.29-2.79-5.47-17.85-15.89-33.5-28.77-46.87-12.23-12.69-29-29.63-46.35-34.55-8.94-2.52-19.51-1.13-25.91,5.6S889.58,1094.8,897.26,1100Z" style="fill:#5d8429"/><path d="M899.88,1151.64c-6.1.77-12.5,1.42-18.22-.82-11-4.31-15.58-18.86-11.29-29.88,2.67-6.87,8-12.28,14.4-16l12.49-4.89c37.68,2.48,71.8,22.13,101.91,48.83C959.11,1145.09,933,1147.44,899.88,1151.64Z" style="fill:#517020"/><path d="M858.71,1131.32c-11.21.22-23.16,5.39-29.81,15.92s-6,26.64,3,33.52c4.7,3.58,10.72,4.3,16.5,4.82,31.35,2.82,55.91,6.06,91.7,18.68-.61-19.75-6.3-38.29-14.8-55-8.08-15.87-19.25-37.12-34-46-7.57-4.57-17.61-5.42-25.13.19S853,1124.22,858.71,1131.32Z" style="fill:#5d8429"/><path d="M848.38,1185.58c-5.78-.52-11.8-1.24-16.5-4.82-9-6.88-9.63-23-3-33.52a33.85,33.85,0,0,1,17.16-13.55l12.65-2.37c33.93,10.77,60.36,38.62,81.37,72.94C904.29,1191.64,879.73,1188.4,848.38,1185.58Z" style="fill:#517020"/><path d="M832.27,1179.37c9.37-7.22,22-11.11,33.27-7.4s19.52,16.5,15.83,27.74c-1.92,5.84-6.49,10.36-11,14.57-24.3,22.81-42.78,41.48-65.39,74.75-10.28-15.58-15.7-33.59-17.8-52-2-17.51-4.39-41.2,2.89-57.74,3.75-8.5,11.55-15.76,20.82-16.4S833.14,1170.12,832.27,1179.37Z" style="fill:#6a9934"/><path d="M870.39,1214.28c4.49-4.21,9.06-8.73,11-14.57,3.69-11.24-4.61-24-15.83-27.74-7-2.31-14.57-1.67-21.54.89l-11.73,6.51C810.18,1210,803.6,1248.81,805,1289,827.61,1255.76,846.09,1237.09,870.39,1214.28Z" style="fill:#5d8429"/><path d="M828.11,1147.22c11.22.22,23.16,5.39,29.81,15.91s6.05,26.65-3,33.53c-4.69,3.58-10.72,4.29-16.5,4.81-31.35,2.83-55.91,6.07-91.7,18.69.61-19.75,6.3-38.29,14.81-55,8.07-15.86,19.24-37.11,34-46,7.56-4.57,17.6-5.43,25.12.19S833.86,1140.11,828.11,1147.22Z" style="fill:#5d8429"/><path d="M838.44,1201.47c5.78-.52,11.81-1.23,16.5-4.81,9-6.88,9.63-23,3-33.53a33.84,33.84,0,0,0-17.16-13.54l-12.65-2.37c-33.93,10.77-60.35,38.62-81.37,72.94C782.53,1207.54,807.09,1204.3,838.44,1201.47Z" style="fill:#517020"/><path d="M812.67,1043.07a31,31,0,0,0,4,29.13c6.74,9.6,20.46,16.3,29.08,12.67,4.48-1.89,7-6,9.24-10.09,12.25-22,22.72-38.69,44.6-59.59a134.09,134.09,0,0,0-50.82-13.43c-15.86-1.06-37.22-2.21-49.33,4.74-6.22,3.58-10.1,10.63-7.76,18.68S804.89,1044.18,812.67,1043.07Z" style="fill:#7caf46"/><path d="M854.94,1074.78c-2.26,4-4.76,8.2-9.24,10.09-8.62,3.63-22.34-3.07-29.08-12.67a32,32,0,0,1-6-18.7l2-10.43c19.73-20.33,51.44-27.54,86.87-27.88C877.66,1036.09,867.19,1052.83,854.94,1074.78Z" style="fill:#5d8429"/><path d="M815.58,1041.29c-.89,8.9-5.89,18.12-15,22.85s-22.27,3.43-27.35-4.1c-2.64-3.91-2.85-8.74-2.91-13.36-.34-25-1.46-44.72-9.57-73.8A108.5,108.5,0,0,1,805,987.49c12.52,7.24,29.27,17.21,35.65,29.37,3.28,6.24,3.35,14.26-1.74,19.94S821.05,1046.22,815.58,1041.29Z" style="fill:#6a9934"/><path d="M770.37,1046.68c.06,4.62.27,9.45,2.91,13.36,5.08,7.53,18.28,8.84,27.35,4.1a27.72,27.72,0,0,0,12.2-12.92l2.75-9.93c-6.7-27.51-27.92-49.94-54.78-68.41C768.91,1002,770,1021.64,770.37,1046.68Z" style="fill:#7caf46"/><path d="M752,1071.74c10.65,5.14,19.81,14.72,21.52,26.42s-6,24.85-17.7,26.58c-6.08.91-12.17-1.16-17.94-3.28-31.29-11.5-56.26-19.66-96.14-25,9.33-16.17,23-29.08,38.54-39.23,14.76-9.63,34.87-22.38,52.92-23.28,9.27-.46,19.26,3.26,24,11.26S760.69,1068.37,752,1071.74Z" style="fill:#5d8429"/><path d="M737.92,1121.46c5.77,2.12,11.86,4.19,17.94,3.28,11.7-1.73,19.41-14.88,17.7-26.58-1.07-7.3-5-13.77-10.45-18.85L752,1071.74c-37.28-6-74.93,5.48-110.26,24.75C681.66,1101.8,706.63,1110,737.92,1121.46Z" style="fill:#517020"/><path d="M795.74,1041.64c11.53,2.63,22.6,9.91,26.89,20.93s-.28,25.56-11.29,29.88c-5.72,2.24-12.12,1.59-18.22.81-33.07-4.19-59.23-6.55-99.29-2.78,5.47-17.85,15.89-33.5,28.77-46.87,12.23-12.7,29-29.63,46.35-34.55,8.94-2.53,19.51-1.14,25.91,5.59S803.42,1036.42,795.74,1041.64Z" style="fill:#6a9934"/><path d="M793.12,1093.26c6.1.78,12.5,1.43,18.22-.81,11-4.32,15.58-18.86,11.29-29.88-2.67-6.87-8-12.29-14.4-16l-12.49-4.9c-37.68,2.48-71.8,22.13-101.91,48.84C733.89,1086.72,760.05,1089.06,793.12,1093.26Z" style="fill:#5d8429"/><path d="M814.09,1103.7c11.81-.47,24.4,3.68,31.41,13.21s6.38,24.75-3.13,31.78c-4.94,3.66-11.29,4.69-17.38,5.53-33,4.55-58.9,9.09-96.59,23.15.63-18.66,6.63-36.48,15.58-52.74,8.5-15.44,20.26-36.15,35.76-45.42,8-4.77,18.54-6.18,26.47-1.34S820.14,1096.66,814.09,1103.7Z" style="fill:#6a9934"/><path d="M825,1154.22c6.09-.84,12.44-1.87,17.38-5.53,9.51-7,10.14-22.26,3.13-31.78-4.37-5.94-10.91-9.79-18.08-11.73l-13.33-1.48c-35.74,12.2-63.57,40-85.69,73.67C766.09,1163.31,792,1158.77,825,1154.22Z" style="fill:#8fc156"/><path d="M843.37,1063.79c-12.12-3.48-26.72-1.85-37.46,7.34s-15.59,26.86-8.24,37.31c3.82,5.44,10,8.22,16.08,10.7,32.7,13.48,58,25.16,92.1,50.73,6.09-21.6,6.31-43.58,2.88-64.51-3.26-19.87-8-46.6-20.77-61.14-6.57-7.47-17.06-11.73-27.05-8.15S839.62,1054.19,843.37,1063.79Z" style="fill:#8fc156"/><path d="M813.75,1119.14c-6-2.48-12.26-5.26-16.08-10.7-7.35-10.45-2.5-28.12,8.24-37.31a38.43,38.43,0,0,1,23.05-9l14.41,1.63c32.76,23,51.63,61.91,62.48,106.08C871.73,1144.3,846.45,1132.62,813.75,1119.14Z" style="fill:#7caf46"/></g><g id="philodendron-small-2"><path d="M586.45,1097.37c-1.69,9.83-10.35,17.77-19.71,18s-18.43-7.13-20.62-16.84c-1.43-6.37-.15-13,1-19.47a468.22,468.22,0,0,0,7.07-68.73c12.06,4.59,22.63,13,32.29,21.9,12.72,11.79,25.54,25.39,29,43,1.7,8.72.57,18.71-5.38,25S590.73,1105,586.45,1097.37Z" style="fill:#6a9934"/><path d="M547.11,1079.1c-1.14,6.44-2.42,13.1-1,19.47,2.19,9.71,11.26,17.12,20.62,16.84s18-8.21,19.71-18c-3.62-37.61-20.15-69.82-32.27-87A468.22,468.22,0,0,1,547.11,1079.1Z" style="fill:#5d8429"/><path d="M556.92,1090.79c11.31.42,21.33,8.31,22.79,17.93s-5.8,20-16.5,23.55c-7,2.33-14.69,1.91-22.1,1.58a581.45,581.45,0,0,0-78.49,1.92c3.7-13.06,11.85-25.1,20.78-36.28,11.75-14.72,25.54-29.77,45-35.68,9.63-2.92,21.06-3.1,28.83,2.22S565,1085.34,556.92,1090.79Z" style="fill:#8fc156"/><path d="M541.11,1133.85c7.41.33,15.09.75,22.1-1.58,10.7-3.57,18-13.92,16.5-23.55s-11.48-17.51-22.79-17.93c-42,8.78-76.38,30.17-94.3,45A581.45,581.45,0,0,1,541.11,1133.85Z" style="fill:#7caf46"/><path d="M609.69,1087.13c-7.26,8.69-8.1,21.41-1.92,28.94s18.72,9.06,28.53,3.49c6.43-3.65,11.25-9.64,16-15.36a579.9,579.9,0,0,1,53.94-57c-12.19-6-26.58-8-40.87-8.84-18.8-1.11-39.21-.94-56.62,9.57-8.62,5.21-16.39,13.58-17.64,22.91S600.22,1089.51,609.69,1087.13Z" style="fill:#7caf46"/><path d="M652.27,1104.2c-4.72,5.72-9.54,11.71-16,15.36-9.81,5.57-22.36,4-28.53-3.49s-5.34-20.25,1.92-28.94c34.65-25.36,73.52-36.58,96.52-40A579.9,579.9,0,0,0,652.27,1104.2Z" style="fill:#6a9934"/><path d="M648,1127.61c-9.67,2.19-17.14,11.63-17,21.46s7.93,19,17.67,20.89c6.38,1.22,12.93-.41,19.26-1.89a440.57,440.57,0,0,1,67.87-10.41c-5.11-12.45-13.89-23.17-23.22-32.91-12.28-12.83-26.36-25.68-44-28.52-8.73-1.4-18.59.22-24.51,6.73S640.26,1123.45,648,1127.61Z" style="fill:#5d8429"/><path d="M668,1168.07c-6.33,1.48-12.88,3.11-19.26,1.89-9.74-1.88-17.51-11.07-17.67-20.89s7.32-19.27,17-21.46c37.48,2.16,70.2,18.09,87.8,30.05A440.57,440.57,0,0,0,668,1168.07Z" style="fill:#6a9934"/><path d="M676.68,1199.11c-9.68,2.19-17.15,11.63-17,21.45s7.92,19,17.66,20.89c6.39,1.23,12.93-.4,19.27-1.88a440.44,440.44,0,0,1,67.86-10.41c-5.1-12.45-13.88-23.17-23.21-32.92-12.29-12.83-26.37-25.68-44-28.51-8.73-1.4-18.59.22-24.5,6.73S668.9,1195,676.68,1199.11Z" style="fill:#5d8429"/><path d="M696.62,1239.57c-6.34,1.48-12.88,3.11-19.27,1.88-9.74-1.87-17.51-11.06-17.66-20.89s7.31-19.26,17-21.45c37.49,2.15,70.2,18.09,87.8,30.05A440.44,440.44,0,0,0,696.62,1239.57Z" style="fill:#6a9934"/><path d="M631.88,1173.24c-9.06-5.76-22-4.3-29.45,3.31s-8.57,20.59-2.58,29.51c3.92,5.84,10.17,9.63,16.14,13.36a478.71,478.71,0,0,1,59.76,44.22c5.67-13.42,7.21-28.34,7.59-42.94.49-19.23-.37-39.85-11.64-55.55-5.57-7.78-14.34-14.12-23.86-13.7S629.14,1164.1,631.88,1173.24Z" style="fill:#517020"/><path d="M616,1219.42c-6-3.73-12.22-7.52-16.14-13.36-6-8.92-4.85-21.89,2.58-29.51s20.39-9.07,29.45-3.31c26.93,30.46,39.63,67.75,43.87,90.4A478.71,478.71,0,0,0,616,1219.42Z" style="fill:#5d8429"/><path d="M578.74,1145.82c11.61-3.49,24.71,1.34,29.79,11s1.61,23.07-7.9,30.55c-6.23,4.9-14.16,7.12-21.78,9.36A595.55,595.55,0,0,0,500.08,1226c-1.14-15,2.6-30.56,7.46-45.45,6.4-19.6,14.72-40.25,32.22-53.24,8.66-6.44,20.17-10.59,30-7.7S584.91,1137.26,578.74,1145.82Z" style="fill:#5d8429"/><path d="M578.84,1196.7c7.63-2.24,15.56-4.46,21.79-9.36,9.51-7.48,13-20.91,7.9-30.55s-18.18-14.46-29.79-11c-39.28,23.87-66.06,58.35-78.66,80.19A595.94,595.94,0,0,1,578.84,1196.7Z" style="fill:#517020"/><path d="M594.5,1099.48c-10.72-5.51-25.56-2.1-33.74,7.75s-8.85,25.12-1.52,34.71c4.81,6.29,12.19,9.87,19.25,13.43a499,499,0,0,1,71,43.59c5.87-16.37,6.91-34,6.62-51-.38-22.46-2.39-46.36-16.14-63.16-6.81-8.32-17.21-14.55-28.15-12.79S590.9,1089.19,594.5,1099.48Z" style="fill:#8fc156"/><path d="M578.49,1155.37c-7.06-3.56-14.44-7.14-19.25-13.43-7.33-9.59-6.67-24.85,1.52-34.71s23-13.26,33.74-7.75c32.52,31.91,49,73.66,55,99.48A499,499,0,0,0,578.49,1155.37Z" style="fill:#6a9934"/></g></svg>