<svg xmlns="http://www.w3.org/2000/svg" width="current" height="current" preserveAspectRatio="xMidYMid slice" viewBox="0 0 900 1200"><g id="Layer_29" data-name="Layer 29"><rect width="900" height="1200" style="fill:none"/></g><g id="puma-body"><path d="M127.08,1088.83c-12.93,10.88-23.35,24.5-27.92,40.92-6,21.56,12.26,39.16,27.79,48.16,20.79,12,43.43,11.58,66.32,11.69,28.33.15,55.2,3.59,83.15,8.07,13.62,2.18,29.64,3.51,42-4.4,10.11-6.46,10.46-16.64.33-21.87-18.6-9.61-44.16-7.73-64.27-7.49-20.93.25-41.84,2-62.79,1.87-17.68-.14-41.07.66-55.63-12.32-24.68-22,2.85-48.39,23.2-55.25,11.52-3.88,26.55-6.07,35.92-15.13,7.62-7.38,6.84-19.91-4.06-22.74-4.82-1.26-9.86.06-14.6,1.63C160.17,1067.38,142,1076.29,127.08,1088.83Z" style="fill:#ce7220"/><path d="M341.13,927.72a199.21,199.21,0,0,0-.45-31.94c-.6-7.26-2.6-17.53-9.43-21.76-4.56-2.83-10.55-1.83-15.45.37-12.7,5.73-21,18.33-26.33,31.19-9.43,22.6-8,44.9-10.88,68.42q-2.37,19.18-4.76,38.36c-1.45,11.75.29,23.47.35,35.38.15,25.65-1.59,51.52,2.79,76.94.63,3.61,1.4,7.27,3.26,10.42,8.77,14.85,30.75,10.59,44.45,6.8a15.09,15.09,0,0,0,5.23-2.26c4.28-3.28,4.24-10.11,1.37-14.68-3.45-5.51-10.19-6.75-11.42-13.19-1.56-8.12-1.15-17.22-.57-25.42.86-12.2,1.81-24.2,2.83-36.41a662.41,662.41,0,0,1,11.55-79.65C336.6,956.18,340,942.09,341.13,927.72Z" style="fill:#ce7220"/><path d="M303.06,933.17c3.46-25.6,6.36-51.32,6.91-77.15.42-19.27-.53-38.92-7-57.08a97.64,97.64,0,0,0-20.35-33.42c-5.14-5.54-11.11-10.58-18.25-13.15-8-2.87-16.78-2.42-25.14-1-10.15,1.75-23.57,4.54-31.93,10.9-6.27,4.77-11.4,11.92-17.43,17.23-15.15,13.35-29.6,28.53-37,47.62-3.36,8.67-5.14,17.85-6.9,27-4.37,22.66-9.09,44.53-9.36,67.63-.34,29.69,5.95,58.09,8.22,87.52,1.54,20,1.82,40.08,4.59,60,2.31,16.55,5.07,38.94,20.5,49,16.15,10.47,47.87,11.52,64.85,2.94,14.89-7.53,23.07-22.85,31.61-36.31,10-15.87,18.16-33.28,22.37-51.62,4-17.22,4.46-34.59,6.89-52C297.84,965.22,300.88,949.21,303.06,933.17Z" style="fill:#d87d21"/><path d="M224.46,756.86c-9.93,23.72-12.63,53.73-15.73,74.33L197,909.34c-1.69,11.27-3.4,22.66-2.58,34s4.37,22.88,12,31.34c13.62,15.07,37.41,17,56.51,10.17,18.19-6.54,36.87-22,51.36-34.66C340.47,927.33,350,898.73,353,864.68c2.57-29.11,6.43-58.89,6.4-88.11,0-48.59-48.61-64.94-90.24-57.49C247.5,723,232.78,737,224.46,756.86Z" style="fill:#e28723"/><path d="M223.62,1118.77c1.38,2.66,5.88,2.12,8.49,2.35,10.23.91,24,5.64,28.07,16.32.83,2.18,1.08,4.78-.18,6.75-1.87,2.94-6,3.19-9.46,3.15-8.75-.09-17.58.69-26.17-.72a171,171,0,0,1-28.11-7.44l-25.88-8.89c-5.76-2-11.76-4.11-15.92-8.57-13-14-8.6-42.88-7.56-60.09,1.37-22.49,6.06-45.23,18-64.61,6.37-10.32,15.7-20,27.71-21.71a32.59,32.59,0,0,1,14.16,1.39c13.22,4.09,23.89,14.56,30.12,26.91s8.36,26.44,8.23,40.27a132.15,132.15,0,0,1-7,41.15,134,134,0,0,1-8.54,19.81c-2,3.67-6.5,7.72-6.37,12.18A3.93,3.93,0,0,0,223.62,1118.77Z" style="fill:#e28723"/><path d="M283.4,1130.31c-.21-.25-.41-.52-.6-.79-2.95-4.28-1.91-9.2-2.76-14L277.11,1099l-5.86-33q-5.79-32.57-11.57-65.14c-4.37-24.62-2.8-50.1-3.13-75.11-.13-9.53-.2-19.42-4.24-28.06S239,882,229.67,883.79c-18.33,3.51-29.09,34.64-34.5,49.62-5.6,15.47-9.39,32.29-5.75,48.33,2,8.57,5.93,16.51,9.59,24.5a378.46,378.46,0,0,1,33.51,130.54c.24,3.3-.91,6.82-1,10.14-.08,5.67,4.61,10.53,9.93,12.49s11.18,1.67,16.84,1.35l23.71-1.35c4.88-.28,10.14-.7,13.84-3.88a11.61,11.61,0,0,0,2.09-14.64C294.5,1135.56,287.38,1135.09,283.4,1130.31Z" style="fill:#ed9326"/></g><g id="puma-head"><path d="M312.6,805.49c8.73,2.34,18.77,1,25.55-5s9.21-17,4.23-24.5c-4-6-11.53-8.78-18.71-8.85-10.55-.1-20.78,5.91-23.86,16.46C297.05,793.05,303.55,803.05,312.6,805.49Z" style="fill:#ed9326"/><path d="M323.31,655.71c-17.91-.45-36,3.16-48.13,15.82-11.36,11.82-20.62,23.5-22.9,44.27-1.06,9.74-1.27,20.09,2.3,29.38,4,10.37,11.71,19,18.8,27.34,5,5.91,11.3,14.09,18.92,16.62a20.62,20.62,0,0,0,7.38.83A35.82,35.82,0,0,0,321,781.63c4.94,3.21,10.07,6,15.82,7.31s12.08.8,17-2.36c5.81-3.68,8.92-10.3,13.08-15.78,2.92-3.86,6.44-7.19,9.53-10.91,2.64-3.19,3.62-7,5.39-10.7,6.55-13.8,3.26-33.81.18-48.3-3.16-14.87-10-23-22.36-32.39A65.71,65.71,0,0,0,323.31,655.71Z" style="fill:#f39d2c"/><path d="M257.24,647.14c-3.17-1.24-7.08-2.4-9.73-.29-1.56,1.24-2.17,3.29-2.59,5.23a54.67,54.67,0,0,0,5.07,36.8c2.89,5.47,7.6,11,13.85,11.17,4.15.15,8-2.08,11.34-4.45,8.87-6.21,17-14.44,19.61-24.87,2.09-8.47-4.36-10.59-11-13.2Z" style="fill:#f39d2c"/><path d="M248,658.53A64.14,64.14,0,0,0,257,690c1.21,2,2.9,4.21,5.29,4.33a6.93,6.93,0,0,0,3.22-.84,29.92,29.92,0,0,0,7.23-4.77c3-2.66,5.53-6.67,4.16-10.4a11.65,11.65,0,0,0-3.16-4.18,103.61,103.61,0,0,0-16.32-12.77C254.66,659.58,247.83,651.51,248,658.53Z" style="fill:#e08619"/><path d="M384.45,647.21c3.27-1.28,7.31-2.47,10-.29,1.61,1.29,2.25,3.41,2.68,5.41A56.77,56.77,0,0,1,392,690.45c-3,5.67-7.84,11.34-14.29,11.57-4.28.15-8.22-2.17-11.7-4.61-9.17-6.45-17.6-15-20.26-25.78-2.17-8.77,4.49-11,11.38-13.67Z" style="fill:#f39d2c"/><path d="M394.08,658.53A63.93,63.93,0,0,1,385,690c-1.21,2-2.89,4.21-5.28,4.33a7,7,0,0,1-3.23-.84,30.12,30.12,0,0,1-7.23-4.77c-3-2.66-5.53-6.67-4.16-10.4a11.88,11.88,0,0,1,3.16-4.18,104.54,104.54,0,0,1,16.32-12.77C387.39,659.58,394.22,651.51,394.08,658.53Z" style="fill:#e08619"/><path d="M289,784.54c-3.34-2.82-5.25-7.14-5.91-11.51a29.51,29.51,0,0,1,1.33-13.19,71.19,71.19,0,0,1,5.33-12c2-3.82,4.18-7.53,5.85-11.4a35.32,35.32,0,0,0,3.29-11.91,19.86,19.86,0,0,0-.4-6,15.8,15.8,0,0,0-2.4-5.43,10,10,0,0,0-2-2.1c-.19-.14-.38-.28-.58-.41l-.64-.35a7.57,7.57,0,0,0-1.33-.59,12.52,12.52,0,0,0-6-.36c-2.08.26-4.18.8-6.32,1.18a19,19,0,0,1-6.51.27c4.38,0,8.26-1.93,12.58-2.9a14.15,14.15,0,0,1,6.82-.07,9,9,0,0,1,1.67.61l.8.39.77.47a12.47,12.47,0,0,1,2.59,2.43,19.32,19.32,0,0,1,3.78,13,37.36,37.36,0,0,1-3.39,13c-3.62,8.09-8.77,15.07-11.71,23a29.85,29.85,0,0,0-2.09,12.27A19.48,19.48,0,0,0,289,784.54Z" style="fill:#4f3216"/><path d="M353.09,784.54a19.41,19.41,0,0,0,4.45-11.67,29.68,29.68,0,0,0-2.08-12.27c-2.94-7.9-8.1-14.88-11.72-23a37.56,37.56,0,0,1-3.38-13,19.31,19.31,0,0,1,3.77-13,12.53,12.53,0,0,1,2.6-2.43l.76-.47.81-.39a8.77,8.77,0,0,1,1.67-.61,14.15,14.15,0,0,1,6.82.07c4.32,1,8.2,2.93,12.57,2.9a19,19,0,0,1-6.5-.27c-2.15-.38-4.24-.92-6.33-1.18a12.52,12.52,0,0,0-6,.36,7.81,7.81,0,0,0-1.32.59l-.64.35L348,711a10.24,10.24,0,0,0-2,2.1,15.78,15.78,0,0,0-2.39,5.43,19.86,19.86,0,0,0-.41,6,35.57,35.57,0,0,0,3.3,11.91c1.67,3.87,3.81,7.58,5.85,11.4a72.83,72.83,0,0,1,5.33,12A29.51,29.51,0,0,1,359,773C358.34,777.4,356.43,781.72,353.09,784.54Z" style="fill:#4f3216"/><path d="M332.79,767.52a8.54,8.54,0,0,0,4-5.37c.62-2.59.07-4.74-2.8-2.71-1,.7-2.29,1.46-3.29.8a10.51,10.51,0,0,0-.91-.74,2,2,0,0,0-1.26-.06,8,8,0,0,0-3.47,1.62,5.52,5.52,0,0,1-1.68,1.13c-2,.61-3.56-1.92-5.59-2.43a3.17,3.17,0,0,0-3.56,1.76,9.85,9.85,0,0,1-3.33-1.45,4.33,4.33,0,0,0-3.48-.63c-4.64,1.69,2.07,8.43,4.09,9.34,1.49.67,3.18,1,4.42,2,2.38,2,2.17,5.73,3.64,8.47a2.34,2.34,0,0,0,1.17,1.19,2.07,2.07,0,0,0,1.32-.06c2.12-.71,3.24-3,4-5.1s1.33-4.45,3.08-5.85A26.24,26.24,0,0,1,332.79,767.52Z" style="fill:#4f3216"/><path d="M280.69,714.31c-.66,2.44.95,5,2.93,6.54a13.74,13.74,0,0,0,8.62,3c2.1,0,4.4-.7,5.45-2.51a5.82,5.82,0,0,0,.11-4.8,11.14,11.14,0,0,0-8-7C286.73,708.9,281.54,711.16,280.69,714.31Z" style="fill:#f4af14"/><path d="M361.36,714.31c.67,2.44-.94,5-2.92,6.54a13.78,13.78,0,0,1-8.63,3c-2.09,0-4.4-.7-5.44-2.51a5.82,5.82,0,0,1-.12-4.8,11.15,11.15,0,0,1,8.05-7C355.33,708.9,360.51,711.16,361.36,714.31Z" style="fill:#f4af14"/><path d="M292.1,725.31a15.2,15.2,0,0,1-9.42-3.29c-2.24-1.78-4.32-4.85-3.44-8.11,1.06-3.9,7-6.64,10.8-5.91a12.6,12.6,0,0,1,9.18,8,7.19,7.19,0,0,1-.23,6c-1.18,2-3.63,3.22-6.73,3.26Zm-3.38-14.43c-2.44,0-6,1.77-6.58,3.82h0c-.5,1.85,1,3.84,2.41,5a12.1,12.1,0,0,0,7.68,2.64c.74,0,3.24-.16,4.16-1.76a4.42,4.42,0,0,0,0-3.55,9.67,9.67,0,0,0-6.91-6.06A4.59,4.59,0,0,0,288.72,710.88Z" style="fill:#4f3216"/><path d="M350,725.31h-.16c-3.1,0-5.56-1.22-6.73-3.26a7.19,7.19,0,0,1-.23-6,12.6,12.6,0,0,1,9.18-8c3.82-.73,9.74,2,10.79,5.91h0c.88,3.26-1.2,6.33-3.44,8.11A15.15,15.15,0,0,1,350,725.31Zm3.37-14.43a4.47,4.47,0,0,0-.75.06,9.67,9.67,0,0,0-6.91,6.06,4.38,4.38,0,0,0,0,3.55c.93,1.6,3.42,1.75,4.17,1.76a12.12,12.12,0,0,0,7.68-2.64c1.42-1.13,2.91-3.12,2.41-5h0C359.36,712.65,355.77,710.88,353.33,710.88Z" style="fill:#4f3216"/><path d="M288,717a4,4,0,0,0,1.65,2.11,2.21,2.21,0,0,0,2.55-.19,3,3,0,0,0,.69-1.27c.66-2.06.95-7.67-2.34-7.79S287.21,715,288,717Z" style="fill:#4f3216"/><path d="M354.09,717a4,4,0,0,1-1.65,2.11,2.21,2.21,0,0,1-2.55-.19,3,3,0,0,1-.69-1.27c-.66-2.06-.95-7.67,2.33-7.79S354.85,715,354.09,717Z" style="fill:#4f3216"/></g></svg>