<svg xmlns="http://www.w3.org/2000/svg" width="current" height="current" preserveAspectRatio="xMidYMid slice" viewBox="0 0 940.43 1234.15"><g id="Layer_29" data-name="Layer 29"><rect x="40.43" width="900" height="1200" style="fill:none"/></g><g id="rafflesia"><path d="M141.09,997.19c-14-8-30-15.37-45.76-12a51.24,51.24,0,0,0-17.16,7.7c-9.18,6-17.48,14.22-20.81,24.67-1.56,4.93-2,10.14-2.26,15.29-.33,5.43-.45,11.28,2.53,15.82,2.76,4.23,7.66,6.47,12.39,8.25,17.25,6.5,35.61,9.69,52.86,16.19,12.86,4.84,25.16,11.54,38.68,14s29.16-.23,37.54-11.12c3.72-4.85,5.66-10.83,7-16.8a60.06,60.06,0,0,0,1.68-18A42.27,42.27,0,0,0,192,1011.82a41.1,41.1,0,0,0-27.87-8.8C154.3,1003.78,150,1002.31,141.09,997.19Z" transform="translate(40.43)" style="fill:#c6421e"/><path d="M226.68,1059c-15.17-3.54-31.82,1.67-43.07,12.45s-17.11,26.63-16.76,42.2a124.81,124.81,0,0,0,1.7,15.77l3.21,21.34c1.82,12.08,3.69,23.92,13.31,32.53,5.73,5.12,13.1,8.11,20.62,9.7,16.21,3.42,29.09,2.19,42.75-7.46,8.34-5.9,16.31-13.46,18.78-23.37,4.26-17-7.3-27.25-11.38-42.37-2-7.47-1-15.37-.62-23.1C256.07,1077.85,245.45,1063.38,226.68,1059Z" transform="translate(40.43)" style="fill:#d6451e"/><path d="M154.51,1155c-11.73,2.61-23.61,6.54-32.5,14.63A42.5,42.5,0,0,0,109.64,1190c-1.64,6.09-1.72,13.15,2.18,18.12,3,3.84,7.82,5.73,12.36,7.52q13.63,5.39,26.92,11.62c4.88,2.3,9.77,4.69,15,5.93,9.24,2.18,19.06.61,27.9-2.85s16.85-8.72,24.66-14.12,15.9-11.3,21.79-19,9.54-17.57,7.75-27.07c-1.84-9.81-9.16-17.81-17.52-23.26-10.06-6.56-23.27-10.22-34.2-4C183.51,1150.25,168.93,1151.84,154.51,1155Z" transform="translate(40.43)" style="fill:#e0492b"/><path d="M42.74,1075.51c-1.88,3.39-3.69,6.82-5.49,10.23-4.74,9-9.38,16.82-11,27a25.35,25.35,0,0,0-.1,9.31c.93,4.15,3.57,7.7,6.43,10.86,10.55,11.66,23.74,18,37.19,25.4,13.67,7.5,27.76,21,44.14,21.29,15.72.28,28-11,41.89-16.48,7.19-2.82,15.35-4.21,21.63-9,7.14-5.39,9.63-14.37,11.29-22.76,3.4-17.15,5.61-37.07-3.24-53-9.5-17.11-30.39-23.93-47.45-30.7-17.36-6.88-38.35-14-57-7.93C64.65,1045.05,50.84,1061,42.74,1075.51Z" transform="translate(40.43)" style="fill:#ea7c2a"/><path d="M62.35,1079.24c5.16-7.25,10.67-14.4,14.05-22.63s4.37-17.93.39-25.9c-2.36-4.7-6.23-8.44-10.08-12-5.92-5.52-12.2-11.07-19.91-13.51-11.22-3.55-23.36.1-34.31,4.4-6.21,2.44-12.55,5.26-16.93,10.29-8.82,10.16-6.89,25.56-11.32,38.27-5.75,16.49-22.3,28.49-24.48,45.81-.5,4-.11,8.27,2.14,11.61,4.19,6.2,12.81,6.93,20.17,8.31a66.86,66.86,0,0,1,22.58,8.7c6.42,4,13.86,10.12,21.93,7.21,5.89-2.13,5.65-7.42,7.64-12.57C40.75,1110.28,51.91,1094,62.35,1079.24Z" transform="translate(40.43)" style="fill:#d6451e"/><path d="M45.46,1122.91c-9.33-5.68-18.76-11.85-29.51-13.76a43,43,0,0,0-17.09.5c-9.82,2.26-19.13,8.15-23.85,17-5.85,11-3.88,24.51-.52,36.54s8,24.13,7,36.58c-.13,1.77-.36,3.64.4,5.25,1.57,3.26,6.05,3.46,9.67,3.32a148.64,148.64,0,0,1,52.24,7.33c12.87,4.24,25.84,10.35,39.31,8.85,7-.77,13.6-3.58,19.92-6.66,7.08-3.46,14.16-7.46,19.1-13.59a32.48,32.48,0,0,0,6.32-26.39,35,35,0,0,0-15.59-22.36A71.31,71.31,0,0,0,102,1150.3C82.37,1142.16,63.65,1134.1,45.46,1122.91Z" transform="translate(40.43)" style="fill:#e85a34"/><path d="M92.39,1061.59c-6.94,2-13.29,6.48-16.76,12.81-5,9.16-3.38,20.85,1.77,29.93s13.33,16,21.65,22.31c7.34,5.56,15.16,10.89,24.11,13s19.33.47,25.55-6.32c5.07-5.53,6.61-13.47,6.72-21a48.76,48.76,0,0,0-2.28-16.25c-3-8.8-9.24-16.23-16.6-21.91C124.12,1064.62,108.34,1057,92.39,1061.59Z" transform="translate(40.43)" style="fill:#c6421e"/><path d="M143.81,1124.35c-5.95-16-17-30.21-31.68-38.81A62.77,62.77,0,0,0,85,1077.11a86.16,86.16,0,0,0-10.55-.2c-3.52,8.71-1.76,19.14,2.93,27.42,5.15,9.08,13.33,16,21.65,22.31,7.34,5.56,15.16,10.89,24.11,13,8,1.9,17.14.76,23.43-4.35A45.2,45.2,0,0,0,143.81,1124.35Z" transform="translate(40.43)" style="fill:#dd4c1f"/></g></svg>