<svg xmlns="http://www.w3.org/2000/svg" width="current" height="current" preserveAspectRatio="xMidYMid slice" viewBox="0 0 900 1200"><g id="Layer_29" data-name="Layer 29"><rect width="900" height="1200" style="fill:none"/></g><g id="redflowers-1"><path d="M824.69,31.34a4.72,4.72,0,0,0-2.06-2.49c-1.39-.63-3,.12-4.32.85A3.48,3.48,0,0,0,817,30.77a3.15,3.15,0,0,0,.08,2.74,32.61,32.61,0,0,0,3.24,5.94c1.94,3,3.91,6,5.88,9,1.05,1.58,2.8,5.13,3.36,1.45.43-2.81-.71-5.94-1.4-8.63A54.65,54.65,0,0,0,824.69,31.34Z" style="fill:#c6421e"/><path d="M834.61,33.63c.64-1.51,1.72-3.13,3.37-3.28a4.31,4.31,0,0,1,1.9.35c1.36.52,2.77,1.49,2.93,2.93a4.52,4.52,0,0,1-.52,2.26,42.16,42.16,0,0,1-8.39,12.55c-.93,1-3.68,3.8-3.44.75.19-2.33,1.3-4.75,1.8-7A46.34,46.34,0,0,1,834.61,33.63Z" style="fill:#c6421e"/><path d="M848.94,45.67a2,2,0,0,1,.94,0,1.62,1.62,0,0,1,.74.68c.9,1.37.89,3.13.84,4.78a1.4,1.4,0,0,1-.16.73,1.34,1.34,0,0,1-.91.42,80,80,0,0,1-14.34.89c-1.21,0-3.35-.52-2.65-2.25.49-1.19,2.87-1.63,3.91-2A54.77,54.77,0,0,1,848.94,45.67Z" style="fill:#c6421e"/><path d="M839.14,57.49l9,3.76A4.13,4.13,0,0,1,850,62.46a2.62,2.62,0,0,1-.84,3.49,4.91,4.91,0,0,1-3.85.49c-2.88-.67-5.23-2.71-7.3-4.81q-2-2-3.77-4.21c-1-1.21-1-2.52.86-2C836.45,55.9,837.8,56.93,839.14,57.49Z" style="fill:#c6421e"/><path d="M838.5,70.08c.39.61.81,1.38.49,2s-1.34.79-2.13.73a33.05,33.05,0,0,1-3.58-.46,3.67,3.67,0,0,1-1.66-.62,3.57,3.57,0,0,1-1-1.87,21.08,21.08,0,0,1-.25-11.78c.58-1.86,1.28-2.38,2-.34s1.57,4,2.51,5.89A63.08,63.08,0,0,0,838.5,70.08Z" style="fill:#c6421e"/><path d="M820.94,44.92a14,14,0,0,0-1.47-1.31q-3.5-2.73-7.1-5.33a2.61,2.61,0,0,0-2.14-.72,2.4,2.4,0,0,0-1.21,1.2,9.63,9.63,0,0,0-1.27,4.55,1.59,1.59,0,0,0,.25,1.07,1.54,1.54,0,0,0,.53.37c5.13,2.65,10.33,5.24,15.64,7.5a3.16,3.16,0,0,0,1.94.2,2,2,0,0,0-.17-1.62,6.32,6.32,0,0,0-1-1.33C823.53,48,822.34,46.35,820.94,44.92Z" style="fill:#c6421e"/><path d="M824.82,72.89a1.92,1.92,0,0,1-.47.82c-.54.49-1.4.24-2-.11a9.26,9.26,0,0,1-2.51-2,3.14,3.14,0,0,1-.85-1.64,3.6,3.6,0,0,1,.67-2.12,49.41,49.41,0,0,1,6.8-9.2c.31-.34,1.19-1.62,1.79-1.25s-.06,2.21-.13,2.68c-.3,2-.7,4-1.19,6A63.51,63.51,0,0,1,824.82,72.89Z" style="fill:#c6421e"/><path d="M812.67,53a11,11,0,0,0-4.21.26.83.83,0,0,0-.7.91c-.1,1.85.34,4,2,4.83a5.4,5.4,0,0,0,3,.22,75.7,75.7,0,0,0,11.63-2.39,5.08,5.08,0,0,0,1.7-.74,1.68,1.68,0,0,0,.75-1.58C822.17,54.15,817.42,53.29,812.67,53Z" style="fill:#c6421e"/><path d="M835.87,51.6a5.16,5.16,0,0,1-2,6.26,5.88,5.88,0,0,1-1.79.67,6.91,6.91,0,0,1-5.29-.91,5.34,5.34,0,0,1-2.36-4.71C824.9,47.37,833.86,46.85,835.87,51.6Z" style="fill:#f39d2c"/><path d="M657.87,58.92a4.69,4.69,0,0,0,3.16-.65c1.21-.94,1.29-2.7,1.26-4.23a3.36,3.36,0,0,0-.31-1.69,3.13,3.13,0,0,0-2.46-1.2,31.84,31.84,0,0,0-6.76.1c-3.57.31-7.14.66-10.7,1-1.89.19-5.84.08-2.85,2.3,2.28,1.68,5.59,2.14,8.28,2.78A54.49,54.49,0,0,0,657.87,58.92Z" style="fill:#c6421e"/><path d="M651.22,66.63c1,1.28,2,3,1.34,4.51a4.26,4.26,0,0,1-1.2,1.53c-1.09,1-2.6,1.75-4,1.22a4.53,4.53,0,0,1-1.75-1.51,42.26,42.26,0,0,1-7.2-13.27c-.42-1.28-1.65-5,.94-3.39,2,1.25,3.6,3.36,5.39,4.87A46.07,46.07,0,0,1,651.22,66.63Z" style="fill:#c6421e"/><path d="M633.89,73.71a2,2,0,0,1-.46.81,1.59,1.59,0,0,1-.94.34c-1.64.16-3.19-.67-4.63-1.48a1.22,1.22,0,0,1-.56-.49,1.3,1.3,0,0,1,.05-1,79.66,79.66,0,0,1,5.89-13.1c.57-1.06,2-2.72,3.22-1.29.83,1,.11,3.29,0,4.4A53.5,53.5,0,0,1,633.89,73.71Z" style="fill:#c6421e"/><path d="M628,59.53l-7.52,6.21a4.07,4.07,0,0,1-1.93,1.07,2.61,2.61,0,0,1-2.69-2.37,4.85,4.85,0,0,1,1.36-3.63c1.93-2.24,4.83-3.37,7.65-4.22q2.71-.81,5.48-1.38c1.55-.32,2.67.34,1.32,1.67C630.66,57.89,629.12,58.6,628,59.53Z" style="fill:#c6421e"/><path d="M617.16,53.09c-.72.07-1.59.08-2-.51s-.08-1.55.35-2.22a32,32,0,0,1,2.07-3,3.67,3.67,0,0,1,1.33-1.18,3.59,3.59,0,0,1,2.13,0,21.09,21.09,0,0,1,10.53,5.27c1.38,1.38,1.51,2.25-.65,2s-4.24-.45-6.38-.52A64.6,64.6,0,0,0,617.16,53.09Z" style="fill:#c6421e"/><path d="M647.61,49.28a14.12,14.12,0,0,0,1.84-.69q4-1.83,8-3.79c.71-.35,1.49-.8,1.63-1.56a2.38,2.38,0,0,0-.48-1.64,9.8,9.8,0,0,0-3.44-3.24,1.65,1.65,0,0,0-1.06-.28,1.61,1.61,0,0,0-.58.3c-4.74,3.3-9.46,6.7-13.93,10.34a3.22,3.22,0,0,0-1.08,1.63,2,2,0,0,0,1.52.6,6.65,6.65,0,0,0,1.65-.29C643.66,50.13,645.68,49.86,647.61,49.28Z" style="fill:#c6421e"/><path d="M621.05,39.68a2.11,2.11,0,0,1-.51-.79c-.17-.71.45-1.36,1.06-1.76a9.25,9.25,0,0,1,2.95-1.28,3.15,3.15,0,0,1,1.85,0A3.61,3.61,0,0,1,628,37.44a49.47,49.47,0,0,1,5,10.31c.15.43.88,1.8.27,2.16s-1.92-1.08-2.31-1.36a61.35,61.35,0,0,1-4.79-3.87A62.7,62.7,0,0,1,621.05,39.68Z" style="fill:#c6421e"/><path d="M644.36,38.22a11.14,11.14,0,0,0,1.73-3.85.84.84,0,0,0-.49-1c-1.58-.95-3.71-1.57-5.2-.47a5.39,5.39,0,0,0-1.61,2.58,75.4,75.4,0,0,0-3.3,11.4,4.88,4.88,0,0,0-.14,1.86,1.69,1.69,0,0,0,1,1.39C638.87,46.07,641.84,42.27,644.36,38.22Z" style="fill:#c6421e"/><path d="M634.74,59.37a5.16,5.16,0,0,1-4.61-4.68,6.12,6.12,0,0,1,.24-1.9,6.89,6.89,0,0,1,3.28-4.25,5.33,5.33,0,0,1,5.26.1C643.59,51.64,639.88,59.81,634.74,59.37Z" style="fill:#f39d2c"/><path d="M757.66,54.49a8.33,8.33,0,0,1,3.16-3,9,9,0,0,1,4.39-.39,4.59,4.59,0,0,1,3.13,1,3.15,3.15,0,0,1,.19,3.66,9.17,9.17,0,0,1-2.79,2.72C764.08,59.75,752.08,69.63,751,68.6,749.1,66.89,756.33,56.12,757.66,54.49Z" style="fill:#d6451e"/><path d="M770,63.48a10,10,0,0,1,5.37,0c1.69.62,3,2.45,2.26,4-.63,1.42-2.44,2-4,2.33a66.46,66.46,0,0,1-16.93,1.51c-1.49-.07-5.42,0-3.49-2.33,1.28-1.57,5.31-2.27,7.25-2.92A81.18,81.18,0,0,1,770,63.48Z" style="fill:#d6451e"/><path d="M747.17,51.61c-.26-1.47-.67-3.13-2-3.83-1.67-.9-3.83.45-4.45,2.24s-.14,3.74.44,5.54a52,52,0,0,0,6,12.51c.94,1.44,2.13,2,2.2-.08a38.29,38.29,0,0,0-.61-5.64Q748.09,57,747.17,51.61Z" style="fill:#d6451e"/><path d="M771.88,78.06a3,3,0,0,1,1.71,1.45c.4,1.06-.44,2.16-1.22,3-1,1.07-2.28,2.23-3.73,2a4.72,4.72,0,0,1-1.21-.43,68.67,68.67,0,0,1-13.19-8.29c-.66-.52-2-1.17-1.49-2.11s2.48-.44,3.26-.33a56.35,56.35,0,0,1,15.87,4.73Z" style="fill:#d6451e"/><path d="M752.55,75.57l7.67,17a2,2,0,0,1,.25,1.22,1.44,1.44,0,0,1-.72.87A4.22,4.22,0,0,1,754.9,94a11.19,11.19,0,0,1-2.74-4.44,32,32,0,0,1-2.69-10.15c-.07-1.19-.35-4,.44-5C750.93,73.11,752.05,74.46,752.55,75.57Z" style="fill:#d6451e"/><path d="M736.52,60.77c-1.36-1.16-2.9-2.38-4.68-2.34-.33,1.41-1,2.71-1.33,4.12a4.64,4.64,0,0,0,.65,4.11,5.81,5.81,0,0,0,2.32,1.41c1.66.66,12.85,4.72,13.49,2.53.44-1.48-3.4-3.84-4.23-4.55Z" style="fill:#d6451e"/><path d="M746.77,88.47a3.68,3.68,0,0,1-.79,2.27,2.45,2.45,0,0,1-2.45.45,7.26,7.26,0,0,1-2.23-1.33,1.92,1.92,0,0,1-.66-.73,1.75,1.75,0,0,1-.06-.85c.48-4.75,3.5-8.8,6.4-12.58a1.45,1.45,0,0,1,1-.71c.69,0-.27,4.91-.36,5.72Z" style="fill:#d6451e"/><path d="M747.86,73.08a4.9,4.9,0,0,1-2,2.2,44.52,44.52,0,0,1-9.38,5.62A1.8,1.8,0,0,1,735,81a1.69,1.69,0,0,1-.48-.48A12.76,12.76,0,0,1,732,74.24c-.34-3,4.82-1.84,6.66-1.78C739.49,72.48,747.8,73.25,747.86,73.08Z" style="fill:#d6451e"/><path d="M755.35,70.86a4.78,4.78,0,0,1-.59,4,4.58,4.58,0,0,1-1.56,1.17,9.22,9.22,0,0,1-2.53.81,5.72,5.72,0,0,1-3-.21,5.51,5.51,0,0,1-3.1-3.64c-.86-3,.85-7,3.91-7.32A6.75,6.75,0,0,1,755.35,70.86Z" style="fill:#f39d2c"/></g><g id="redflowers-2"><path d="M51.73,25.43a5.46,5.46,0,0,1,2.36-2.86c1.6-.72,3.43.14,5,1a4.06,4.06,0,0,1,1.55,1.22,3.65,3.65,0,0,1-.09,3.14,37.2,37.2,0,0,1-3.72,6.81c-2.22,3.46-4.48,6.89-6.74,10.31-1.2,1.82-3.21,5.89-3.85,1.67-.49-3.22.81-6.82,1.6-9.89A63.27,63.27,0,0,1,51.73,25.43Z" style="fill:#d6451e"/><path d="M40.36,28.06c-.74-1.75-2-3.6-3.86-3.77a4.88,4.88,0,0,0-2.19.41c-1.56.59-3.17,1.7-3.35,3.35a5.26,5.26,0,0,0,.59,2.59A48.21,48.21,0,0,0,41.17,45c1.08,1.12,4.22,4.37,3.94.86-.21-2.66-1.49-5.44-2.06-8.07A53,53,0,0,0,40.36,28.06Z" style="fill:#d6451e"/><path d="M23.92,41.86a2.15,2.15,0,0,0-1.07,0,1.85,1.85,0,0,0-.85.77c-1,1.58-1,3.6-1,5.48a1.15,1.15,0,0,0,1.24,1.32,91.26,91.26,0,0,0,16.44,1c1.38,0,3.84-.6,3-2.58-.55-1.36-3.28-1.87-4.48-2.32A61.94,61.94,0,0,0,23.92,41.86Z" style="fill:#d6451e"/><path d="M35.16,55.41,24.85,59.72a4.66,4.66,0,0,0-2.13,1.4,3,3,0,0,0,1,4,5.61,5.61,0,0,0,4.42.56c3.3-.76,6-3.1,8.36-5.52,1.51-1.54,3-3.15,4.33-4.81,1.14-1.4,1.09-2.89-1-2.24C38.25,53.59,36.7,54.77,35.16,55.41Z" style="fill:#d6451e"/><path d="M35.9,69.85c-.45.7-.93,1.58-.56,2.33s1.53.9,2.44.83a35.53,35.53,0,0,0,4.11-.53,4.1,4.1,0,0,0,1.9-.71A4.05,4.05,0,0,0,45,69.63a24.22,24.22,0,0,0,.29-13.5c-.67-2.14-1.48-2.74-2.35-.4S41.1,60.29,40,62.49A73.68,73.68,0,0,1,35.9,69.85Z" style="fill:#d6451e"/><path d="M56,41a17.22,17.22,0,0,1,1.68-1.51q4-3.12,8.14-6.11a3,3,0,0,1,2.45-.82,2.74,2.74,0,0,1,1.4,1.37,11.3,11.3,0,0,1,1.45,5.22,1.81,1.81,0,0,1-.28,1.22,1.74,1.74,0,0,1-.61.43c-5.89,3.05-11.86,6-17.94,8.61a3.71,3.71,0,0,1-2.23.22,2.3,2.3,0,0,1,.2-1.86,7.53,7.53,0,0,1,1.19-1.52C53.07,44.54,54.42,42.64,56,41Z" style="fill:#d6451e"/><path d="M51.59,73.07a2.19,2.19,0,0,0,.53.94c.62.56,1.61.27,2.34-.13a10.4,10.4,0,0,0,2.88-2.31,3.61,3.61,0,0,0,1-1.88,4.22,4.22,0,0,0-.77-2.44,57,57,0,0,0-7.8-10.54c-.36-.39-1.36-1.86-2.06-1.43-.53.32.08,2.52.16,3.07q.51,3.49,1.36,6.93A72.89,72.89,0,0,0,51.59,73.07Z" style="fill:#d6451e"/><path d="M65.52,50.21a12.44,12.44,0,0,1,4.83.3,1.17,1.17,0,0,1,.63.38,1.24,1.24,0,0,1,.16.66c.12,2.12-.38,4.61-2.29,5.54a6.21,6.21,0,0,1-3.48.25A88.79,88.79,0,0,1,52,54.6a5.93,5.93,0,0,1-2-.85,1.94,1.94,0,0,1-.86-1.81C54.63,51.58,60.07,50.59,65.52,50.21Z" style="fill:#d6451e"/><path d="M38.92,48.66a5.92,5.92,0,0,0,2.29,7.18,7.11,7.11,0,0,0,2.06.77,8,8,0,0,0,6.06-1A6.1,6.1,0,0,0,52,50.17C51.5,43.81,41.22,43.21,38.92,48.66Z" style="fill:#f39d2c"/><path d="M263.59,47.13a5.36,5.36,0,0,1-3.62-.75c-1.38-1.08-1.48-3.09-1.45-4.84a4,4,0,0,1,.36-1.94,3.65,3.65,0,0,1,2.82-1.39,37.3,37.3,0,0,1,7.76.12q6.14.54,12.27,1.16c2.16.22,6.69.09,3.26,2.63-2.62,1.94-6.41,2.46-9.49,3.2A63.14,63.14,0,0,1,263.59,47.13Z" style="fill:#e85a34"/><path d="M271.22,56c-1.2,1.47-2.26,3.43-1.54,5.18a5,5,0,0,0,1.38,1.74c1.25,1.1,3,2,4.54,1.41a5.25,5.25,0,0,0,2-1.74,48.16,48.16,0,0,0,8.25-15.21c.49-1.47,1.9-5.77-1.07-3.89-2.26,1.43-4.13,3.85-6.19,5.58A53.79,53.79,0,0,0,271.22,56Z" style="fill:#e85a34"/><path d="M291.09,64.08a2.3,2.3,0,0,0,.53.94,1.87,1.87,0,0,0,1.08.39c1.88.17,3.66-.77,5.3-1.7a1.43,1.43,0,0,0,.65-.56,1.53,1.53,0,0,0,0-1.15,92.39,92.39,0,0,0-6.76-15c-.66-1.22-2.32-3.12-3.7-1.48-.94,1.12-.12,3.77,0,5A61.26,61.26,0,0,0,291.09,64.08Z" style="fill:#e85a34"/><path d="M297.84,47.82,306.47,55a4.76,4.76,0,0,0,2.22,1.23,3,3,0,0,0,3.08-2.72,5.56,5.56,0,0,0-1.56-4.17c-2.21-2.57-5.53-3.86-8.78-4.83q-3.1-.93-6.28-1.58c-1.77-.37-3.06.38-1.51,1.91C294.79,45.94,296.56,46.76,297.84,47.82Z" style="fill:#e85a34"/><path d="M310.27,40.45c.84.07,1.84.08,2.32-.6s.09-1.76-.39-2.54a38.17,38.17,0,0,0-2.38-3.39,3.24,3.24,0,0,0-4-1.4,24.29,24.29,0,0,0-12.08,6c-1.58,1.59-1.73,2.58.75,2.27s4.87-.53,7.32-.61A74.11,74.11,0,0,1,310.27,40.45Z" style="fill:#e85a34"/><path d="M275.36,36.07a18.48,18.48,0,0,1-2.11-.78q-4.63-2.1-9.2-4.36c-.81-.4-1.7-.91-1.87-1.79a2.73,2.73,0,0,1,.56-1.87,11.16,11.16,0,0,1,3.94-3.72,1.86,1.86,0,0,1,1.22-.32,1.89,1.89,0,0,1,.66.34c5.44,3.79,10.84,7.69,16,11.87a3.68,3.68,0,0,1,1.24,1.86A2.31,2.31,0,0,1,284,38a7.3,7.3,0,0,1-1.9-.34C279.89,37.05,277.57,36.73,275.36,36.07Z" style="fill:#e85a34"/><path d="M305.82,25.06a2.22,2.22,0,0,0,.58-.9c.2-.82-.51-1.56-1.21-2a10.48,10.48,0,0,0-3.38-1.46,3.49,3.49,0,0,0-2.12,0,4,4,0,0,0-1.8,1.81,56.9,56.9,0,0,0-5.7,11.81c-.17.5-1,2.07-.3,2.49.53.32,2.2-1.24,2.64-1.57,1.9-1.39,3.74-2.87,5.5-4.43A72.92,72.92,0,0,0,305.82,25.06Z" style="fill:#e85a34"/><path d="M279.09,23.39a12.7,12.7,0,0,1-2-4.41,1.16,1.16,0,0,1,.05-.74,1.22,1.22,0,0,1,.5-.45c1.82-1.09,4.26-1.81,6-.55a6.26,6.26,0,0,1,1.85,3,88.51,88.51,0,0,1,3.78,13.08,5.86,5.86,0,0,1,.16,2.12,1.93,1.93,0,0,1-1.2,1.6C285.39,32.39,282,28,279.09,23.39Z" style="fill:#e85a34"/><path d="M290.12,47.65a5.93,5.93,0,0,0,5.28-5.37,7,7,0,0,0-.27-2.18,7.93,7.93,0,0,0-3.76-4.87,6.11,6.11,0,0,0-6,.11C280,38.78,284.22,48.15,290.12,47.65Z" style="fill:#f39d2c"/><path d="M182,61.89a9.59,9.59,0,0,0-3.62-3.4,10.45,10.45,0,0,0-5-.45,5.38,5.38,0,0,0-3.59,1.18,3.63,3.63,0,0,0-.22,4.2,10.62,10.62,0,0,0,3.21,3.12c1.9,1.39,15.65,12.72,16.94,11.54C191.82,76.12,183.53,63.77,182,61.89Z" style="fill:#c6421e"/><path d="M167.85,72.2a11.5,11.5,0,0,0-6.16,0c-1.93.71-3.39,2.81-2.59,4.62.72,1.63,2.8,2.28,4.64,2.68a75.85,75.85,0,0,0,19.41,1.73c1.71-.08,6.21,0,4-2.68-1.47-1.8-6.09-2.6-8.32-3.34A91.78,91.78,0,0,0,167.85,72.2Z" style="fill:#c6421e"/><path d="M194,58.6c.29-1.69.75-3.6,2.26-4.4,1.91-1,4.39.52,5.11,2.57s.16,4.29-.51,6.35a59.46,59.46,0,0,1-6.85,14.34c-1.09,1.66-2.45,2.34-2.53-.08a44.42,44.42,0,0,1,.7-6.48C192.72,66.79,193.33,62.68,194,58.6Z" style="fill:#c6421e"/><path d="M165.69,88.93a3.45,3.45,0,0,0-2,1.66c-.46,1.22.51,2.47,1.41,3.42,1.16,1.22,2.61,2.55,4.27,2.29a5.18,5.18,0,0,0,1.38-.5,78.44,78.44,0,0,0,15.14-9.5c.75-.6,2.25-1.34,1.7-2.42s-2.84-.51-3.73-.38A65.59,65.59,0,0,0,175,85.41,64,64,0,0,0,165.69,88.93Z" style="fill:#c6421e"/><path d="M187.86,86.07l-8.79,19.52a2.19,2.19,0,0,0-.29,1.4,1.75,1.75,0,0,0,.82,1c1.71,1.06,4.06.48,5.57-.84a13.06,13.06,0,0,0,3.14-5.09,37.15,37.15,0,0,0,3.09-11.65c.08-1.36.4-4.53-.51-5.68C189.72,83.24,188.43,84.79,187.86,86.07Z" style="fill:#c6421e"/><path d="M206.24,69.1c1.56-1.33,3.32-2.73,5.37-2.68.38,1.61,1.14,3.11,1.52,4.71a5.33,5.33,0,0,1-.74,4.72,6.73,6.73,0,0,1-2.66,1.62c-1.91.76-14.73,5.41-15.47,2.9-.51-1.7,3.9-4.41,4.85-5.22Z" style="fill:#c6421e"/><path d="M194.49,100.87a4.17,4.17,0,0,0,.9,2.59,2.82,2.82,0,0,0,2.81.52,8.26,8.26,0,0,0,2.56-1.53,2.12,2.12,0,0,0,.76-.84,1.87,1.87,0,0,0,.07-1c-.56-5.44-4-10.09-7.34-14.42-.3-.39-.66-.81-1.15-.81-.78,0,.31,5.62.41,6.56Z" style="fill:#c6421e"/><path d="M193.24,83.21a5.61,5.61,0,0,0,2.3,2.53c3.41,2.44,6.86,4.91,10.77,6.44a2,2,0,0,0,1.69.11,1.8,1.8,0,0,0,.55-.55,14.76,14.76,0,0,0,2.85-7.2c.38-3.47-5.53-2.11-7.65-2C202.84,82.53,193.31,83.4,193.24,83.21Z" style="fill:#c6421e"/><path d="M184.66,80.67a5.45,5.45,0,0,0,.67,4.63,5.11,5.11,0,0,0,1.79,1.34,10.38,10.38,0,0,0,2.89.93,6.44,6.44,0,0,0,3.4-.25A6.26,6.26,0,0,0,197,83.15c1-3.41-1-8.08-4.48-8.39A7.72,7.72,0,0,0,184.66,80.67Z" style="fill:#f39d2c"/><path d="M417.08,22a9.67,9.67,0,0,1,4.43-2.26,10.51,10.51,0,0,1,5,1,5.39,5.39,0,0,1,3.12,2.14,3.63,3.63,0,0,1-1,4.09,10.64,10.64,0,0,1-4,2.1c-2.21.79-18.59,7.81-19.49,6.32C403.67,32.88,415.09,23.34,417.08,22Z" style="fill:#d6451e"/><path d="M427.77,35.84a11.53,11.53,0,0,1,5.92,1.72c1.65,1.23,2.46,3.65,1.19,5.16s-3.33,1.41-5.21,1.27a75.42,75.42,0,0,1-19.11-3.79c-1.62-.55-6-1.72-3.1-3.69,1.93-1.31,6.59-.79,8.93-.87A92,92,0,0,1,427.77,35.84Z" style="fill:#d6451e"/><path d="M406.45,15.44c.2-1.7.28-3.66-.94-4.86-1.54-1.52-4.36-.73-5.62,1s-1.36,4.08-1.3,6.24a60,60,0,0,0,2.56,15.69c.58,1.9,1.69,2.93,2.45.63a44.32,44.32,0,0,0,1.14-6.41Q405.76,21.63,406.45,15.44Z" style="fill:#d6451e"/><path d="M425.15,52.5a3.49,3.49,0,0,1,1.42,2.15c.09,1.29-1.19,2.22-2.31,2.88-1.46.85-3.22,1.72-4.75,1a5.25,5.25,0,0,1-1.18-.86A78.58,78.58,0,0,1,406.46,44.3c-.55-.78-1.79-1.92-.95-2.79s2.87.3,3.69.68a63.3,63.3,0,0,1,8,4.32A64.56,64.56,0,0,1,425.15,52.5Z" style="fill:#d6451e"/><path d="M404.67,43.54l3,21.2a2.32,2.32,0,0,1-.12,1.43,1.7,1.7,0,0,1-1.07.72c-1.94.55-4-.67-5.11-2.37a13,13,0,0,1-1.58-5.76,37.13,37.13,0,0,1,.3-12c.3-1.34.89-4.47,2.08-5.32C403.68,40.3,404.48,42.15,404.67,43.54Z" style="fill:#d6451e"/><path d="M391.79,22.09c-1.12-1.71-2.42-3.55-4.4-4.08-.81,1.44-2,2.67-2.78,4.1a5.3,5.3,0,0,0-.61,4.74,6.6,6.6,0,0,0,2.1,2.3c1.61,1.26,12.62,9.32,14,7.13,1-1.5-2.51-5.33-3.2-6.38Z" style="fill:#d6451e"/><path d="M394.16,55.88a4.24,4.24,0,0,1-1.6,2.24,2.84,2.84,0,0,1-2.84-.29,8.49,8.49,0,0,1-2-2.19,2.22,2.22,0,0,1-.49-1,2,2,0,0,1,.21-1c2.06-5.07,6.68-8.55,11.09-11.78a1.64,1.64,0,0,1,1.33-.46c.75.22-1.87,5.31-2.24,6.18Z" style="fill:#d6451e"/><path d="M400.31,39.29a5.57,5.57,0,0,1-2.91,1.77c-4,1.39-8,2.8-12.14,3.17a2,2,0,0,1-1.66-.37,2,2,0,0,1-.38-.68,14.69,14.69,0,0,1-.71-7.71c.61-3.44,5.9-.48,7.91.18C391.29,35.94,400.2,39.45,400.31,39.29Z" style="fill:#d6451e"/><path d="M409.27,39.25a5.47,5.47,0,0,1-1.95,4.26,5,5,0,0,1-2.09.78,10,10,0,0,1-3,.08,6.52,6.52,0,0,1-3.2-1.18,6.29,6.29,0,0,1-2.23-5c0-3.55,3.19-7.49,6.65-6.81A7.75,7.75,0,0,1,409.27,39.25Z" style="fill:#f39d2c"/></g></svg>