<svg xmlns="http://www.w3.org/2000/svg" width="current" height="current" preserveAspectRatio="xMidYMid slice" viewBox="0 0 900 1200"><g id="Layer_29" data-name="Layer 29"><rect width="900" height="1200" style="fill:none"/></g><g id="redpanda-arm-back"><path d="M525.67,978.3a144.61,144.61,0,0,0-20.94-30.73,28.82,28.82,0,0,1-3.9-5,24.62,24.62,0,0,1-2.16-7c-2.35-11.51-5.22-23.17-11.63-33.35a11.13,11.13,0,0,0-3.49-3.83c-1.55-.92-.28-1.86-1.74-.84a8.2,8.2,0,0,0-7.32,1.39,14.38,14.38,0,0,0-4.31,5.83c-2.48,5.5-3.3,11.49-3.71,17.42a135.7,135.7,0,0,0,2.1,34.6c.63,3.32,1.46,6.75,3.77,9.38a21.54,21.54,0,0,0,6.25,4.44,117.73,117.73,0,0,0,15.1,6.76c2.45.89,5.53,1.16,7.57,2.79,3.05,2.45-.14,5.51-.61,8.26a4.64,4.64,0,0,0,.47,3.29c.85,1.35,2.07,1.36,3.52,1.7.77.19.88-.1,1.13.81.19.69-.36,1.45-.21,2.16a3.3,3.3,0,0,0,1.82,2,9.27,9.27,0,0,0,5.59,1c-.56,2.21,1.88,4.92,4.35,5.32a7.88,7.88,0,0,0,6.66-2.47,14.77,14.77,0,0,0,3.23-6.07A24.19,24.19,0,0,0,525.67,978.3Z" style="fill:#5b3019"/></g><g id="redpanda-body"><path d="M415.4,1084c20,4.31,40.68-.9,61-3.51a239.15,239.15,0,0,1,71.41,1.63c4.14.73,8.4,1.56,12.5.63s8-4.18,8.23-8.37c.17-3.41-2-6.46-4.46-8.85-10.12-10-24.91-13.3-39-15.39a884.67,884.67,0,0,0-99.35-8.52c-11.07-.36-27,5.12-31.31,16.32C389.09,1071.82,403.67,1081.48,415.4,1084Z" style="fill:#7f441c"/><path d="M564.08,1065.53c-7.35-7.25-17.17-11-27.38-13.28a41.44,41.44,0,0,1,5.61,14.1c1,5.07,1.24,10.72,3.1,15.38l2.4.39c4.14.73,8.4,1.56,12.5.63s8-4.18,8.23-8.37C568.71,1071,566.5,1067.92,564.08,1065.53Z" style="fill:#563820"/><path d="M515.93,1048.86a74.2,74.2,0,0,1,10.74,28.8c.09.59.17,1.18.26,1.77,2.79.23,5.56.52,8.34.85a32.75,32.75,0,0,0-.29-3.85,68,68,0,0,0-9.27-26.2l-.59-.09C522.08,1049.69,519,1049.28,515.93,1048.86Z" style="fill:#563820"/><path d="M508.26,1076.89c.11.7.2,1.4.32,2.1,2.84,0,5.67.1,8.51.22a35.69,35.69,0,0,0-.29-3.59,69.78,69.78,0,0,0-9.93-27.6c-.14-.23-.29-.49-.44-.76-3.32-.41-6.64-.8-10-1.16A76.09,76.09,0,0,1,508.26,1076.89Z" style="fill:#563820"/><path d="M492,1075.5c.18,1.16.33,2.34.58,3.49q4-.24,8-.34a29,29,0,0,0-.29-4.38,67.78,67.78,0,0,0-9.66-26.86c-.27-.45-.58-1-.91-1.61-3.22-.33-6.44-.62-9.67-.91A74,74,0,0,1,492,1075.5Z" style="fill:#563820"/><path d="M460.09,1091.18c-5-.26-10.11.48-15.16.12s-10.33-2.06-13.37-6.08-3.23-9.43-2.77-14.42c1.26-13.86,6.46-27.49,12.87-39.76,4-7.65,8.87-15.2,16.09-20s17.3-6.12,24.46-1.26c7,4.73,9.49,13.83,10.14,22.23,1,13.3-4.28,28.88-9.62,41.12,3.39,1.09,9.32,1.8,12.77,2.65s6.93,1.3,9.13,4.09,2.66,7.14.28,9.77-6.34,2.65-9.85,2.52C483.06,1091.75,472.08,1091.77,460.09,1091.18Z" style="fill:#5b3019"/><path d="M472.39,866.52c9.44,8.11,10.68,21.11,11.73,32.84,1.42,15.8-2.5,31.45-3.54,47.15q-1.81,27.74-2.14,55.52c-.13,12,.53,25.71-4.78,36.93-4.9,10.36-13.07,21.3-20.32,30.55-4.82,6.15-10.32,12.15-17.63,15.68-5.79,2.8-12.38,3.87-18.89,4.47-10,.92-20.45.73-29.57-3.15-28.3-12-17.14-53.45-15.83-75.74,1.27-21.66,4.15-43.59,13.21-63.81,2.72-6.06,6-11.91,9.2-17.75C400.63,917,408,904.64,411.6,891c1-3.89,1.8-7.85,3.17-11.63,3.12-8.52,9.75-16,18.41-18.77,4.54-1.42,9.38-1.51,14.14-1.38,7.81.2,16,1,22.49,5.37A23.54,23.54,0,0,1,472.39,866.52Z" style="fill:#7f441c"/><path d="M363,1046.57c-1.79-12.92-2.15-26.53,2.43-38.39s15.14-21.49,26.85-20.75c9.78.62,18.52,8.27,23.53,17.73s6.81,20.52,7.66,31.37c1.26,16.09-1.64,30.3-3.29,46.07a33.86,33.86,0,0,1,11,1.32,8.44,8.44,0,0,1,4.19,2.3c6.34,7.29-4.36,11.4-8.82,12.23-10.31,1.92-21.16-.06-31.53-1.11-6.71-.68-13.92-2-18.77-7.32-2.79-3-4.48-7.09-5.95-11.1C366.89,1069.6,364.38,1056.46,363,1046.57Z" style="fill:#663a1d"/></g><g id="redpanda-arm-front"><path d="M420,890.55a31.66,31.66,0,0,0-8.36,5.26A64.67,64.67,0,0,0,388.91,951a42.07,42.07,0,0,0,5.74,17.73,27,27,0,0,0,6,7.11c2.53,2.08,5.83,3.21,8.06,5.65,1.8,1.95,3,4.48,4.4,6.74,1.78,2.94,4.06,6,7.38,6.83,2.2.58,5-.18,5.76-2.31a7.71,7.71,0,0,0,4.33,3.52,4.84,4.84,0,0,0,4,0,2.85,2.85,0,0,0,1.42-3.45,5.63,5.63,0,0,0,3.18,1.64,4.8,4.8,0,0,0,4.43-3,13.93,13.93,0,0,0,.92-5.56,1.71,1.71,0,0,0,2.07,0c1.78-1.11,2.08-3.56,2-5.66a16.29,16.29,0,0,0-2.32-8.41c-3.72-5.54-8.21-10.57-12-16.13-2.09-3.09-4.09-6.34-4.93-10-1.66-7.1,1.29-14.34,3.52-21.29,2.66-8.3,9.3-25.42,1.26-32.3-3.15-2.69-7.73-3.24-11.74-2.24A18.89,18.89,0,0,0,420,890.55Z" style="fill:#663a1d"/></g><g id="redpanda-head"><path d="M429.7,823.28c-.37.24-.73.48-1.08.73-9.41,6.78-16,17.08-19.75,27.94-1.18,3.39-2.11,7-1.74,10.53,1.51,14.84,22.56,22.44,35,24.85,10.85,2.12,19.92.31,29.88-4.31a44.71,44.71,0,0,0,20.34-18.53,18.79,18.79,0,0,0,2.81-8.56,19.45,19.45,0,0,0-1.72-7.61c-4.76-11.92-14.89-25.83-28-29C454.33,816.63,439.58,816.89,429.7,823.28Z" style="fill:#a05c28"/><path d="M464.59,879.38c2.53-2.64,2.76-5.74,4.45-8.72,1.46-2.55,4-3.65,4.38-6.95a7.64,7.64,0,0,0-2.86-6.69c-2.21-1.72-5.29-2.15-7.23-4.16a24.25,24.25,0,0,1-2.12-3.07c-3.51-5.13-12-7.78-16.42-2.32-2.55,3.13-2.72,7.91-5.84,10.48-1.39,1.15-3.22,1.69-4.61,2.85-2.84,2.39-3,7.09-.81,10.1,1.91,2.62,5,2.39,7,4.34s2,4.82,4.94,6.4a15.44,15.44,0,0,0,4.26,1.4,21.93,21.93,0,0,0,5.86.62A13.82,13.82,0,0,0,464.59,879.38Z" style="fill:#eac5a2"/><path d="M443.58,875a.51.51,0,0,1-.5-.49.5.5,0,0,1,.49-.51,17.32,17.32,0,0,0,9.64-3.27,3.52,3.52,0,0,1,1.38-.72,2.72,2.72,0,0,1,1.41.1,19.28,19.28,0,0,0,9.69,1,.51.51,0,0,1,.55.45.5.5,0,0,1-.45.54c-4.67.45-6.62.14-10.1-1a1.9,1.9,0,0,0-.91-.06,2.51,2.51,0,0,0-.91.5A18.44,18.44,0,0,1,443.59,875Z" style="fill:#4f3216"/><path d="M450.71,857.38a7.76,7.76,0,0,0-3.57,3.83,3.88,3.88,0,0,0-.18,3.38,4.64,4.64,0,0,0,2,1.63c2.06,1.11,4.5,2.59,6.75,1.13l1.41-.92c1.26-.82,2.65-1.85,2.73-3.35.11-2.18-1.89-4.81-3.75-5.72A5.91,5.91,0,0,0,450.71,857.38Z" style="fill:#4f3216"/><path d="M441.36,842.1a3.75,3.75,0,0,0-.76-1.32,4.63,4.63,0,0,0-4.37-.87,7.36,7.36,0,0,0-3.63,2.45,10.35,10.35,0,0,0-2.52,5.54,5.66,5.66,0,0,0,1.21,4.52,6.58,6.58,0,0,0,4.73,1.83c1.72-.07,2.76-1.28,3.61-2.36A10.06,10.06,0,0,0,441.36,842.1Z" style="fill:#eac5a2"/><path d="M460.42,837.26a4.69,4.69,0,0,0-1.82,3.65c-.24,3.54,2.06,8.91,7.29,9.28,5,.34,6.64-4.14,4.8-7.23a12.14,12.14,0,0,0-1.55-1.93C467.56,839.31,463.5,835.12,460.42,837.26Z" style="fill:#eac5a2"/><path d="M431.27,884.4a25,25,0,0,1-4.73-21.19,15.08,15.08,0,0,0,.75-3.78c0-2.93-2.22-5.39-4.64-7a21.7,21.7,0,0,0-12.54-3.73c-.44,1.09-.86,2.18-1.24,3.29-1.18,3.39-2.11,7-1.74,10.53C408.25,873.5,420.15,880.52,431.27,884.4Z" style="fill:#eac5a2"/><path d="M492.31,864.49a18.79,18.79,0,0,0,2.81-8.56,19.41,19.41,0,0,0-1.72-7.61,62.72,62.72,0,0,0-3.76-7.78c-3.24,1.21-6.08,3.48-8.78,5.71-1.87,1.55-3.85,3.27-4.35,5.64-.45,2.13.4,4.27,1.05,6.34a36.09,36.09,0,0,1-.38,22A44,44,0,0,0,492.31,864.49Z" style="fill:#eac5a2"/><path d="M438.18,848.25a5.32,5.32,0,0,0-4.63-.69,3.92,3.92,0,0,0-2.77,2.94,3.84,3.84,0,0,0,.1,1.47,5.07,5.07,0,0,0,5.53,3.61,7.77,7.77,0,0,0,2.34-.87,4,4,0,0,0,1.2-.86C441.41,852.15,439.65,849.27,438.18,848.25Z" style="fill:#3d240f"/><path d="M465,843.67c-2,1-2.59,3.14-2.77,5.19a2.4,2.4,0,0,0,.22,1.43c1,1.7,4.31,1.29,5.73.49,1.73-1,3.6-3.45,2.43-5.35A4.61,4.61,0,0,0,465,843.67Z" style="fill:#3d240f"/><path d="M434.08,848.83a1.16,1.16,0,1,0,.54,1.95,1.22,1.22,0,0,0-.54-1.95" style="fill:#fff"/><path d="M465.17,845.32a1.07,1.07,0,0,0-1,.48,1.1,1.1,0,0,0,.1,1.25,1.08,1.08,0,0,0,1.9-.76,1.1,1.1,0,0,0-.74-1" style="fill:#fff"/><path d="M411.76,815.8a24.32,24.32,0,0,0-8.62-.4,2.57,2.57,0,0,0-1.95,1.11,2.8,2.8,0,0,0-.14,1.44,79.9,79.9,0,0,0,4.65,21,5.92,5.92,0,0,1,.49,2,12.1,12.1,0,0,1-.77,2.84,5.31,5.31,0,0,0,6.24,6.5c2.33-.49,4-2.45,5.54-4.29,4.71-5.74,9.44-11.45,14.13-17.21,1.49-1.83,3.83-4.55,1.63-6.77-2-2-6.8-2.74-9.49-3.52A117.76,117.76,0,0,0,411.76,815.8Z" style="fill:#eac5a2"/><path d="M405.87,820.54a2.13,2.13,0,0,0-1.15.13c-.82.42-.77,1.59-.59,2.5A147.71,147.71,0,0,0,410,843.25c.44,1.23,1,2.61,2.28,3a4,4,0,0,0,3.25-.92,24.13,24.13,0,0,0,6.88-7.17c1.87-3,3.52-5.51,1-8.46A26.26,26.26,0,0,0,405.87,820.54Z" style="fill:#87644c"/><path d="M482.35,808.51a24,24,0,0,1,8.43-1.84,2.57,2.57,0,0,1,2.11.77,2.72,2.72,0,0,1,.38,1.38,80.11,80.11,0,0,1-1,21.53,6,6,0,0,0-.14,2.07,12.43,12.43,0,0,0,1.23,2.68,5.29,5.29,0,0,1-5.05,7.45c-2.39-.09-4.39-1.74-6.19-3.3-5.6-4.86-11.23-9.7-16.82-14.59-1.77-1.55-4.54-3.84-2.74-6.39,1.66-2.36,6.24-3.85,8.76-5.07A114.56,114.56,0,0,1,482.35,808.51Z" style="fill:#eac5a2"/><path d="M489,812.19a2.06,2.06,0,0,1,1.15-.07c.88.28,1,1.45,1,2.37a145.13,145.13,0,0,1-2.36,20.77c-.22,1.29-.57,2.75-1.73,3.34a4,4,0,0,1-3.36-.36,24.28,24.28,0,0,1-8-5.92c-2.36-2.65-4.4-4.84-2.44-8.17A26.3,26.3,0,0,1,489,812.19Z" style="fill:#87644c"/></g></svg>