<svg xmlns="http://www.w3.org/2000/svg" width="current" height="current" preserveAspectRatio="xMidYMid slice" viewBox="0 0 900 1200"><g id="Layer_29" data-name="Layer 29"><rect width="900" height="1200" style="fill:none"/></g><g id="slowth-body"><path d="M458.35,352.34c-8.24-3.93-15.75-10.2-24.59-12.88a39.38,39.38,0,0,0-23.45.59c-4.93,1.85-9.26,5.45-10.92,10.21-2.07,5.95.21,12.51,2.86,18.36a154.21,154.21,0,0,0,22.09,35.1c6.9,8.27,14.93,16,24.93,20.61A71.57,71.57,0,0,0,464.34,429c20.43,4.33,43,3.58,60.2-7.08a95.78,95.78,0,0,0,15.22-12.33c5.76-5.45,11.43-11.17,15-18.13s4.72-15.41,1.31-22.59c-3.6-7.56-11.86-12.59-20.42-14.18s-17.38-.12-25.57,2.42c-4.53,1.41-8.95,3.15-13.65,3.94C483.45,363.25,470.27,358,458.35,352.34Z" style="fill:#897f76"/><path d="M377.31,327.49c-4.57,17.2,7,35.24,25.27,35.28,7.68,0,15.12-2.59,22.15-5.69,13.86-6.12,18.06-23.91,10.6-37C422,296.71,384.25,301.35,377.31,327.49Z" style="fill:#897f76"/><path d="M385.26,325.82c-3.61,2.95-5.25,7.82-5.16,12.47.13,6.79,3.93,13.58,10,16.56A25.11,25.11,0,0,0,400.33,357a57.74,57.74,0,0,0,12.52-1c4.31-.81,8.78-2.2,11.71-5.47a15.91,15.91,0,0,0,2.16-3.22c3.35-6.42,3.35-14.7-.76-20.67s-12.45-8.93-19.13-6.13c-3.61,1.51-6.25,3.94-10.3,3.44S388.75,323,385.26,325.82Z" style="fill:#b2aaa3"/><path d="M395.52,338.41a4.16,4.16,0,0,0-.42,1.42,4.76,4.76,0,0,0,.07,2,3.91,3.91,0,0,0,2.05,2.25,10,10,0,0,0,3,.81,11.36,11.36,0,0,0,4.27,0,6.55,6.55,0,0,0,4.07-3,4,4,0,0,0,.61-1.87c.1-3.22-3.43-3.62-5.77-3.43S396.94,335.78,395.52,338.41Z" style="fill:#423933"/><path d="M391,333.53a10.27,10.27,0,0,0-1.74,2.07c-1.85,2.32-5,3.27-6.82,5.64a2.72,2.72,0,0,0-.65,1.73,2.12,2.12,0,0,0,.61,1.27c1.21,1.22,3.23,1,4.9.54a8.14,8.14,0,0,0,3.18-1.37,8.6,8.6,0,0,0,1.89-2.49,13.12,13.12,0,0,0,1.52-3.4C394.33,335.82,393.73,331.56,391,333.53Z" style="fill:#6d625a"/><path d="M408.12,331.7a3.34,3.34,0,0,0,.09,3.4,6.5,6.5,0,0,0,2.63,2.35,13.23,13.23,0,0,0,11.21.63,4.76,4.76,0,0,0,2.21-1.57,2.16,2.16,0,0,0,0-2.55,2.84,2.84,0,0,0-1.89-.81,49.75,49.75,0,0,0-5.18,0,8.54,8.54,0,0,1-5-1.74C410.9,330.59,409.19,330,408.12,331.7Z" style="fill:#6d625a"/><path d="M388.51,335.59a3.46,3.46,0,0,0-.8,1.2,2.26,2.26,0,0,0,2.65,3,3.76,3.76,0,0,0,2-1.61C394.69,335,390.83,333.18,388.51,335.59Z" style="fill:#423933"/><path d="M409.92,333.21a5,5,0,0,0,.8,1.93,2.48,2.48,0,0,0,.72.85,2.59,2.59,0,0,0,1,.33,4.05,4.05,0,0,0,2.44-.13,2.24,2.24,0,0,0,1.21-1.69C416.51,331,409.44,329.28,409.92,333.21Z" style="fill:#423933"/><path d="M390.69,336.24a.86.86,0,1,0,1.34-1.06C391.39,334.61,390.24,335.49,390.69,336.24Z" style="fill:#fff"/><path d="M412.4,332.77a1.16,1.16,0,0,0,.69.84,1.57,1.57,0,0,0,1.11,0,.9.9,0,0,0,0-1.67C413.52,331.6,412.24,331.74,412.4,332.77Z" style="fill:#fff"/><path d="M401.56,350a20.06,20.06,0,0,1-3.77-.93l-.69-.25a11.57,11.57,0,0,0-3-.8,1.11,1.11,0,1,1,.17-2.22,12.92,12.92,0,0,1,3.57.92l.67.24c3,1,5.4,1.2,7.38.51a14.87,14.87,0,0,0,3.9-2.44,24.93,24.93,0,0,1,2.85-2,1.12,1.12,0,0,1,1.11,1.94,23.29,23.29,0,0,0-2.6,1.83,16.34,16.34,0,0,1-4.52,2.77A10.73,10.73,0,0,1,401.56,350Z" style="fill:#6d625a"/></g><g id="slowth-limbs"><path d="M419.25,378.45c3.75,3.07,9.53,3.27,14.05,1.66s8.05-4.73,11.42-7.8q15-13.71,28.92-28.35a60.65,60.65,0,0,0,7.22-8.69c3.24-5,4.87-10.82,6.47-16.51,4.46-15.88,8.93-31.79,11.36-48.1.71-4.76.92-10.36-3.14-13.76s-10.65-2.79-14.78.07-6.3,7.4-8,11.84c-7.47,19.64-9.3,42.19-24.64,57.54-4.41,4.41-9.76,8-14.5,12.15C424.29,346.7,403.57,365.62,419.25,378.45Z" style="fill:#938980"/><path d="M532.39,374.55c-.72-9.34,3.73-18.36,9.46-25.77s12.78-13.68,18.57-21A78.53,78.53,0,0,0,571,309.8c1.6-3.75,3.59-8.22,7.61-8.87,4.88-.79,8.34,4.7,9.48,9.52,3.54,15-1.49,30.66-7.46,44.88q-3.9,9.27-8.35,18.27c-3.91,7.9-8.5,16-16.08,20.49C541.73,402.64,533.36,387.27,532.39,374.55Z" style="fill:#938980"/></g></svg>