<svg xmlns="http://www.w3.org/2000/svg" width="current" height="current" preserveAspectRatio="xMidYMid slice" viewBox="0 0 999.45 1200"><g id="Layer_29" data-name="Layer 29"><rect width="900" height="1200" style="fill:none"/></g><g id="stag-body"><path d="M996.86,725.38c2.08,4,3.87,9,1.36,12.72-3.07,4.55-9.9,3.65-15.2,2.22-11-3-22.4-6.09-31.2-13.34a13.42,13.42,0,0,1-3.55-4c-5.24-10-3.81-41.23,13.73-36.19C976.45,690.94,990.4,713.08,996.86,725.38Z" style="fill:#936135"/><path d="M979.94,1004.52a305.17,305.17,0,0,1,8.12-86.58c1.23-5.1,2.6-10.24,2.58-15.49s-.59-10.28-4.7-13.34a52.13,52.13,0,0,1-19.54-31.2c-3.83-19,2.87-38.38,4.69-57.7a114.73,114.73,0,0,0-1.48-32c-1.3-6.92-3.29-13.82-7-19.74A41.81,41.81,0,0,0,948,734.6a48.15,48.15,0,0,0-48,.34c-40.94,24.4-20.78,84-2,116.88a183,183,0,0,0,59.7,63.24c2.8,1.8.53,7.23,1.09,10.6a171.93,171.93,0,0,1-3.4,72.13c-3,11.41-14,20.82-15.12,32.6a3.3,3.3,0,0,0,.1,1.5c.45,1.22,2,1.49,3.21,1.58l27.4,1.93a49.76,49.76,0,0,1,6.63-21A17.61,17.61,0,0,0,979.94,1004.52Z" style="fill:#936135"/><path d="M662.44,1031.76c2.1-4,3-10.13,4-13,2.18-6.91,2.44-12.49,2.46-19.7a411.9,411.9,0,0,1,2.58-46.7c3.14-23.7,13.21-49.58,21.37-71.92,6.85-18.74,11.26-39.67,15.84-59.43a120.89,120.89,0,0,0-.73-55.39c-3.51-14.08-9.89-27.62-20.15-36.3-16.84-14.26-41.14-9.59-55.27,8.34-10.65,13.51-15.09,32.68-12.52,50.23,2.5,17.13,9.46,32.76,17.83,46.94,6.84,11.59,20.78,26.17,20,41.31-.95,17.76-5.58,34.34-8,51.76-.81,5.81-.08,11.58-.06,17.39,0,4.82-1.22,8.78-1.79,13.49-1.21,10.07-1.32,20.19-1.94,30.29-.66,10.69-2.8,16.81-8.2,25.77-2.06,3.43-11.32,18-7.82,22,1.61,1.82,11.42.57,13.79.47a101.88,101.88,0,0,0,14.67-1.7C660.1,1035.19,661.41,1033.73,662.44,1031.76Z" style="fill:#936135"/><path d="M644.74,829.47c14.72,11.43,34.1,15.14,52.74,15.21s37.12-3.11,55.73-3.88c26.95-1.1,53.82,2.88,80.76,4.05s54.85-.66,79.06-12.56c20.45-10.06,44.05-27.51,53.94-48.65,11.09-23.69,12.49-51.58,4.61-76.46-4.28-13.49-9-21.63-21-29a107.67,107.67,0,0,0-36.44-14.42c-26.25-4.89-53.09,1.44-79.48,5.46a461.18,461.18,0,0,1-105.26,3.85c-38.84-3-80.22-8.55-108.11,24.71-18.84,22.48-11.3,55.45-4.86,81.83C621.06,798.35,629.11,817.33,644.74,829.47Z" style="fill:#a57644"/><path d="M919.9,1010.49l20.49-69.92c1.84-6.28,3.7-12.6,6.68-18.43,2.52-4.91,4.49-8,3.51-13.47-1.25-7-5-12.5-6.54-19.31-2-8.82-1.4-18.9.09-27.74,2.71-16,9.93-30.88,14.77-46.39,5.88-18.87,8.17-39.44,2.47-58.37s-20.46-35.81-39.68-40.41c-33.39-8-71.11,17.48-73.62,51.59-1.66,22.72,7.89,45.13,21.83,63.15,6.35,8.2,13.6,15.67,19.74,24,12.21,16.63,19.61,36.22,26.87,55.54,3.76,10-1.32,15.38-4.65,25.55-6.89,21.06-12.16,42.62-17.43,64.14L891,1014.68c-.16.64-.23,1.48.35,1.78s.93-1.08.32-.83c-13.07,5.42-19.86,22.83-23.46,36.51a2.48,2.48,0,0,0-.09,1.29c.34,1.08,1.82,1.13,2.94,1a173.32,173.32,0,0,1,33-1.29C906.87,1037,915.29,1026.22,919.9,1010.49Z" style="fill:#a57644"/><path d="M725,1039.22c.71-4.47,2-8.81,3-13.31,1.52-7.12,1.09-12.69.19-19.86a371.68,371.68,0,0,1-3.14-46.68c.44-23.9,8.24-50.77,14.39-73.9,5.17-19.41,7.35-40.71,9.87-60.86,2.31-18.39-.78-38-7.89-54.94-5.69-13.58-14.47-26.29-26.91-33.74-20.44-12.22-46.67-4.78-60,14.66-10,14.65-12.48,34.2-7.4,51.34,5,16.72,14.66,31.45,25.71,44.57,9,10.72,26.31,23.6,27.35,38.73C701.41,903,698.42,920,698,937.57c-.16,5.87,1.38,11.52,2.15,17.28.63,4.8-.22,8.87-.24,13.62-.05,10.13,1.12,20.21,1.73,30.31.65,10.69-.94,17-5.74,26.54-3.24,6.42-6.45,13.8-6.09,21.2.32,6.73,6.68,3.38,12.38,3.07a195.8,195.8,0,0,1,20.7.05,2,2,0,0,0,1.11-.15c.68-.39.69-1.39.63-2.2A34.32,34.32,0,0,1,725,1039.22Z" style="fill:#a57644"/></g><g id="stag-head"><path d="M608.3,764.57c10.28,10.19,25.1,23.9,40.36,24.22,8.33.17,16.15-4,22.74-9.13,25.58-19.74,37.81-55.28,29.79-86.58-6.16-24-31.66-31.24-43.18-51.87-6-10.67-8.5-24.56-11.42-36.32-1.72-7-3.36-14-6.41-20.49s-7.66-12.49-14-15.82c-6.95-3.65-15.25-3.77-23-2.53-11.59,1.85-24.75,7.67-29.33,19.3a138.46,138.46,0,0,0-9.36,38.88c-2.32,27.78,3.34,55.79,11.24,82.29C582.13,728,592.39,748.77,608.3,764.57Z" style="fill:#a57644"/><path d="M715.57,425a6.45,6.45,0,0,0-2.64,1.26,31,31,0,0,1-12.6,4.77,109.27,109.27,0,0,0,11.51-26.79c.85-3.12,1.53-6.43.78-9.57a2.53,2.53,0,0,0-1.09-1.75c-1-.53-2.21.33-2.92,1.23-2.42,3-3.26,7-4.27,10.71-3.22,11.84-8.62,20.09-17.72,28.26-2.46,2.2-5,4.3-7.58,6.37-3.92-2.43-7.25-6.58-9.6-11.38-3.44-7.06-5-15.37-5.78-23.55-.52-5.36-.81-11-3-15.71-.58-1.27-1.59-2.59-2.63-2.19-.7.28-1.06,1.25-1.32,2.15-2.78,9.56-1.57,20.51-.14,30.87,1.28,9.32,2.77,18.81,6.39,27.13a29.71,29.71,0,0,0,2.24,4.26c-1.26,1.18-2.51,2.38-3.71,3.63a74.1,74.1,0,0,0-8.38,10.25,61.61,61.61,0,0,0-3.13,5.4,8.61,8.61,0,0,0-.91-.68c-3.55-2.35-8.1-3-11.36-5.73-4.55-3.82-5.25-10.49-5.19-16.43a128,128,0,0,1,2.77-25.29c.23-1.12.41-2.47-.44-3.24a2.23,2.23,0,0,0-2.85.2,6.2,6.2,0,0,0-1.56,2.67c-5,13.26-8,27.64-5.91,41.67a17.5,17.5,0,0,0,1.64,5.79,17.86,17.86,0,0,0,3.71,4.43A59.16,59.16,0,0,0,644,483.55c-3,6.76-6.13,13.35-11.17,18.67-4.85,5.13-11.11,8.7-16.31,13.48-1,.94-2,1.94-3,2.95l-1.22-.07c-9.51-.5-17.83-7.23-22.58-15.48s-6.48-17.85-7.63-27.3c-.44-3.52-.82-7.13-2.41-10.3-1-.15-1.7.86-2.08,1.77-1.69,3.94-1.82,8.37-1.43,12.64.61,6.75,2.44,13.31,4.26,19.84A51.11,51.11,0,0,0,584.08,510c2.34,4.44,5.94,8.08,9.48,11.65,3,3,6,6,9.87,7.62l.11,0c-.46.42-.91.84-1.39,1.24-5.85,4.91-13,8-19.81,11.4-6.12-2.57-12.71-3.92-18.72-6.73-6.37-3-12.33-8.28-13.25-15.25-.38-2.88.12-5.9-.83-8.65-.45-1.27-1.6-2.6-2.89-2.24-1,.28-1.46,1.39-1.74,2.37-2.24,7.69-1.27,16.9,4.63,22.32a32.12,32.12,0,0,0,6.79,4.4L573.05,547c-4.17,2.67-8.09,6-9.52,9.94-2.28,6.31,2.6,12.83,8.67,14.25s12.61-.22,15.87-5.49a48.06,48.06,0,0,1,12.75-13.6c3-2.19,6.39-4,9-6.71,4.08-4.15,6.11-9.89,9.67-14.49,6.23-8,16.49-11.89,23.73-19a36.37,36.37,0,0,0,2.75-3.09c7.72-1.26,15.89-6.57,21.62-11.55,2.27-2,4.45-4.25,5.36-7.12.38-1.22.36-2.86-.79-3.43a2.89,2.89,0,0,0-2.53.35c-3.32,1.7-5.9,4.6-9.19,6.36a33.86,33.86,0,0,1-6.78,2.38c4.45-9.75,7.75-20.34,14.65-28.48,3.49-4.13,7.8-7.48,11.79-11.13a107.62,107.62,0,0,0,15.38-17.67,7.85,7.85,0,0,0,1,0c4.49-.36,9.46-2.62,13.41-4.67a19.44,19.44,0,0,0,7.34-5.83,2.45,2.45,0,0,0,.56-1.56A1.92,1.92,0,0,0,715.57,425Z" style="fill:#4f3216"/><path d="M588.38,628.81a32.71,32.71,0,0,0,12.5-16c2.48-7.07,3.85-8.92,11.67-11,5.6-1.52,11.18-3.66,15.58-7.44s7.47-9.48,6.94-15.26c-.61-6.74-5.79-12.16-11.29-16.1-16.72-12-48.49-18.4-66.4-4.92-3.21,2.42-5.53,5.78-8.65,8.3-3.32,2.68-7.23,4.34-9.88,7.86-6.55,8.68-15.7,14.27-24.26,20.69-6.68,5-17.36,8.58-22.13,15.49-2,2.94-3.63,8.81-3,12.35.95,5.11,6.87,5.59,11.63,5.93,1.38,4.53,6.75,8.26,11.33,9.49,6.12,1.65,12.36,0,18.57-.27,7.79-.32,15.59,0,23.39-.23C566.25,637.28,578.55,635.46,588.38,628.81Z" style="fill:#a57644"/><path d="M504.85,609.59a5.18,5.18,0,0,0-2.31-.29,22.1,22.1,0,0,0-8.47,1.79,15.16,15.16,0,0,0-3.58,2.3c-1.19,3-1.9,6.76-1.42,9.31.6,3.28,3.26,4.65,6.33,5.3.37-.77.66-1.58,1-2.38a37.34,37.34,0,0,1,2.37-5c1.68-3,5.27-4.18,7-7.11a3.23,3.23,0,0,0,.55-2A2.44,2.44,0,0,0,504.85,609.59Z" style="fill:#4f3216"/><path d="M575.58,578.58,572.5,577c-.6-.31-1.18-.66-1.78-1a24.55,24.55,0,0,0-2.26-1.28,18.63,18.63,0,0,0-4.6-1.55,17.58,17.58,0,0,0-5-.32,14.82,14.82,0,0,0-4.9,1.27,14.58,14.58,0,0,0-4.15,2.93,21.29,21.29,0,0,0-2.94,3.89c-.58.94-1.12,1.91-1.65,2.84a36.74,36.74,0,0,1-3.11,4.94l-2.29,2.9,3-2.19,0,0h0a25.93,25.93,0,0,0,5.12-5.66c.34-.46.67-.91,1-1.35,2.14-2.88,4.06-4.59,6.24-5.54a15.28,15.28,0,0,1,8.2-1.14,21,21,0,0,1,4.28.87c.58.16,1.16.37,1.76.59a18,18,0,0,0,2.61.79h0l0,0ZM555,574.76l-1,.43.39-.2Zm1-.36-.55.17Zm-.25,1.11-.45.19Zm-1.15.51-.53.26Zm-1.59-.24.53-.33C553.36,575.55,553.18,575.67,553,575.78Z" style="fill:#4f3216"/><path d="M552.28,576.44c-.27.25-.53.5-.79.77a6.77,6.77,0,0,0-1.66,2.21,5.75,5.75,0,0,0-.28,1.14,2.67,2.67,0,0,0,.26,1.87,3.23,3.23,0,0,0,2,1.19,16.37,16.37,0,0,0,6.18.64,9.48,9.48,0,0,0,5.6-2.5,5.86,5.86,0,0,0,1.6-2.55,3.92,3.92,0,0,0-.29-3,4.14,4.14,0,0,0-2.09-1.75,8.09,8.09,0,0,0-2.71-.51,12.35,12.35,0,0,0-6.16,1.22A7.61,7.61,0,0,0,552.28,576.44Z" style="fill:#4f3216"/><path d="M749.35,446.77a6.34,6.34,0,0,0-2.81.8,30.92,30.92,0,0,1-13.22,2.57,109.48,109.48,0,0,0,15.87-24.46c1.36-2.94,2.59-6.07,2.38-9.3a2.55,2.55,0,0,0-.78-1.92c-.92-.68-2.23,0-3.09.73-2.89,2.58-4.38,6.32-6,9.83-5.17,11.13-11.88,18.35-22.24,24.86-2.79,1.76-5.66,3.4-8.54,5-3.45-3.06-6-7.71-7.54-12.84-2.2-7.54-2.31-16-1.72-24.19.39-5.37,1.05-11-.28-16-.36-1.35-1.13-2.83-2.22-2.6-.74.15-1.26,1-1.67,1.88-4.35,9-5,20-5.35,30.41-.31,9.4-.44,19,1.72,27.83a30.89,30.89,0,0,0,1.49,4.57c-1.44.95-2.87,1.92-4.27,2.95a73.75,73.75,0,0,0-10,8.69c-1.42,1.52-2.73,3.13-4,4.79a8.57,8.57,0,0,0-.77-.82c-3.11-2.92-7.49-4.32-10.24-7.57-3.84-4.53-3.4-11.22-2.34-17.07a128.84,128.84,0,0,1,7-24.45c.43-1.07.84-2.38.13-3.28a2.24,2.24,0,0,0-2.85-.28,6.36,6.36,0,0,0-2,2.36c-7.19,12.23-12.51,25.9-12.86,40.08a17.49,17.49,0,0,0,.64,6,18,18,0,0,0,2.91,5,58.7,58.7,0,0,0,12.19,12.09c-4.06,6.17-8.3,12.13-14.16,16.52-5.65,4.24-12.42,6.7-18.35,10.53-1.18.75-2.31,1.57-3.42,2.41l-1.2-.28c-9.28-2.1-16.35-10.14-19.64-19.06s-3.37-18.7-2.92-28.2c.17-3.55.4-7.17-.62-10.57-.94-.31-1.82.57-2.36,1.4-2.33,3.6-3.2,7.95-3.54,12.22-.54,6.75.16,13.53.85,20.27a51.39,51.39,0,0,0,1.87,10.68c1.56,4.77,4.49,9,7.38,13.08,2.41,3.43,4.91,6.94,8.44,9.18l.1.06c-.52.33-1,.67-1.57,1-6.6,3.86-14.14,5.66-21.46,7.9-5.59-3.56-11.87-6-17.31-9.8-5.77-4-10.76-10.24-10.49-17.26.11-2.91,1.12-5.8.64-8.67-.22-1.32-1.13-2.83-2.47-2.69-1,.1-1.66,1.12-2.11,2-3.5,7.2-4.1,16.44.79,22.78a32.34,32.34,0,0,0,6,5.48l15,11.59c-4.57,1.92-9,4.52-11.07,8.18-3.31,5.84.4,13.09,6.14,15.51s12.47,1.92,16.58-2.72a47.79,47.79,0,0,1,14.86-11.26c3.38-1.64,7-2.9,10-5.09,4.72-3.4,7.69-8.72,12-12.65,7.5-6.88,18.26-8.93,26.6-14.77a35.24,35.24,0,0,0,3.24-2.58c7.81.06,16.76-3.79,23.25-7.73,2.57-1.57,5.1-3.44,6.49-6.12.58-1.13.84-2.76-.2-3.51a2.88,2.88,0,0,0-2.55-.08c-3.56,1.12-6.59,3.54-10.13,4.71a33.71,33.71,0,0,1-7.09,1.21c6-8.86,11.08-18.74,19.24-25.6,4.15-3.48,9-6,13.51-9a107.57,107.57,0,0,0,18.14-14.82,8.31,8.31,0,0,0,1,.14c4.48.41,9.77-1,14-2.34a19.32,19.32,0,0,0,8.22-4.5,2.43,2.43,0,0,0,.82-1.45C751.36,447.6,750.34,446.83,749.35,446.77Z" style="fill:#66432b"/><ellipse cx="560.29" cy="577.61" rx="1.45" ry="1.41" style="fill:#fff"/><path d="M600.65,556.29c-3.17,4.16-1.16,10.56,2.87,13.89s9.43,4.36,14.57,5.29c3.36.6,6.82,1.21,10.16.53,3.71-.75,6.93-3,9.78-5.48a58.67,58.67,0,0,0,19.57-37.23c.18-1.58.22-3.39-.91-4.53a4.36,4.36,0,0,0-3-1.06c-3-.06-5.86,1.34-8.56,2.71l-32.84,16.64a38.11,38.11,0,0,0-8.24,5.11,12.81,12.81,0,0,0-4.57,8.32" style="fill:#a57644"/><path d="M627.09,544.45a21.6,21.6,0,0,0-6,4.74c-2.66,3.36-3.21,7.88-3.65,12.14-.18,1.75-.34,3.62.51,5.16,1.17,2.11,3.87,2.88,6.28,2.83,6.18-.14,11.59-4.16,15.87-8.62a64.33,64.33,0,0,0,12.24-18.18c1.07-2.4,2.24-5.92.72-8.4-1.72-2.8-4-.88-6.66.3A179.92,179.92,0,0,0,627.09,544.45Z" style="fill:#936135"/><path d="M570.44,636c3.37-1.72,6.71-3.32,9.92-5.11a66.16,66.16,0,0,0,9-6,43.41,43.41,0,0,0,7.48-7.72A36.57,36.57,0,0,0,602,607.5a22.51,22.51,0,0,1-3.17,11,31,31,0,0,1-7.55,8.77,39.81,39.81,0,0,1-9.93,5.79A45.49,45.49,0,0,1,570.44,636Z" style="fill:#936135"/><path d="M506.32,628.76A50,50,0,0,1,512.2,627q3-.71,6-1.2a34.36,34.36,0,0,1,6.14-.6,9.41,9.41,0,0,1,5.94,1.89c-4-1.18-7.73.07-11.76.69q-3,.48-6,.76A48,48,0,0,1,506.32,628.76Z" style="fill:#936135"/></g></svg>