<svg xmlns="http://www.w3.org/2000/svg" width="current" height="current" preserveAspectRatio="xMidYMid slice" viewBox="0 0 900 1200"><g id="Layer_29" data-name="Layer 29"><rect width="900" height="1200" style="fill:none"/></g><g id="tamarin-body"><path d="M820.7,218.63c2.9-14.12-.59-30.4-6.17-42.58a65.2,65.2,0,0,0-29.31-30.77c-17-8.66-41.45-8.14-58.36.68a40.76,40.76,0,0,0-6.12,3.69c-7.22,5.56-9.62,14.65-8.38,23.36,1.11,7.78,4.38,15.1,8.31,21.91a61.11,61.11,0,0,0,7.84,11c4.79,5.18,10.83,9.06,15.72,14.14,14.13,14.67,20.13,42.93,46.8,31.15,6-2.66,11.26-6.79,16.28-11,3.33-2.8,6.65-5.74,8.85-9.49A39.14,39.14,0,0,0,820.7,218.63Z" style="fill:#af6b2b"/><path d="M752.17,200a33,33,0,0,0-5.11,16.08,59.07,59.07,0,0,0,1.72,16.65c.37,1.51,4.16,15.27,5.54,15.08-5.8.78-14.39,1.53-19.14,5.15a18.8,18.8,0,0,0-4.51,5.68,81.08,81.08,0,0,0-5.8,12.2c-.44,1.18-.76,2.72.22,3.51,1.18.95,2.9-.26,3.69-1.56s1.5-2.94,3-3.23a8.79,8.79,0,0,0-1,6.34,19.72,19.72,0,0,0,5.67-5.09L736,274c1.24.07,2.14-1.1,2.87-2.11,7.72-10.68,20.06-12.59,32.24-12.72,5.24,0,11-1,14.37-5.07,5.15-6.16,5.33-19.27,5.33-26.92,0-9.7-1.85-19.64-6.77-28.1-2.8-4.82-7.05-9-12.35-10.7a11.53,11.53,0,0,0-4.76-.59,13.77,13.77,0,0,0-6.74,3.26A35.67,35.67,0,0,0,752.17,200Z" style="fill:#af6b2b"/></g><g id="tamarin-arm"><path d="M665.58,198.68a12.57,12.57,0,0,0-8,6.8,3.2,3.2,0,0,0-.42,2,1.32,1.32,0,0,0,1.54,1.07,1.88,1.88,0,0,0,.76-.61,17.56,17.56,0,0,1,2.34-2.67,3.26,3.26,0,0,1,3.3-.66,31.05,31.05,0,0,0-5.43,7.06c-1,1.72-1.65,4.18-.12,5.44l3.89-4.75c1.3-1.59,3.15-3.35,5.1-2.71a8.54,8.54,0,0,1-1.71,2.68c-.62.87-1,2.19-.18,2.93,1.14,1.12,2.9-.26,4.22-1.16,3.26-2.24,7.73-1.27,11.34.35s7.12,3.87,11.08,4a2.49,2.49,0,0,0,1.57-.33c.94-.66.75-2.14.17-3.14a13.31,13.31,0,0,0-4.45-4.11C688.44,209.48,668.25,193.91,665.58,198.68Z" style="fill:#995d2b"/><path d="M735.92,170.93c-3.29,2.84-5,7-6.63,11.08l-7.11,17.78c-1.42,3.55-3,7.35-6.31,9.32a15.26,15.26,0,0,1-6.44,1.76,49.49,49.49,0,0,1-17-1.38c-2.39-.62-4.83-1.44-7.28-1.11s-4.9,2.27-4.82,4.74c.06,1.8,1.4,3.29,2.7,4.54,6.76,6.46,15,11.65,24.16,13.5s19.29,0,26.44-6c7.81-6.59,11.06-16.94,16.27-25.72,3-5.09,6.88-10,7.61-15.89C758.77,173.24,744.31,163.66,735.92,170.93Z" style="fill:#af6b2b"/></g><g id="tamarin-tail"><path d="M818.2,298.89c-1.93,21-5.57,43.26-19.69,58.91-7.56,8.39-19.32,14.47-30.07,11-6.61-2.11-11.8-7.58-14.75-13.86s-3.9-13.33-4-20.28c0-2.47.89-11.12,5.6-6.82,1.25,1.14,1.66,2.92,2.06,4.57a82.3,82.3,0,0,0,6.22,17.14c1.72,3.48,4.06,7.13,7.81,8.12a11.7,11.7,0,0,0,7.19-.86c8.59-3.39,14.91-11.13,18.45-19.65s4.6-17.86,5.25-27.07a329,329,0,0,0,.39-39.72c-.57-11.34-1.48-23.45-.52-34.78.51-6.07,4.27-21.87,12.63-21.09s5.79,14.14,5.88,19.83A599.31,599.31,0,0,1,818.2,298.89Z" style="fill:#c17536"/></g><g id="tamarin-head"><path d="M704.88,127.52a10.54,10.54,0,0,0-6,2.45c-14.43,10.91-11.59,33.6-11.23,49.47A197,197,0,0,0,708,191.9a24.28,24.28,0,0,0,7.5,2.9c7.53,1.16,8.14-5.67,12-10.42a48.3,48.3,0,0,1,14.71-11.82c1.8-1,20.38-7.45,20.38-7.31-.16-4.48-2.26-9.59-3.65-13.84-1.22-3.73-2.45-7.94-4.31-11.39a36.11,36.11,0,0,0-16.77-15.54,25.31,25.31,0,0,0-14.09-2.38,19.34,19.34,0,0,0-9.86,4.72c-1.11,1-2.33,3.33-3.79,3.32S707,127.5,704.88,127.52Z" style="fill:#c17536"/><path d="M701.66,153.15a25.4,25.4,0,0,0,3.83,8.49c1.55,2.46,3.43,5.06,6.25,5.73s5.49-.71,8.27-1.08a14.93,14.93,0,0,0,3.34-.54c2.41-.92,3.56-3.61,4.4-6a31.45,31.45,0,0,0,2-8.78,12.37,12.37,0,0,0-2.5-8.47c-3-3.63-7-3.17-10.67-.82-2.67,1.72-4.18,1.28-7,1.08a7.27,7.27,0,0,0-6,2.08C701.58,147,701.13,150.31,701.66,153.15Z" style="fill:#c1b0b9"/><path d="M728.16,158.47a1.21,1.21,0,0,0-.08-.25,11,11,0,0,0-5-5.52c-1.24-.7-2.57-1.21-3.74-2a9.1,9.1,0,0,1-3.72-5.46,9.38,9.38,0,0,0-.77-2.72,6.92,6.92,0,0,1-2.74.4c.1.86.58,2,.66,2.61a13.13,13.13,0,0,1-1.6,8c-.92,1.61-2.18,3-3,4.65a8.86,8.86,0,0,0-.73,6.22,8.18,8.18,0,0,0,4.28,3c2.73.65,5.49-.71,8.27-1.08a14.93,14.93,0,0,0,3.34-.54c2.41-.92,3.56-3.61,4.4-6C727.89,159.3,728,158.88,728.16,158.47Z" style="fill:#a3919b"/><path d="M710.37,164.84a.48.48,0,0,1-.47-.35.49.49,0,0,1,.32-.62,7.51,7.51,0,0,0,2.29-1.44,9.52,9.52,0,0,1,2.27-1.5,8.33,8.33,0,0,1,3.41-.45,61.11,61.11,0,0,1,6.81.71.5.5,0,0,1,.42.56.49.49,0,0,1-.56.43,62.33,62.33,0,0,0-6.7-.7,7.37,7.37,0,0,0-3,.38,8.29,8.29,0,0,0-2,1.35,8.52,8.52,0,0,1-2.61,1.61Z" style="fill:#352d27"/><path d="M711.83,156.81a1.16,1.16,0,0,0-.73-.1.56.56,0,0,0-.44.55c0,.34.45.51.79.56s1.27.23,1.34-.26C712.83,157.26,712.06,156.9,711.83,156.81Z" style="fill:#352d27"/><path d="M720.67,154.85a.67.67,0,0,1,.84.08.56.56,0,0,1-.07.68,1.66,1.66,0,0,1-.61.4,9,9,0,0,1-1.39.61A2.75,2.75,0,0,1,720.67,154.85Z" style="fill:#352d27"/><path d="M708.54,147.13a4,4,0,0,0-2.51,1,3,3,0,0,0-.93,1.21,1,1,0,0,0,0,.71,1.11,1.11,0,0,0,.22.34,3.61,3.61,0,0,0,2.88,1.5,4.17,4.17,0,0,0,1-.24,6.74,6.74,0,0,0,2-1c.63-.52.55-.84.23-1.52A3.15,3.15,0,0,0,708.54,147.13Z" style="fill:#352d27"/><path d="M721.1,144.61a6.5,6.5,0,0,1,2.52.12,1.08,1.08,0,0,1,.81.46,1.13,1.13,0,0,1,.06.55,4.5,4.5,0,0,1-.39,1.71,3.27,3.27,0,0,1-2.19,1.58,3,3,0,0,1-1.65.05,6.13,6.13,0,0,1-1.58-.43.64.64,0,0,1-.2-.58A3.38,3.38,0,0,1,721.1,144.61Z" style="fill:#352d27"/><path d="M708.91,149a.64.64,0,1,0,.4-1.22C708.43,147.51,707.91,148.74,708.91,149Z" style="fill:#fff"/><path d="M722,146.43a.64.64,0,1,0,.4-1.22C721.55,144.93,721,146.16,722,146.43Z" style="fill:#fff"/></g></svg>