<svg xmlns="http://www.w3.org/2000/svg" width="current" height="current" preserveAspectRatio="xMidYMid slice" viewBox="0 0 1106.01 1503.79"><g id="Layer_2" data-name="Layer 2"><rect x="103.12" y="304.79" width="899.39" height="1199" style="fill:none"/></g><g id="vine-1"><path d="M827.33,393.43a532.86,532.86,0,0,1-70.74-4.7C691.56,380,645,359.68,614.25,326.6a3,3,0,0,1,4.4-4.09c29.76,32,75.14,51.74,138.74,60.27a531.31,531.31,0,0,0,242.13-24,3,3,0,0,1,2,5.68A537.24,537.24,0,0,1,827.33,393.43Z" transform="translate(102.51 304.79)" style="fill:#12753a"/><path d="M630.89,355.88a10.52,10.52,0,0,1,.51-17.48,12.1,12.1,0,0,1,3.18,9.07C634.36,350.75,631.19,355.86,630.89,355.88Z" transform="translate(102.51 304.79)" style="fill:#12753a"/><path d="M663.17,375.65a10.52,10.52,0,0,1-2.8-17.25,12.13,12.13,0,0,1,4.84,8.29C665.61,370,663.47,375.57,663.17,375.65Z" transform="translate(102.51 304.79)" style="fill:#12753a"/><path d="M698.4,388.87a10.53,10.53,0,0,1-4.8-16.81,12.07,12.07,0,0,1,5.77,7.67C700.15,382.93,698.69,388.76,698.4,388.87Z" transform="translate(102.51 304.79)" style="fill:#12753a"/><path d="M733,398.75a10.53,10.53,0,0,1-4.8-16.81,12.12,12.12,0,0,1,5.78,7.67C734.79,392.81,733.33,398.64,733,398.75Z" transform="translate(102.51 304.79)" style="fill:#12753a"/><path d="M771.66,403.05a10.52,10.52,0,0,1-6.2-16.34,12.14,12.14,0,0,1,6.4,7.16C772.91,397,771.94,402.92,771.66,403.05Z" transform="translate(102.51 304.79)" style="fill:#12753a"/><path d="M812.69,405.12A10.52,10.52,0,0,1,803,390.56a12.11,12.11,0,0,1,7.83,5.57C812.56,398.94,812.93,404.93,812.69,405.12Z" transform="translate(102.51 304.79)" style="fill:#12753a"/><path d="M856.35,403.22a10.53,10.53,0,0,1-12.2-12.52,12.1,12.1,0,0,1,8.73,4C855.08,397.16,856.55,403,856.35,403.22Z" transform="translate(102.51 304.79)" style="fill:#12753a"/><path d="M899.93,401.58a10.52,10.52,0,0,1-12.19-12.52,12.08,12.08,0,0,1,8.72,4C898.66,395.52,900.13,401.35,899.93,401.58Z" transform="translate(102.51 304.79)" style="fill:#12753a"/><path d="M940.55,394.11a10.53,10.53,0,0,1-12.2-12.52,12.08,12.08,0,0,1,8.72,4C939.27,388.05,940.75,393.88,940.55,394.11Z" transform="translate(102.51 304.79)" style="fill:#12753a"/><path d="M986.4,381.71a10.53,10.53,0,0,1-15-9,12.11,12.11,0,0,1,9.46,1.66C983.62,376.17,986.53,381.43,986.4,381.71Z" transform="translate(102.51 304.79)" style="fill:#12753a"/><path d="M649.76,337.71a11.53,11.53,0,0,0-9.88-3.26,6.83,6.83,0,0,0-2.84,1.09,11.55,11.55,0,0,0-2.5,2.82,8,8,0,0,0,7.51,2.92A17.11,17.11,0,0,0,649.76,337.71Z" transform="translate(102.51 304.79)" style="fill:#1b8c48"/><path d="M678.25,354.23a11.52,11.52,0,0,0-10.31-1.32,6.73,6.73,0,0,0-2.58,1.61,11.48,11.48,0,0,0-1.92,3.24,8,8,0,0,0,7.92,1.44A16.91,16.91,0,0,0,678.25,354.23Z" transform="translate(102.51 304.79)" style="fill:#1b8c48"/><path d="M710.88,365.83a11.52,11.52,0,0,0-10.4-.11,6.78,6.78,0,0,0-2.37,1.9,11.67,11.67,0,0,0-1.54,3.44,8,8,0,0,0,8,.51A16.94,16.94,0,0,0,710.88,365.83Z" transform="translate(102.51 304.79)" style="fill:#1b8c48"/><path d="M745.52,375.71a11.52,11.52,0,0,0-10.4-.11,6.78,6.78,0,0,0-2.37,1.9,11.67,11.67,0,0,0-1.54,3.44,8,8,0,0,0,8,.51A16.94,16.94,0,0,0,745.52,375.71Z" transform="translate(102.51 304.79)" style="fill:#1b8c48"/><path d="M782.15,379.05a11.51,11.51,0,0,0-10.37.77,6.68,6.68,0,0,0-2.21,2.09,11.29,11.29,0,0,0-1.23,3.56,8,8,0,0,0,8-.17A17.11,17.11,0,0,0,782.15,379.05Z" transform="translate(102.51 304.79)" style="fill:#1b8c48"/><path d="M817.6,379.39a11.54,11.54,0,0,0-9.94,3.05A6.87,6.87,0,0,0,806,385a11.81,11.81,0,0,0-.42,3.74,8,8,0,0,0,7.82-1.95A16.89,16.89,0,0,0,817.6,379.39Z" transform="translate(102.51 304.79)" style="fill:#1b8c48"/><path d="M856.42,377a11.52,11.52,0,0,0-9.21,4.84,6.82,6.82,0,0,0-1.19,2.79,11.49,11.49,0,0,0,.28,3.76,8,8,0,0,0,7.32-3.36A17,17,0,0,0,856.42,377Z" transform="translate(102.51 304.79)" style="fill:#1b8c48"/><path d="M900,375.39a11.51,11.51,0,0,0-9.21,4.83,6.8,6.8,0,0,0-1.19,2.8,11.73,11.73,0,0,0,.28,3.75,8,8,0,0,0,7.33-3.36A17,17,0,0,0,900,375.39Z" transform="translate(102.51 304.79)" style="fill:#1b8c48"/><path d="M940.61,367.92a11.5,11.5,0,0,0-9.2,4.83,6.67,6.67,0,0,0-1.19,2.8,11.17,11.17,0,0,0,.28,3.75,8,8,0,0,0,7.32-3.36A17,17,0,0,0,940.61,367.92Z" transform="translate(102.51 304.79)" style="fill:#1b8c48"/><path d="M979.78,356.36a11.53,11.53,0,0,0-7.67,7,6.82,6.82,0,0,0-.44,3,11.45,11.45,0,0,0,1.24,3.56,8,8,0,0,0,6.22-5.12A17,17,0,0,0,979.78,356.36Z" transform="translate(102.51 304.79)" style="fill:#1b8c48"/></g><g id="vine-2"><path d="M-57.83,106.06a25.1,25.1,0,0,1-7-15.12,27.63,27.63,0,0,1,3.55-16.85c3.67,4.78,6.56,7.43,7.81,13.84S-53.73,101.86-57.83,106.06Z" transform="translate(102.51 304.79)" style="fill:#1b8c48"/><path d="M-54.1,79.57c2.18-5.3,6.09-9.47,10.64-11.37a15.51,15.51,0,0,1,14,1.09c-3.08,5.38-4.63,9.41-9.47,12.16A12.51,12.51,0,0,1-54.1,79.57Z" transform="translate(102.51 304.79)" style="fill:#12753a"/><path d="M-1.37,145.11a25.09,25.09,0,0,1-7-15.12,27.68,27.68,0,0,1,3.54-16.85C-1.11,117.92,1.77,120.56,3,127S2.74,140.9-1.37,145.11Z" transform="translate(102.51 304.79)" style="fill:#1b8c48"/><path d="M2.36,118.61c2.19-5.3,6.09-9.47,10.64-11.36a15.51,15.51,0,0,1,14,1.09c-3.08,5.38-4.63,9.4-9.47,12.15A12.5,12.5,0,0,1,2.36,118.61Z" transform="translate(102.51 304.79)" style="fill:#12753a"/><path d="M54,170.39a25,25,0,0,1-7-15.12,27.62,27.62,0,0,1,3.55-16.85c3.67,4.77,6.56,7.42,7.81,13.84S58.12,166.18,54,170.39Z" transform="translate(102.51 304.79)" style="fill:#1b8c48"/><path d="M57.74,143.89c2.19-5.3,6.09-9.47,10.65-11.37a15.52,15.52,0,0,1,14,1.1c-3.08,5.38-4.62,9.4-9.46,12.15A12.52,12.52,0,0,1,57.74,143.89Z" transform="translate(102.51 304.79)" style="fill:#12753a"/><path d="M121.21,185.88a22,22,0,0,1-9.63-12.67,28.51,28.51,0,0,1,.25-17.41c4.47,3.57,7.78,5.3,10.22,11.17S124.4,180.59,121.21,185.88Z" transform="translate(102.51 304.79)" style="fill:#1b8c48"/><path d="M119.81,159A23.75,23.75,0,0,1,128,144.89a15.84,15.84,0,0,1,13.83-3c-2,6.13-2.71,10.49-6.89,14.57S124.6,161.91,119.81,159Z" transform="translate(102.51 304.79)" style="fill:#12753a"/><path d="M197.07,194.24a19.33,19.33,0,0,1-11.58-9.85,28,28,0,0,1-2.72-17.09c5,2.32,8.51,3.15,11.89,8.25S199.29,188.24,197.07,194.24Z" transform="translate(102.51 304.79)" style="fill:#1b8c48"/><path d="M186.81,169.37a26.33,26.33,0,0,1,5.59-16,17.16,17.16,0,0,1,13-6.58c-.89,6.51-.87,11-4.26,16.05S192,170.92,186.81,169.37Z" transform="translate(102.51 304.79)" style="fill:#12753a"/><path d="M260.81,191.51c-4.69-1.26-8.94-4.88-11.58-9.85a28.05,28.05,0,0,1-2.72-17.08c5,2.32,8.51,3.14,11.89,8.24S263,185.51,260.81,191.51Z" transform="translate(102.51 304.79)" style="fill:#1b8c48"/><path d="M254.87,165.65a26.23,26.23,0,0,1,5.59-16,17.17,17.17,0,0,1,13-6.58c-.88,6.51-.86,11-4.25,16S260,167.2,254.87,165.65Z" transform="translate(102.51 304.79)" style="fill:#12753a"/><path d="M328.87,182.51c-4.69-1.27-8.94-4.89-11.58-9.86a28.05,28.05,0,0,1-2.73-17.08c5,2.32,8.52,3.14,11.9,8.24S331.09,176.5,328.87,182.51Z" transform="translate(102.51 304.79)" style="fill:#1b8c48"/><path d="M322.92,156.64a26.35,26.35,0,0,1,5.59-16,17.17,17.17,0,0,1,13-6.58c-.89,6.51-.87,11-4.26,16S328.1,158.19,322.92,156.64Z" transform="translate(102.51 304.79)" style="fill:#12753a"/><path d="M397.85,166.06a17.19,17.19,0,0,1-13-6.6,26.37,26.37,0,0,1-5.57-16c5.27,1,8.86.85,13,4.95A20.82,20.82,0,0,1,397.85,166.06Z" transform="translate(102.51 304.79)" style="fill:#1b8c48"/><path d="M387.63,142.33a28.06,28.06,0,0,1,2.74-17.08c2.65-5,6.9-8.57,11.6-9.83.24,6.59,1,10.94-1.43,16.8S393,142.49,387.63,142.33Z" transform="translate(102.51 304.79)" style="fill:#12753a"/><path d="M457.78,145a16.15,16.15,0,0,1-13.62-4.24,24.71,24.71,0,0,1-7.36-14.83c5.33,0,8.87-.73,13.47,2.59A19.64,19.64,0,0,1,457.78,145Z" transform="translate(102.51 304.79)" style="fill:#1b8c48"/><path d="M444.94,123.31a28.49,28.49,0,0,1,.75-17.38c2.05-5.39,5.84-9.71,10.34-11.79,1,6.48,2.27,10.65.52,16.88S450.22,122.53,444.94,123.31Z" transform="translate(102.51 304.79)" style="fill:#12753a"/><path d="M520.8,112.51a15.55,15.55,0,0,1-14,1c-4.54-1.94-8.42-6.14-10.57-11.46,5.09-1.94,8.29-4,13.48-2.48S519.59,106.08,520.8,112.51Z" transform="translate(102.51 304.79)" style="fill:#1b8c48"/><path d="M503.34,97.54a27.72,27.72,0,0,1-3.45-16.88,25,25,0,0,1,7.05-15.06c2.51,5.82,4.72,9.33,4.54,15.92S508.2,94.84,503.34,97.54Z" transform="translate(102.51 304.79)" style="fill:#12753a"/><path d="M581.49,84.1a15.52,15.52,0,0,1-14,1c-4.54-1.93-8.42-6.14-10.58-11.46,5.09-1.94,8.29-4,13.48-2.48S580.28,77.67,581.49,84.1Z" transform="translate(102.51 304.79)" style="fill:#1b8c48"/><path d="M564,68.13a27.63,27.63,0,0,1-3.45-16.88,25,25,0,0,1,7-15.06c2.51,5.82,4.72,9.33,4.54,15.93S568.89,65.44,564,68.13Z" transform="translate(102.51 304.79)" style="fill:#12753a"/><path d="M639.28,50.46a16,16,0,0,1-13.7,3.8,18.78,18.78,0,0,1-12-9.16c4.76-2.94,7.66-5.59,13-5.18S637.25,44.36,639.28,50.46Z" transform="translate(102.51 304.79)" style="fill:#1b8c48"/><path d="M620,38.25a26.28,26.28,0,0,1-5.63-16,26.77,26.77,0,0,1,5-16.29c3.24,5.24,5.89,8.25,6.58,14.8S624.39,34.6,620,38.25Z" transform="translate(102.51 304.79)" style="fill:#12753a"/><path d="M695.77,13.73a16,16,0,0,1-13.7,3.81,18.78,18.78,0,0,1-12-9.16c4.76-3,7.66-5.59,13-5.19S693.74,7.63,695.77,13.73Z" transform="translate(102.51 304.79)" style="fill:#1b8c48"/><path d="M676.44,1.52a26.25,26.25,0,0,1-5.63-15.95,26.77,26.77,0,0,1,5-16.29c3.24,5.23,5.89,8.25,6.58,14.79S680.88-2.12,676.44,1.52Z" transform="translate(102.51 304.79)" style="fill:#12753a"/><path d="M742.63-21.19a16,16,0,0,1-13.71,3.81A18.8,18.8,0,0,1,717-26.54c4.77-2.95,7.66-5.59,13-5.19S740.59-27.29,742.63-21.19Z" transform="translate(102.51 304.79)" style="fill:#1b8c48"/><path d="M723.3-33.4a26.25,26.25,0,0,1-5.63-16,26.76,26.76,0,0,1,5-16.29c3.25,5.23,5.89,8.25,6.59,14.79S727.74-37,723.3-33.4Z" transform="translate(102.51 304.79)" style="fill:#12753a"/><path d="M788.61-55.55a16,16,0,0,1-13.06,5.62,18.78,18.78,0,0,1-13.08-7.46c4.32-3.56,6.83-6.57,12.15-6.89S785.77-61.32,788.61-55.55Z" transform="translate(102.51 304.79)" style="fill:#1b8c48"/><path d="M767.81-65a26.32,26.32,0,0,1-7.74-15,26.87,26.87,0,0,1,2.72-16.81c3.92,4.75,7,7.38,8.53,13.77S771.72-69.25,767.81-65Z" transform="translate(102.51 304.79)" style="fill:#12753a"/><path d="M832.86-96a16,16,0,0,1-13.07,5.62,18.78,18.78,0,0,1-13.07-7.46c4.32-3.56,6.83-6.57,12.15-6.89S830-101.78,832.86-96Z" transform="translate(102.51 304.79)" style="fill:#1b8c48"/><path d="M812.05-105.5a26.19,26.19,0,0,1-7.73-15A26.72,26.72,0,0,1,807-137.35c3.92,4.75,7,7.37,8.52,13.76S816-109.71,812.05-105.5Z" transform="translate(102.51 304.79)" style="fill:#12753a"/><path d="M878.72-136a16,16,0,0,1-13.07,5.62,18.78,18.78,0,0,1-13.07-7.46c4.32-3.56,6.83-6.57,12.15-6.89S875.88-141.81,878.72-136Z" transform="translate(102.51 304.79)" style="fill:#1b8c48"/><path d="M857.92-145.53a26.26,26.26,0,0,1-7.74-15,26.78,26.78,0,0,1,2.72-16.81c3.92,4.74,7,7.37,8.52,13.76S861.82-149.74,857.92-145.53Z" transform="translate(102.51 304.79)" style="fill:#12753a"/><path d="M923.86-183a16,16,0,0,1-13.06,5.62,18.78,18.78,0,0,1-13.08-7.46c4.32-3.56,6.83-6.57,12.15-6.89S921-188.81,923.86-183Z" transform="translate(102.51 304.79)" style="fill:#1b8c48"/><path d="M903.06-192.53a26.26,26.26,0,0,1-7.74-15A26.78,26.78,0,0,1,898-224.38c3.92,4.75,7,7.37,8.53,13.76S907-196.74,903.06-192.53Z" transform="translate(102.51 304.79)" style="fill:#12753a"/><path d="M963-225.2A16,16,0,0,1,950-219.58,18.78,18.78,0,0,1,936.9-227c4.32-3.56,6.83-6.57,12.15-6.89S960.2-231,963-225.2Z" transform="translate(102.51 304.79)" style="fill:#1b8c48"/><path d="M942.24-234.69a26.26,26.26,0,0,1-7.74-15,26.78,26.78,0,0,1,2.72-16.81c3.92,4.75,6.95,7.37,8.52,13.76S946.14-238.9,942.24-234.69Z" transform="translate(102.51 304.79)" style="fill:#12753a"/><path d="M211.28,170.56c-54.61,0-106-8.41-153-25.08C-2.28,124-56.37,88.63-102.51,40.27l4.34-4.14C-52.68,83.8.62,118.69,60.26,139.82c54.9,19.45,115.77,27.5,180.91,23.91,115.71-6.38,244.25-49.18,371.72-123.79C691.67-6.16,770.21-66.27,846.34-138.72c73.42-69.87,126.17-134,151.08-166.07l4.73,3.69c-25,32.16-78,96.58-151.68,166.73C774-61.61,695.1-1.22,615.93,45.12,487.63,120.2,358.16,163.29,241.5,169.72Q226.25,170.56,211.28,170.56Z" transform="translate(102.51 304.79)" style="fill:#12753a"/></g></svg>