<svg xmlns="http://www.w3.org/2000/svg" width="current" height="current" preserveAspectRatio="xMidYMid slice" viewBox="0 0 1105.23 1333.83"><g id="Layer_29" data-name="Layer 29"><rect x="101.73" y="133.83" width="900" height="1200" style="fill:none"/></g><g id="vine-1"><path d="M827.33,393.43a532.86,532.86,0,0,1-70.74-4.7C691.56,380,645,359.68,614.25,326.6a3,3,0,0,1,4.4-4.09c29.76,32,75.14,51.74,138.74,60.27a531.31,531.31,0,0,0,242.13-24,3,3,0,0,1,2,5.68A537.24,537.24,0,0,1,827.33,393.43Z" transform="translate(101.73 133.83)" style="fill:#12753a"/><path d="M630.89,355.88a10.52,10.52,0,0,1,.51-17.48,12.1,12.1,0,0,1,3.18,9.07C634.36,350.75,631.19,355.86,630.89,355.88Z" transform="translate(101.73 133.83)" style="fill:#12753a"/><path d="M663.17,375.65a10.52,10.52,0,0,1-2.8-17.25,12.13,12.13,0,0,1,4.84,8.29C665.61,370,663.47,375.57,663.17,375.65Z" transform="translate(101.73 133.83)" style="fill:#12753a"/><path d="M698.4,388.87a10.53,10.53,0,0,1-4.8-16.81,12.07,12.07,0,0,1,5.77,7.67C700.15,382.93,698.69,388.76,698.4,388.87Z" transform="translate(101.73 133.83)" style="fill:#12753a"/><path d="M733,398.75a10.53,10.53,0,0,1-4.8-16.81,12.12,12.12,0,0,1,5.78,7.67C734.79,392.81,733.33,398.64,733,398.75Z" transform="translate(101.73 133.83)" style="fill:#12753a"/><path d="M771.66,403.05a10.52,10.52,0,0,1-6.2-16.34,12.14,12.14,0,0,1,6.4,7.16C772.91,397,771.94,402.92,771.66,403.05Z" transform="translate(101.73 133.83)" style="fill:#12753a"/><path d="M812.69,405.12A10.52,10.52,0,0,1,803,390.56a12.11,12.11,0,0,1,7.83,5.57C812.56,398.94,812.93,404.93,812.69,405.12Z" transform="translate(101.73 133.83)" style="fill:#12753a"/><path d="M856.35,403.22a10.53,10.53,0,0,1-12.2-12.52,12.1,12.1,0,0,1,8.73,4C855.08,397.16,856.55,403,856.35,403.22Z" transform="translate(101.73 133.83)" style="fill:#12753a"/><path d="M899.93,401.58a10.52,10.52,0,0,1-12.19-12.52,12.08,12.08,0,0,1,8.72,4C898.66,395.52,900.13,401.35,899.93,401.58Z" transform="translate(101.73 133.83)" style="fill:#12753a"/><path d="M940.55,394.11a10.53,10.53,0,0,1-12.2-12.52,12.08,12.08,0,0,1,8.72,4C939.27,388.05,940.75,393.88,940.55,394.11Z" transform="translate(101.73 133.83)" style="fill:#12753a"/><path d="M986.4,381.71a10.53,10.53,0,0,1-15-9,12.11,12.11,0,0,1,9.46,1.66C983.62,376.17,986.53,381.43,986.4,381.71Z" transform="translate(101.73 133.83)" style="fill:#12753a"/><path d="M649.76,337.71a11.53,11.53,0,0,0-9.88-3.26,6.83,6.83,0,0,0-2.84,1.09,11.55,11.55,0,0,0-2.5,2.82,8,8,0,0,0,7.51,2.92A17.11,17.11,0,0,0,649.76,337.71Z" transform="translate(101.73 133.83)" style="fill:#1b8c48"/><path d="M678.25,354.23a11.52,11.52,0,0,0-10.31-1.32,6.73,6.73,0,0,0-2.58,1.61,11.48,11.48,0,0,0-1.92,3.24,8,8,0,0,0,7.92,1.44A16.91,16.91,0,0,0,678.25,354.23Z" transform="translate(101.73 133.83)" style="fill:#1b8c48"/><path d="M710.88,365.83a11.52,11.52,0,0,0-10.4-.11,6.78,6.78,0,0,0-2.37,1.9,11.67,11.67,0,0,0-1.54,3.44,8,8,0,0,0,8,.51A16.94,16.94,0,0,0,710.88,365.83Z" transform="translate(101.73 133.83)" style="fill:#1b8c48"/><path d="M745.52,375.71a11.52,11.52,0,0,0-10.4-.11,6.78,6.78,0,0,0-2.37,1.9,11.67,11.67,0,0,0-1.54,3.44,8,8,0,0,0,8,.51A16.94,16.94,0,0,0,745.52,375.71Z" transform="translate(101.73 133.83)" style="fill:#1b8c48"/><path d="M782.15,379.05a11.51,11.51,0,0,0-10.37.77,6.68,6.68,0,0,0-2.21,2.09,11.29,11.29,0,0,0-1.23,3.56,8,8,0,0,0,8-.17A17.11,17.11,0,0,0,782.15,379.05Z" transform="translate(101.73 133.83)" style="fill:#1b8c48"/><path d="M817.6,379.39a11.54,11.54,0,0,0-9.94,3.05A6.87,6.87,0,0,0,806,385a11.81,11.81,0,0,0-.42,3.74,8,8,0,0,0,7.82-1.95A16.89,16.89,0,0,0,817.6,379.39Z" transform="translate(101.73 133.83)" style="fill:#1b8c48"/><path d="M856.42,377a11.52,11.52,0,0,0-9.21,4.84,6.82,6.82,0,0,0-1.19,2.79,11.49,11.49,0,0,0,.28,3.76,8,8,0,0,0,7.32-3.36A17,17,0,0,0,856.42,377Z" transform="translate(101.73 133.83)" style="fill:#1b8c48"/><path d="M900,375.39a11.51,11.51,0,0,0-9.21,4.83,6.8,6.8,0,0,0-1.19,2.8,11.73,11.73,0,0,0,.28,3.75,8,8,0,0,0,7.33-3.36A17,17,0,0,0,900,375.39Z" transform="translate(101.73 133.83)" style="fill:#1b8c48"/><path d="M940.61,367.92a11.5,11.5,0,0,0-9.2,4.83,6.67,6.67,0,0,0-1.19,2.8,11.17,11.17,0,0,0,.28,3.75,8,8,0,0,0,7.32-3.36A17,17,0,0,0,940.61,367.92Z" transform="translate(101.73 133.83)" style="fill:#1b8c48"/><path d="M979.78,356.36a11.53,11.53,0,0,0-7.67,7,6.82,6.82,0,0,0-.44,3,11.45,11.45,0,0,0,1.24,3.56,8,8,0,0,0,6.22-5.12A17,17,0,0,0,979.78,356.36Z" transform="translate(101.73 133.83)" style="fill:#1b8c48"/></g><g id="vine-2"><path d="M243.62,166.32c-15.82,0-31.06-.61-45.14-1.33-34.34-1.78-71.19-4.71-108-14.07C18.28,132.53-48.19,90.48-101.73,29.33l4.39-5.91C-44.67,83.59,20.74,125,91.81,143.05c36.33,9.25,72.87,12.15,106.94,13.91,30.15,1.55,65.68,2.56,100.56-1.82,71.29-8.95,142.93-41.5,207.18-94.12C567.73,10.86,621.4-56.51,661.72-133.83l5.44,4.36C626.36-51.23,572,17,510.06,67.72,445,121.06,372.29,154.05,300,163.13A453.94,453.94,0,0,1,243.62,166.32Z" transform="translate(101.73 133.83)" style="fill:#12753a"/><path d="M-59.22,96.09a25,25,0,0,1-7-15.12,27.56,27.56,0,0,1,3.54-16.85C-59,68.9-56.08,71.55-54.83,78S-55.12,91.89-59.22,96.09Z" transform="translate(101.73 133.83)" style="fill:#1b8c48"/><path d="M-55.49,69.59c2.18-5.29,6.09-9.47,10.64-11.36a15.51,15.51,0,0,1,14,1.09c-3.08,5.38-4.63,9.4-9.47,12.15A12.5,12.5,0,0,1-55.49,69.59Z" transform="translate(101.73 133.83)" style="fill:#12753a"/><path d="M-6.27,135.14a25,25,0,0,1-7-15.12,27.62,27.62,0,0,1,3.55-16.85C-6,107.94-3.13,110.59-1.88,117S-2.17,130.93-6.27,135.14Z" transform="translate(101.73 133.83)" style="fill:#1b8c48"/><path d="M-2.55,108.64c2.19-5.3,6.09-9.47,10.65-11.37a15.52,15.52,0,0,1,14,1.1c-3.08,5.38-4.62,9.4-9.46,12.15A12.52,12.52,0,0,1-2.55,108.64Z" transform="translate(101.73 133.83)" style="fill:#12753a"/><path d="M49.11,160.38a25,25,0,0,1-7-15.12,27.7,27.7,0,0,1,3.54-16.85c3.67,4.78,6.56,7.43,7.82,13.84S53.21,156.18,49.11,160.38Z" transform="translate(101.73 133.83)" style="fill:#1b8c48"/><path d="M52.84,133.89c2.18-5.3,6.09-9.47,10.64-11.37a15.51,15.51,0,0,1,14,1.09C74.42,129,72.87,133,68,135.77A12.51,12.51,0,0,1,52.84,133.89Z" transform="translate(101.73 133.83)" style="fill:#12753a"/><path d="M113.05,178.44c-4.37-2.47-7.9-7.12-9.63-12.67a28.44,28.44,0,0,1,.25-17.41c4.47,3.58,7.78,5.31,10.21,11.18S116.24,173.16,113.05,178.44Z" transform="translate(101.73 133.83)" style="fill:#1b8c48"/><path d="M111.65,151.6a23.75,23.75,0,0,1,8.19-14.15,15.8,15.8,0,0,1,13.83-3c-2,6.13-2.71,10.49-6.89,14.57S116.44,154.47,111.65,151.6Z" transform="translate(101.73 133.83)" style="fill:#12753a"/><path d="M188.46,186.44c-4.69-1.27-8.94-4.89-11.58-9.86a28,28,0,0,1-2.72-17.08c5,2.32,8.51,3.14,11.89,8.24S190.68,180.43,188.46,186.44Z" transform="translate(101.73 133.83)" style="fill:#1b8c48"/><path d="M182.51,160.57a26.35,26.35,0,0,1,5.59-16,17.19,17.19,0,0,1,13-6.58c-.89,6.51-.87,11-4.26,16.05S187.69,162.12,182.51,160.57Z" transform="translate(101.73 133.83)" style="fill:#12753a"/><path d="M259.09,187.61c-4.69-1.26-8.94-4.88-11.58-9.85a28.07,28.07,0,0,1-2.73-17.09c5,2.32,8.52,3.15,11.9,8.25S261.31,181.61,259.09,187.61Z" transform="translate(101.73 133.83)" style="fill:#1b8c48"/><path d="M253.14,161.75a26.33,26.33,0,0,1,5.59-16,17.14,17.14,0,0,1,13-6.58c-.89,6.51-.87,11-4.26,16.05S258.32,163.3,253.14,161.75Z" transform="translate(101.73 133.83)" style="fill:#12753a"/><path d="M329.39,182.34c-4.69-1.26-8.94-4.88-11.58-9.85a28.05,28.05,0,0,1-2.73-17.08c5,2.32,8.52,3.14,11.9,8.24S331.6,176.34,329.39,182.34Z" transform="translate(101.73 133.83)" style="fill:#1b8c48"/><path d="M323.44,156.48a26.35,26.35,0,0,1,5.59-16,17.14,17.14,0,0,1,13-6.58c-.88,6.51-.86,11-4.25,16.05S328.61,158,323.44,156.48Z" transform="translate(101.73 133.83)" style="fill:#12753a"/><path d="M398.1,159.92a17.17,17.17,0,0,1-13-6.61,26.31,26.31,0,0,1-5.57-16c5.27,1,8.86.85,13,4.95A20.79,20.79,0,0,1,398.1,159.92Z" transform="translate(101.73 133.83)" style="fill:#1b8c48"/><path d="M387.88,136.19a28,28,0,0,1,2.75-17.08c2.64-5,6.89-8.57,11.59-9.83.24,6.59,1,10.94-1.43,16.8S393.2,136.35,387.88,136.19Z" transform="translate(101.73 133.83)" style="fill:#12753a"/><path d="M458.3,130.22A16.18,16.18,0,0,1,444.68,126a24.71,24.71,0,0,1-7.36-14.84c5.33,0,8.87-.72,13.47,2.6A19.62,19.62,0,0,1,458.3,130.22Z" transform="translate(101.73 133.83)" style="fill:#1b8c48"/><path d="M445.46,108.54a28.45,28.45,0,0,1,.75-17.39c2-5.38,5.84-9.71,10.34-11.78,1,6.48,2.27,10.64.52,16.88S450.74,107.76,445.46,108.54Z" transform="translate(101.73 133.83)" style="fill:#12753a"/><path d="M518.32,86a15.52,15.52,0,0,1-14,1c-4.54-1.94-8.42-6.14-10.57-11.46,5.09-1.94,8.29-4,13.48-2.48S517.12,79.56,518.32,86Z" transform="translate(101.73 133.83)" style="fill:#1b8c48"/><path d="M500.86,70a27.72,27.72,0,0,1-3.45-16.88,25,25,0,0,1,7-15.06C507,43.9,509.18,47.41,509,54S505.72,67.33,500.86,70Z" transform="translate(101.73 133.83)" style="fill:#12753a"/><path d="M567.9,41.24a15.55,15.55,0,0,1-14,1c-4.54-1.94-8.42-6.15-10.58-11.46,5.09-1.94,8.29-4,13.48-2.49S566.7,34.81,567.9,41.24Z" transform="translate(101.73 133.83)" style="fill:#1b8c48"/><path d="M550.45,25.26A27.63,27.63,0,0,1,547,8.38a25,25,0,0,1,7-15.06c2.51,5.83,4.72,9.34,4.54,15.93S555.31,22.57,550.45,25.26Z" transform="translate(101.73 133.83)" style="fill:#12753a"/><path d="M616.89-14.42a16.06,16.06,0,0,1-13.71,3.8,18.8,18.8,0,0,1-11.95-9.16c4.77-2.94,7.66-5.59,13-5.18S614.85-20.52,616.89-14.42Z" transform="translate(101.73 133.83)" style="fill:#1b8c48"/><path d="M597.56-26.63a26.22,26.22,0,0,1-5.63-16,26.73,26.73,0,0,1,5-16.28c3.25,5.23,5.89,8.24,6.59,14.79S602-30.28,597.56-26.63Z" transform="translate(101.73 133.83)" style="fill:#12753a"/><path d="M656.7-71.64A16,16,0,0,1,643-67.84,18.76,18.76,0,0,1,631.05-77c4.76-3,7.65-5.59,13-5.18S654.66-77.74,656.7-71.64Z" transform="translate(101.73 133.83)" style="fill:#1b8c48"/><path d="M637.37-83.86a26.25,26.25,0,0,1-5.63-16,26.76,26.76,0,0,1,5-16.29c3.25,5.24,5.89,8.25,6.59,14.79S641.81-87.5,637.37-83.86Z" transform="translate(101.73 133.83)" style="fill:#12753a"/></g></svg>